<svg width="416" height="174" viewBox="0 0 416 174" fill="none" xmlns="http://www.w3.org/2000/svg">
<rect width="416" height="174" fill="white"/>
<path d="M284.87 31H190.402C187.58 31 185.272 33.2999 185.272 36.111V101.276C185.272 104.087 187.58 106.387 190.402 106.387H240.543L258.795 119.164L256.829 106.387H284.87C287.692 106.387 290 104.087 290 101.276V36.111C290 33.2999 287.692 31 284.87 31Z" fill="#F0E5C8"/>
<path d="M275.039 49.7402H258.795V85.943H275.039V49.7402Z" fill="white"/>
<path d="M256.23 62.0918H239.987V85.943H256.23V62.0918Z" fill="white"/>
<path d="M237.422 68.9065H221.179V85.9431H237.422V68.9065Z" fill="white"/>
<path d="M179.074 42.9255C149.194 42.9255 125 67.0323 125 96.8038C125 108.346 128.633 119.079 134.874 127.81L128.42 148.978L150.776 142.717C159.026 147.743 168.687 150.682 179.074 150.682C208.953 150.682 233.148 126.575 233.148 96.8038C233.148 67.0323 208.953 42.9255 179.074 42.9255Z" fill="#A77F91"/>
<path d="M209.766 83.8135H148.639V88.4985H209.766V83.8135Z" fill="white"/>
<path d="M209.766 95.313H148.639V99.9981H209.766V95.313Z" fill="white"/>
<path d="M209.766 107.239H148.639V111.924H209.766V107.239Z" fill="white"/>
<path d="M284.956 170.615L284.7 170.87C281.836 173.724 277.176 173.724 274.312 170.87L243.834 140.46L254.435 129.897L284.956 160.308C287.82 163.119 287.82 167.761 284.956 170.615Z" fill="#74AFC1"/>
<path d="M252.341 132.325L244.39 124.403C249.263 118.313 252.212 110.561 252.212 102.17C252.212 82.408 236.14 66.3936 216.306 66.3936C196.471 66.3936 180.399 82.408 180.399 102.17C180.399 121.933 196.471 137.947 216.306 137.947C224.684 137.947 232.378 135.094 238.448 130.323L246.399 138.245L252.341 132.325ZM216.306 130.068C200.832 130.068 188.307 117.589 188.307 102.17C188.307 86.7523 200.832 74.273 216.306 74.273C231.78 74.273 244.304 86.7523 244.304 102.17C244.304 117.589 231.78 130.068 216.306 130.068Z" fill="#11161C"/>
<path opacity="0.2" d="M216.306 130.068C231.769 130.068 244.304 117.578 244.304 102.17C244.304 86.7631 231.769 74.2729 216.306 74.2729C200.842 74.2729 188.307 86.7631 188.307 102.17C188.307 117.578 200.842 130.068 216.306 130.068Z" fill="#74AFC1"/>
</svg>
