<svg width="416" height="174" viewBox="0 0 416 174" fill="none" xmlns="http://www.w3.org/2000/svg">
<path d="M0 8C0 3.58172 3.58172 0 8 0H408C412.418 0 416 3.58172 416 8V174H0V8Z" fill="white"/>
<path d="M319.777 165H289.698C286.275 165 283.475 162.189 283.475 158.754V94.7337C283.475 91.2984 286.275 88.4878 289.698 88.4878H319.777C323.2 88.4878 326 91.2984 326 94.7337V158.754C326 162.189 323.2 165 319.777 165Z" fill="#11161C"/>
<path d="M320.14 156.672H289.387C288.142 156.672 287.105 155.631 287.105 154.382V95.9828C287.105 94.7336 288.142 93.6926 289.387 93.6926H320.14C321.384 93.6926 322.422 94.7336 322.422 95.9828V154.434C322.37 155.631 321.384 156.672 320.14 156.672Z" fill="white"/>
<path d="M304.737 163.386C306.141 163.386 307.279 162.245 307.279 160.836C307.279 159.428 306.141 158.286 304.737 158.286C303.334 158.286 302.196 159.428 302.196 160.836C302.196 162.245 303.334 163.386 304.737 163.386Z" fill="#303E4E"/>
<path d="M307.59 92.1313H299.811C299.551 92.1313 299.292 91.9231 299.292 91.6108C299.292 91.2985 299.551 91.0903 299.811 91.0903H307.59C307.901 91.0903 308.108 91.2985 308.108 91.6108C308.108 91.9231 307.901 92.1313 307.59 92.1313Z" fill="#303E4E"/>
<path d="M309.664 92.1313C309.405 92.1313 309.146 91.9231 309.146 91.6108C309.146 91.2985 309.405 91.0903 309.664 91.0903C309.975 91.0903 310.183 91.2985 310.183 91.6108C310.183 91.9231 309.975 92.1313 309.664 92.1313Z" fill="#303E4E"/>
<path d="M260.708 151.988H105.803C102.069 151.988 98.9572 148.917 98.9572 145.117V44.8705C98.9572 41.0709 102.069 38 105.803 38H260.708C264.442 38 267.554 41.0709 267.554 44.8705V145.169C267.502 148.917 264.442 151.988 260.708 151.988Z" fill="#11161C"/>
<path d="M272.74 165H93.7711C91.1263 165 89 162.866 89 160.212C89 155.683 92.6821 151.988 97.1939 151.988H269.265C273.777 151.988 277.459 155.683 277.459 160.212C277.511 162.866 275.385 165 272.74 165Z" fill="#11161C"/>
<path d="M259.567 145.742H106.943C106.01 145.742 105.232 144.961 105.232 144.024V45.9635C105.232 45.0266 106.01 44.2458 106.943 44.2458H259.619C260.553 44.2458 261.331 45.0266 261.331 45.9635V144.024C261.279 144.961 260.553 145.742 259.567 145.742Z" fill="white"/>
<path d="M162.9 56.2173H114.671V75.5275H162.9V56.2173Z" fill="#74AFC1"/>
<path d="M162.9 84.48H114.671V89.1124H162.9V84.48Z" fill="#11161C"/>
<path d="M162.9 91.6626H114.671V96.295H162.9V91.6626Z" fill="#11161C"/>
<path d="M162.9 99.2097H114.671V103.842H162.9V99.2097Z" fill="#11161C"/>
<path d="M140.756 106.965H114.671V111.389H140.756V106.965Z" fill="#11161C"/>
<path d="M219.739 94.6296C230.594 94.6296 239.394 85.7976 239.394 74.9029C239.394 64.0082 230.594 55.1763 219.739 55.1763C208.884 55.1763 200.084 64.0082 200.084 74.9029C200.084 85.7976 208.884 94.6296 219.739 94.6296Z" fill="#F0E5C8"/>
<path d="M194.068 113.992C194.068 103.113 205.529 94.2651 219.687 94.2651C233.845 94.2651 245.306 103.113 245.306 113.992" fill="#F0E5C8"/>
<path d="M176.643 137.414H152.269C149.002 137.414 146.305 134.707 146.305 131.428C146.305 128.149 149.002 125.443 152.269 125.443H176.643C179.91 125.443 182.607 128.149 182.607 131.428C182.607 134.707 179.91 137.414 176.643 137.414Z" fill="#A77F91"/>
<path d="M311.375 149.073H298.514C297.477 149.073 296.595 148.188 296.595 147.147C296.595 146.106 297.477 145.221 298.514 145.221H311.375C312.413 145.221 313.294 146.106 313.294 147.147C313.294 148.24 312.413 149.073 311.375 149.073Z" fill="#A77F91"/>
<path d="M216.057 137.414H191.683C188.416 137.414 185.719 134.707 185.719 131.428C185.719 128.149 188.416 125.443 191.683 125.443H216.057C219.324 125.443 222.021 128.149 222.021 131.428C222.021 134.707 219.324 137.414 216.057 137.414Z" stroke="#A77F91" stroke-miterlimit="10"/>
<path d="M311.272 154.59H298.411C297.373 154.59 296.492 153.705 296.492 152.664C296.492 151.623 297.373 150.739 298.411 150.739H311.272C312.309 150.739 313.191 151.623 313.191 152.664C313.191 153.705 312.309 154.59 311.272 154.59Z" stroke="#A77F91" stroke-miterlimit="10"/>
<path d="M318.273 96.8157H290.165V105.664H318.273V96.8157Z" fill="#74AFC1"/>
<path d="M318.273 108.214H290.165V110.921H318.273V108.214Z" fill="#11161C"/>
<path d="M318.273 111.545H290.165V114.252H318.273V111.545Z" fill="#11161C"/>
<path d="M305.412 115.033H290.165V117.635H305.412V115.033Z" fill="#11161C"/>
<path d="M304.893 135.228C309.017 135.228 312.361 131.872 312.361 127.733C312.361 123.593 309.017 120.238 304.893 120.238C300.769 120.238 297.425 123.593 297.425 127.733C297.425 131.872 300.769 135.228 304.893 135.228Z" fill="#F0E5C8"/>
<path d="M295.143 142.619C295.143 138.455 299.5 135.124 304.893 135.124C310.286 135.124 314.643 138.507 314.643 142.619" fill="#F0E5C8"/>
</svg>
