<svg width="268" height="231" viewBox="0 0 268 231" fill="none" xmlns="http://www.w3.org/2000/svg">
<g clip-path="url(#clip0)">
<path d="M259.668 0H106.228C101.646 0 97.8965 3.74145 97.8965 8.31434V114.322C97.8965 118.895 101.646 122.636 106.228 122.636H187.67L217.316 143.422L214.122 122.636H259.668C264.251 122.636 268 118.895 268 114.322V8.31434C268 3.74145 264.251 0 259.668 0Z" fill="#F0E5C8"/>
<path d="M243.7 30.4858H217.316V89.3791H243.7V30.4858Z" fill="#11161C"/>
<path d="M213.15 50.5789H186.767V89.3791H213.15V50.5789Z" fill="#11161C"/>
<path d="M182.601 61.6648H156.218V89.3792H182.601V61.6648Z" fill="#11161C"/>
<path d="M87.829 19.4001C39.2974 19.4001 0 58.6161 0 107.047C0 125.824 5.90155 143.284 16.0383 157.487L5.5544 191.923L41.8663 181.738C55.2663 189.913 70.9575 194.694 87.829 194.694C136.361 194.694 175.658 155.478 175.658 107.047C175.658 58.6161 136.361 19.4001 87.829 19.4001Z" fill="#A77F91"/>
<path d="M137.285 85H38V92.6215H137.285V85Z" fill="#11161C"/>
<path d="M137.68 104.622H38.395V112.244H137.68V104.622Z" fill="#11161C"/>
<path d="M137.68 124.022H38.395V131.644H137.68V124.022Z" fill="#11161C"/>
<path d="M259.807 227.12L259.391 227.536C254.739 232.178 247.171 232.178 242.519 227.536L193.015 178.066L210.234 160.883L259.807 210.353C264.459 214.926 264.459 222.478 259.807 227.12Z" fill="#74AFC1"/>
<path d="M206.832 164.832L193.918 151.944C201.833 142.036 206.624 129.426 206.624 115.777C206.624 83.6283 180.518 57.5767 148.303 57.5767C116.087 57.5767 89.9814 83.6283 89.9814 115.777C89.9814 147.926 116.087 173.977 148.303 173.977C161.911 173.977 174.408 169.335 184.267 161.575L197.181 174.462L206.832 164.832ZM148.303 161.159C123.169 161.159 102.826 140.859 102.826 115.777C102.826 90.6954 123.169 70.3946 148.303 70.3946C173.436 70.3946 193.779 90.6954 193.779 115.777C193.779 140.859 173.436 161.159 148.303 161.159Z" fill="white"/>
<path opacity="0.2" d="M148.303 161.16C173.419 161.16 193.78 140.841 193.78 115.777C193.78 90.7132 173.419 70.3948 148.303 70.3948C123.187 70.3948 102.826 90.7132 102.826 115.777C102.826 140.841 123.187 161.16 148.303 161.16Z" fill="#74AFC1"/>
</g>
<defs>
<clipPath id="clip0">
<rect width="268" height="231" fill="white"/>
</clipPath>
</defs>
</svg>
