<svg width="332" height="177" viewBox="0 0 332 177" fill="none" xmlns="http://www.w3.org/2000/svg">
<path d="M323.282 177H281.147C276.352 177 272.429 173.083 272.429 168.295V79.0697C272.429 74.282 276.352 70.3647 281.147 70.3647H323.282C328.077 70.3647 332 74.282 332 79.0697V168.295C332 173.083 328.077 177 323.282 177Z" fill="#A77F90"/>
<path d="M323.791 165.393H280.711C278.967 165.393 277.514 163.942 277.514 162.201V80.8105C277.514 79.0695 278.967 77.6187 280.711 77.6187H323.791C325.535 77.6187 326.987 79.0695 326.987 80.8105V162.274C326.915 163.942 325.535 165.393 323.791 165.393Z" fill="white"/>
<path d="M302.215 174.751C304.181 174.751 305.774 173.16 305.774 171.197C305.774 169.234 304.181 167.642 302.215 167.642C300.249 167.642 298.655 169.234 298.655 171.197C298.655 173.16 300.249 174.751 302.215 174.751Z" fill="#11161C"/>
<path d="M306.21 75.4425H295.313C294.95 75.4425 294.586 75.1524 294.586 74.7171C294.586 74.2819 294.95 73.9917 295.313 73.9917H306.21C306.646 73.9917 306.937 74.2819 306.937 74.7171C306.937 75.1524 306.646 75.4425 306.21 75.4425Z" fill="#11161C"/>
<path d="M309.116 75.4425C308.753 75.4425 308.39 75.1524 308.39 74.7171C308.39 74.2819 308.753 73.9917 309.116 73.9917C309.552 73.9917 309.843 74.2819 309.843 74.7171C309.843 75.1524 309.552 75.4425 309.116 75.4425Z" fill="#11161C"/>
<path d="M240.537 158.865H23.538C18.3073 158.865 13.9485 154.585 13.9485 149.289V9.57541C13.9485 4.27992 18.3073 0 23.538 0H240.537C245.767 0 250.126 4.27992 250.126 9.57541V149.362C250.053 154.585 245.767 158.865 240.537 158.865Z" fill="#74AFC1"/>
<path d="M257.391 177H6.68359C2.97856 177 0 174.026 0 170.326C0 164.015 5.15799 158.865 11.4783 158.865H252.523C258.844 158.865 264.002 164.015 264.002 170.326C264.074 174.026 261.096 177 257.391 177Z" fill="#74AFC1"/>
<path d="M238.938 150.16H25.1361C23.8285 150.16 22.7388 149.072 22.7388 147.766V11.0987C22.7388 9.79295 23.8285 8.70483 25.1361 8.70483H239.011C240.319 8.70483 241.408 9.79295 241.408 11.0987V147.766C241.336 149.072 240.319 150.16 238.938 150.16Z" fill="white"/>
<path d="M103.523 25.3894H35.9607V52.3021H103.523V25.3894Z" fill="#74AFC1"/>
<path d="M103.523 64.7791H35.9607V71.2352H103.523V64.7791Z" fill="#11161C"/>
<path d="M103.523 74.7898H35.9607V81.2459H103.523V74.7898Z" fill="#11161C"/>
<path d="M103.523 85.3081H35.9607V91.7642H103.523V85.3081Z" fill="#11161C"/>
<path d="M72.5025 96.1167H35.9607V102.283H72.5025V96.1167Z" fill="#11161C"/>
<path d="M183.145 78.9245C198.351 78.9245 210.679 66.6155 210.679 51.4315C210.679 36.2475 198.351 23.9385 183.145 23.9385C167.939 23.9385 155.612 36.2475 155.612 51.4315C155.612 66.6155 167.939 78.9245 183.145 78.9245Z" fill="#11161C"/>
<path d="M147.184 105.91C147.184 90.7487 163.239 78.4167 183.072 78.4167C202.905 78.4167 218.96 90.7487 218.96 105.91" fill="#11161C"/>
<path d="M122.775 138.553H88.6301C84.0533 138.553 80.2756 134.781 80.2756 130.211C80.2756 125.641 84.0533 121.869 88.6301 121.869H122.775C127.351 121.869 131.129 125.641 131.129 130.211C131.129 134.781 127.351 138.553 122.775 138.553Z" fill="#A77F91"/>
<path d="M311.513 154.803H293.497C292.044 154.803 290.809 153.569 290.809 152.119C290.809 150.668 292.044 149.435 293.497 149.435H311.513C312.966 149.435 314.201 150.668 314.201 152.119C314.201 153.642 312.966 154.803 311.513 154.803Z" fill="#A77F91"/>
<path d="M177.987 138.553H143.843C139.266 138.553 135.488 134.781 135.488 130.211C135.488 125.641 139.266 121.869 143.843 121.869H177.987C182.564 121.869 186.341 125.641 186.341 130.211C186.341 134.781 182.564 138.553 177.987 138.553Z" stroke="#A77F91" stroke-miterlimit="10"/>
<path d="M311.368 162.492H293.352C291.899 162.492 290.664 161.258 290.664 159.808C290.664 158.357 291.899 157.124 293.352 157.124H311.368C312.821 157.124 314.056 158.357 314.056 159.808C314.056 161.258 312.821 162.492 311.368 162.492Z" stroke="#A77F91" stroke-miterlimit="10"/>
<path d="M321.175 81.9714H281.8V94.3034H321.175V81.9714Z" fill="#74AFC1"/>
<path d="M321.175 97.8579H281.8V101.63H321.175V97.8579Z" fill="#11161C"/>
<path d="M321.175 102.5H281.8V106.273H321.175V102.5Z" fill="#11161C"/>
<path d="M303.159 107.361H281.8V110.988H303.159V107.361Z" fill="#11161C"/>
<path d="M302.432 135.507C308.21 135.507 312.894 130.83 312.894 125.061C312.894 119.292 308.21 114.615 302.432 114.615C296.655 114.615 291.971 119.292 291.971 125.061C291.971 130.83 296.655 135.507 302.432 135.507Z" fill="#11161C"/>
<path d="M288.775 145.807C288.775 140.004 294.877 135.361 302.432 135.361C309.988 135.361 316.09 140.076 316.09 145.807" fill="#11161C"/>
</svg>
