<svg width="150" height="35" viewBox="0 0 150 35" fill="none" xmlns="http://www.w3.org/2000/svg">
<path d="M1.02667 33.3597C0.362353 32.6997 0 31.8597 0 30.8397C0 29.8197 0.362353 28.9797 1.02667 28.2597C1.75137 27.5397 2.59686 27.1797 3.56314 27.1797C4.5898 27.1797 5.43529 27.5397 6.16 28.1997C6.88471 28.9197 7.24706 29.7597 7.24706 30.7797C7.24706 31.7997 6.88471 32.6397 6.16 33.2997C5.43529 34.0197 4.5898 34.3197 3.56314 34.3197C2.59686 34.4397 1.75137 34.0797 1.02667 33.3597Z" fill="#F0E5C8"/>
<path d="M5.85798 24.6601H1.69092V7.08008H5.85798V24.6601Z" fill="#303E4E"/>
<path d="M10.2061 22.2599C10.2061 20.7599 10.6892 19.5599 11.6555 18.6599C12.6217 17.7599 13.9504 17.2199 15.5206 16.9199L20.05 16.2599C20.8955 16.1399 21.3786 15.7199 21.3786 14.9999C21.3786 14.2199 21.0766 13.5599 20.5331 13.0799C19.9896 12.5999 19.1441 12.3599 18.057 12.3599C16.97 12.3599 16.1245 12.6599 15.5206 13.2599C14.9166 13.8599 14.5543 14.5799 14.4335 15.5399L10.5684 14.6999C10.7496 13.1399 11.4743 11.7599 12.8633 10.6199C14.1919 9.47994 15.9433 8.93994 17.9966 8.93994C20.5331 8.93994 22.4657 9.53994 23.6735 10.7999C24.8814 11.9999 25.4853 13.6199 25.4853 15.5399V24.2399C25.4853 25.3799 25.5457 26.3399 25.7268 27.0599H21.8013C21.6806 26.6999 21.6202 25.9799 21.6202 24.8399C20.4727 26.6999 18.661 27.5999 16.1849 27.5999C14.3731 27.5999 12.9237 27.0599 11.8366 26.0399C10.7496 24.9599 10.2061 23.6999 10.2061 22.2599ZM16.97 24.2999C18.2986 24.2999 19.3253 23.9399 20.1104 23.2199C20.8955 22.4999 21.3182 21.3599 21.3182 19.7399V18.9599L16.7284 19.6199C15.1582 19.8599 14.3731 20.6999 14.3731 22.0199C14.3731 22.6199 14.6147 23.1599 15.0374 23.6399C15.5206 24.0599 16.1849 24.2999 16.97 24.2999Z" fill="#303E4E"/>
<path d="M34.7257 27.0599H30.5586V9.47988H34.6049V11.6999C35.088 10.8599 35.8127 10.1399 36.779 9.65988C37.7453 9.17988 38.7719 8.93988 39.7986 8.93988C41.0064 8.93988 42.0331 9.17988 42.9994 9.71988C43.9656 10.2599 44.63 11.0399 45.1131 11.9999C46.3209 9.95988 48.2535 8.87988 50.8504 8.87988C52.6017 8.87988 54.0511 9.41988 55.259 10.5599C56.4668 11.6999 57.0707 13.3199 57.0707 15.5399V26.9399H53.0245V16.3199C53.0245 15.2399 52.7225 14.3999 52.179 13.6799C51.5751 13.0799 50.7296 12.7199 49.5821 12.7199C48.4951 12.7199 47.5892 13.0799 46.9249 13.8599C46.2606 14.5799 45.8982 15.5399 45.8982 16.6199V26.9999H41.7915V16.3199C41.7915 15.2399 41.4896 14.3999 40.946 13.6799C40.4025 13.0199 39.4966 12.7199 38.4096 12.7199C37.3225 12.7199 36.4166 13.0799 35.7523 13.7999C35.088 14.5199 34.786 15.4799 34.786 16.6199V27.0599H34.7257Z" fill="#303E4E"/>
<path d="M60.9355 28.0197L64.8006 26.9997C64.9214 28.0797 65.4046 28.9797 66.2501 29.6997C67.0352 30.4197 68.0618 30.7797 69.2697 30.7797C72.5912 30.7797 74.2822 29.0397 74.2822 25.4997V23.6397C73.8595 24.3597 73.1952 25.0197 72.3497 25.4997C71.4438 25.9797 70.4171 26.2197 69.2093 26.2197C66.854 26.2197 64.861 25.4397 63.3512 23.8197C61.8414 22.1997 61.0563 20.1597 61.0563 17.6997C61.0563 15.2997 61.8414 13.3197 63.3512 11.6397C64.861 9.95969 66.854 9.17969 69.2093 9.17969C71.8061 9.17969 73.5575 10.0197 74.403 11.7597V9.53969H78.4493V25.4397C78.4493 28.0197 77.7246 30.1797 76.2148 31.9197C74.7653 33.6597 72.4704 34.4997 69.3904 34.4997C67.0955 34.4997 65.2234 33.8997 63.6532 32.6397C62.0226 31.3797 61.1771 29.8197 60.9355 28.0197ZM69.8132 22.6797C71.1418 22.6797 72.2289 22.1997 73.0744 21.3597C73.9199 20.4597 74.3426 19.2597 74.3426 17.7597C74.3426 16.2597 73.9199 15.0597 73.0744 14.1597C72.2289 13.2597 71.1418 12.8397 69.8132 12.8397C68.4846 12.8397 67.3371 13.3197 66.4916 14.1597C65.6461 15.0597 65.2234 16.2597 65.2234 17.7597C65.2234 19.2597 65.6461 20.4597 66.4916 21.3597C67.2767 22.2597 68.4242 22.6797 69.8132 22.6797Z" fill="#A77F91"/>
<path d="M87.6895 27.06H83.5225V9.47998H87.6895V27.06Z" fill="#303E4E"/>
<path d="M92.0376 22.2599C92.0376 20.7599 92.5207 19.5599 93.487 18.6599C94.4533 17.7599 95.7819 17.2199 97.3521 16.9199L101.882 16.2599C102.727 16.1399 103.21 15.7199 103.21 14.9999C103.21 14.2199 102.908 13.5599 102.365 13.0799C101.821 12.5999 100.976 12.3599 99.8886 12.3599C98.8015 12.3599 97.956 12.6599 97.3521 13.2599C96.7482 13.8599 96.3858 14.5799 96.2651 15.5399L92.4 14.6999C92.5811 13.1399 93.3058 11.7599 94.6949 10.6199C96.0235 9.47994 97.7749 8.93994 99.8282 8.93994C102.365 8.93994 104.297 9.53994 105.505 10.7999C106.713 11.9999 107.317 13.6199 107.317 15.5399V24.2399C107.317 25.3799 107.377 26.3399 107.558 27.0599H103.633C103.512 26.6999 103.452 25.9799 103.452 24.8399C102.304 26.6999 100.493 27.5999 98.0164 27.5999C96.2047 27.5999 94.7553 27.0599 93.6682 26.0399C92.5811 24.9599 92.0376 23.6999 92.0376 22.2599ZM98.8015 24.2999C100.13 24.2999 101.157 23.9399 101.942 23.2199C102.727 22.4999 103.15 21.3599 103.15 19.7399V18.9599L98.56 19.6199C96.9898 19.8599 96.2047 20.6999 96.2047 22.0199C96.2047 22.6199 96.4462 23.1599 96.869 23.6399C97.4125 24.0599 98.0164 24.2999 98.8015 24.2999Z" fill="#303E4E"/>
<path d="M116.617 16.9199V27.0599H112.39V9.47994H116.496V11.8199C117.04 10.8599 117.765 10.1399 118.731 9.65994C119.637 9.17994 120.663 8.93994 121.69 8.93994C123.743 8.93994 125.374 9.59994 126.461 10.8599C127.548 12.1799 128.092 13.7999 128.092 15.8399V26.9399H123.864V16.6799C123.864 15.4799 123.562 14.5799 123.019 13.8599C122.415 13.1399 121.509 12.7799 120.241 12.7799C119.093 12.7799 118.187 13.1999 117.523 13.9199C116.919 14.7599 116.617 15.7199 116.617 16.9199Z" fill="#303E4E"/>
<path d="M131.957 28.0197L135.822 26.9997C135.943 28.0797 136.426 28.9797 137.272 29.6997C138.057 30.4197 139.083 30.7797 140.291 30.7797C143.613 30.7797 145.304 29.0397 145.304 25.4997V23.6397C144.881 24.3597 144.217 25.0197 143.371 25.4997C142.465 25.9797 141.439 26.2197 140.231 26.2197C137.875 26.2197 135.883 25.4397 134.373 23.8197C132.863 22.1997 132.078 20.1597 132.078 17.6997C132.078 15.2997 132.863 13.3197 134.373 11.6397C135.883 9.95969 137.875 9.17969 140.231 9.17969C142.828 9.17969 144.579 10.0197 145.424 11.7597V9.53969H149.471V25.4397C149.471 28.0197 148.746 30.1797 147.236 31.9197C145.787 33.6597 143.492 34.4997 140.412 34.4997C138.117 34.4997 136.245 33.8997 134.675 32.6397C133.044 31.3797 132.199 29.8197 131.957 28.0197ZM140.835 22.6797C142.163 22.6797 143.25 22.1997 144.096 21.3597C144.941 20.4597 145.364 19.2597 145.364 17.7597C145.364 16.2597 144.941 15.0597 144.096 14.1597C143.25 13.2597 142.163 12.8397 140.835 12.8397C139.506 12.8397 138.359 13.3197 137.513 14.1597C136.668 15.0597 136.245 16.2597 136.245 17.7597C136.245 19.2597 136.668 20.4597 137.513 21.3597C138.298 22.2597 139.446 22.6797 140.835 22.6797Z" fill="#303E4E"/>
<path d="M83.0389 6.18C82.3142 5.46 82.0122 4.62 82.0122 3.66C82.0122 2.64 82.3746 1.8 83.0389 1.08C83.7636 0.36 84.6091 0 85.5753 0C86.602 0 87.4475 0.36 88.1722 1.02C88.8969 1.74 89.2593 2.58 89.2593 3.6C89.2593 4.62 88.8969 5.46 88.1722 6.12C87.4475 6.84 86.602 7.14 85.5753 7.14C84.5487 7.2 83.7032 6.9 83.0389 6.18Z" fill="#A77F91"/>
</svg>
