<svg width="545" height="376" viewBox="0 0 545 376" fill="none" xmlns="http://www.w3.org/2000/svg">
<path d="M113.005 197.604C117.808 202.699 126.55 201.353 132.217 205.487C135.675 207.986 137.404 212.216 138.941 216.254C140.67 220.676 142.399 225.194 142.399 229.905C142.303 235.288 139.902 240.383 137.5 245.286C132.793 254.803 127.99 264.513 120.306 271.915C108.106 283.739 88.9907 287.873 72.949 282.201L72.8529 282.009C70.6436 281.913 68.5303 280.471 67.4736 278.452C67.7618 279.029 71.0278 279.413 71.7963 279.606C73.4293 279.894 75.0622 280.086 76.6952 280.182C80.0573 280.279 83.3233 279.894 86.5892 279.029C93.0252 277.298 98.9808 273.069 103.399 268.166C106.089 265.186 108.202 261.436 108.587 257.399L108.875 258.072C111.757 246.92 118.673 231.923 125.973 223.175C127.03 221.926 128.183 220.58 128.951 219.138C129.719 217.696 130.2 215.869 129.816 214.235C129.335 212.12 127.51 210.582 125.493 209.813C123.476 209.044 121.362 208.948 119.153 208.851C114.83 208.659 110.508 208.467 106.185 208.275C109.163 205.583 111.564 202.218 113.101 198.565" fill="#CF9C98"/>
<path d="M112.621 197.892C115.503 200.872 119.73 201.737 123.572 202.603C125.589 203.083 127.606 203.564 129.528 204.429C131.545 205.391 133.274 206.833 134.619 208.659C135.963 210.582 136.924 212.697 137.789 214.908C138.749 217.407 139.806 219.811 140.574 222.406C141.343 225.002 141.919 227.79 141.727 230.578C141.631 233.269 140.862 235.865 139.902 238.364C138.941 240.864 137.692 243.363 136.54 245.767C135.387 248.074 134.234 250.381 133.082 252.688C130.68 257.207 128.087 261.629 125.013 265.666C122.131 269.512 118.673 272.972 114.735 275.76C111.084 278.356 107.05 280.375 102.727 281.817C94.178 284.701 84.7643 285.085 76.023 282.682C74.9664 282.393 73.9097 282.105 72.9491 281.721C73.0452 281.817 73.1413 281.913 73.2373 282.009C73.2373 281.913 73.2373 281.913 73.1413 281.817C73.0452 281.624 72.9491 281.432 72.661 281.432C70.5477 281.24 68.7226 279.99 67.762 278.164C67.4738 278.356 67.1856 278.452 66.8975 278.644C67.3778 279.413 68.8186 279.509 69.6832 279.702C71.028 279.894 72.2767 280.182 73.6215 280.279C77.656 280.759 81.8826 280.471 85.917 279.509C92.9293 277.779 99.2691 273.357 103.976 267.877C106.57 264.897 108.587 261.244 108.875 257.207C108.587 257.207 108.203 257.303 107.914 257.303C108.01 257.495 108.107 257.687 108.203 257.976C108.395 258.36 108.971 258.456 109.163 257.976C111.565 248.747 115.407 239.902 120.306 231.731C121.459 229.712 122.803 227.79 124.148 225.867C125.589 223.944 127.222 222.214 128.567 220.291C129.912 218.272 130.872 215.773 130.008 213.37C129.239 211.255 127.414 209.813 125.397 209.14C122.515 208.082 119.153 208.178 116.079 208.082C112.717 207.89 109.355 207.794 106.089 207.602C106.185 207.89 106.281 208.178 106.474 208.467C109.451 205.775 111.853 202.41 113.486 198.661C113.774 198.084 112.909 197.604 112.621 198.181C111.084 201.834 108.683 205.102 105.801 207.794C105.513 208.082 105.705 208.563 106.185 208.659C109.067 208.755 111.949 208.948 114.831 209.044C117.616 209.14 120.402 209.14 123.188 209.62C125.493 210.005 127.895 211.062 129.047 213.274C130.296 215.581 129.143 218.272 127.798 220.291C126.454 222.118 124.917 223.752 123.572 225.579C122.227 227.405 121.074 229.232 119.922 231.058C117.424 235.096 115.311 239.422 113.486 243.748C111.469 248.362 109.74 253.073 108.491 257.879C108.779 257.879 109.067 257.879 109.451 257.879C109.355 257.687 109.259 257.495 109.163 257.207C108.971 256.726 108.299 256.822 108.203 257.303C107.914 260.763 106.281 263.936 104.168 266.531C102.055 269.127 99.4613 271.53 96.6756 273.453C93.8899 275.472 90.9121 277.106 87.6461 278.164C83.9959 279.317 80.0575 279.798 76.2151 279.606C74.4861 279.509 72.8531 279.221 71.124 278.933C70.5477 278.837 69.8753 278.74 69.2989 278.644C69.0107 278.548 68.1462 278.452 67.9541 278.164C67.6659 277.587 66.8014 278.067 67.0896 278.644C68.2423 280.855 70.4516 282.201 72.8531 282.393C72.661 282.297 72.5649 282.201 72.3728 282.009C72.5649 282.49 72.757 282.49 73.2373 282.682C73.8137 282.874 74.39 283.066 74.9664 283.259C76.1191 283.547 77.2718 283.835 78.4245 284.124C80.6338 284.605 82.9392 284.893 85.1486 284.989C89.7594 285.277 94.4662 284.797 98.981 283.739C108.203 281.624 116.56 276.722 122.9 269.8C126.454 265.955 129.335 261.533 131.929 257.014C134.523 252.4 136.924 247.593 139.229 242.786C141.631 237.788 143.456 232.5 142.784 226.828C142.399 224.04 141.535 221.349 140.574 218.657C139.71 216.35 138.845 213.946 137.692 211.639C136.636 209.524 135.387 207.409 133.658 205.775C132.121 204.333 130.2 203.372 128.183 202.699C124.148 201.353 119.634 201.161 115.887 198.95C115.023 198.469 114.158 197.796 113.486 197.027C112.909 196.739 112.237 197.411 112.621 197.892Z" fill="#CF9C98"/>
<path d="M66.8009 278.932C65.8403 280.855 63.727 282.105 61.6137 282.297C59.5005 282.489 57.2911 281.816 55.466 280.759C53.6409 279.605 52.104 278.163 50.6631 276.529C53.2567 276.433 55.8502 276.24 58.5399 276.144H58.1556C58.9241 276.048 59.6926 276.433 60.2689 276.817C60.9413 277.298 61.4216 277.779 62.094 278.259C63.5349 279.124 65.4561 279.221 66.993 278.452" fill="#CF9C98"/>
<path d="M66.417 278.644C64.9761 281.432 61.7101 282.297 58.9244 281.624C55.6584 280.855 53.257 278.548 51.0476 276.144C50.9516 276.433 50.8555 276.721 50.6634 277.01C53.257 276.914 55.8506 276.721 58.5402 276.625C59.1165 276.625 59.1165 275.664 58.5402 275.664C58.4441 275.664 58.3481 275.664 58.156 275.664C58.156 275.952 58.156 276.337 58.156 276.625C59.9811 276.529 61.1338 278.452 62.6707 279.028C64.2076 279.605 65.8406 279.509 67.2815 278.836C67.8579 278.548 67.3776 277.779 66.8012 277.971C65.3603 278.644 63.5352 278.548 62.1904 277.683C60.9417 276.817 59.789 275.472 58.156 275.664C57.5796 275.664 57.4836 276.625 58.156 276.625C58.252 276.625 58.3481 276.625 58.5402 276.625C58.5402 276.337 58.5402 275.952 58.5402 275.664C55.9466 275.76 53.353 275.952 50.6634 276.048C50.2792 276.048 49.991 276.529 50.2792 276.914C52.6806 279.509 55.5624 282.105 59.2126 282.778C62.2865 283.258 65.7446 282.201 67.1855 279.221C67.4736 278.644 66.7052 278.163 66.417 278.644Z" fill="#CF9C98"/>
<path d="M136.828 249.42C140.19 256.245 143.552 263.071 146.914 269.8C148.355 272.684 149.7 275.472 151.045 278.356C152.389 281.24 153.542 284.124 154.695 287.104C155.463 289.219 156.232 291.814 154.983 293.737C153.638 295.852 150.756 296.14 148.259 296.333C137.693 297.294 127.51 301.332 119.153 307.773C117.616 309.022 116.079 310.272 114.35 311.233C112.621 312.099 110.508 312.675 108.683 312.099C106.762 311.618 105.129 309.888 105.129 307.869C105.129 305.946 106.666 304.312 108.299 303.35C110.028 302.485 111.949 302.101 113.774 301.428C118.385 299.794 122.227 296.237 124.244 291.814C117.904 295.948 111.565 300.178 105.129 304.312C104.841 299.409 104.648 294.602 104.36 289.7C104.264 288.45 104.264 287.2 104.744 286.046C105.513 284.22 107.53 283.162 109.259 282.201C115.599 278.644 120.978 273.549 125.493 267.781C130.008 262.013 133.562 255.668 137.02 249.227L136.828 249.42Z" fill="#CF9C98"/>
<path d="M136.348 249.708C140.67 258.456 145.185 267.204 149.315 276.145C150.372 278.356 151.333 280.471 152.293 282.682C153.158 284.7 154.118 286.815 154.695 288.93C155.271 290.757 155.367 292.968 153.734 294.41C152.389 295.467 150.564 295.756 148.931 295.852C144.801 296.236 140.766 296.909 136.828 298.159C132.793 299.409 128.951 301.043 125.397 303.062C123.572 304.119 121.843 305.177 120.114 306.427C118.385 307.676 116.752 309.118 115.023 310.272C113.197 311.426 110.988 312.291 108.779 311.714C107.05 311.329 105.513 309.791 105.513 307.965C105.513 305.946 107.242 304.504 108.875 303.735C110.796 302.774 112.909 302.485 114.926 301.62C118.289 300.178 121.266 297.678 123.284 294.602C123.764 293.833 124.244 293.064 124.628 292.199C124.821 291.814 124.436 291.237 123.956 291.526C117.616 295.66 111.276 299.889 104.84 304.023C105.129 304.119 105.321 304.312 105.609 304.408C105.321 299.505 105.129 294.506 104.84 289.603C104.744 288.546 104.744 287.392 105.129 286.335C105.513 285.469 106.185 284.797 106.954 284.22C108.491 283.066 110.316 282.297 111.949 281.24C119.153 276.625 124.821 270.088 129.623 263.07C132.505 258.744 135.099 254.226 137.5 249.612C137.692 249.227 137.404 248.843 136.924 248.939C136.828 248.939 136.828 248.939 136.732 248.939C136.155 249.035 136.348 249.996 137.02 249.9C137.116 249.9 137.116 249.9 137.212 249.9C137.02 249.708 136.828 249.419 136.636 249.227C132.313 257.302 127.702 265.378 121.458 272.107C118.577 275.279 115.311 278.067 111.757 280.471C110.124 281.528 108.298 282.393 106.665 283.547C105.129 284.604 104.072 286.046 103.976 287.969C103.88 289.315 103.976 290.661 104.072 291.91C104.168 293.352 104.168 294.698 104.264 296.14C104.36 298.928 104.552 301.812 104.648 304.6C104.648 304.985 105.032 305.273 105.417 304.985C111.757 300.851 118.096 296.621 124.532 292.487C124.34 292.295 124.052 292.007 123.86 291.814C122.227 295.467 119.345 298.447 115.791 300.274C113.774 301.332 111.66 301.716 109.547 302.485C107.818 303.158 105.993 304.215 105.129 305.946C104.264 307.58 104.552 309.407 105.705 310.849C106.954 312.291 108.875 312.964 110.796 312.868C113.005 312.675 115.023 311.618 116.752 310.368C118.577 309.022 120.21 307.58 122.035 306.33C129.335 301.332 137.884 298.063 146.626 297.006C149.892 296.621 154.695 296.717 155.943 292.872C156.52 290.949 155.847 288.738 155.175 286.911C154.31 284.604 153.446 282.393 152.485 280.182C150.468 275.472 148.163 270.953 145.857 266.435C143.552 261.821 141.246 257.206 139.037 252.592C138.461 251.438 137.884 250.285 137.308 249.131C136.924 248.65 136.155 249.131 136.348 249.708Z" fill="#CF9C98"/>
<path d="M23.3833 286.719V286.912C29.0507 294.122 34.7181 301.235 40.3856 308.445C41.2501 309.503 42.0186 310.56 42.3068 311.906C42.7871 314.598 40.5777 317.001 38.5605 318.924C37.4078 319.981 35.8708 321.231 34.3339 320.75C33.4694 320.462 32.797 319.789 32.1246 319.02C28.2822 314.502 24.632 309.791 21.366 304.792C20.0212 302.87 18.6764 300.755 18.1961 298.448C17.6198 296.14 18.004 293.449 19.733 291.814C20.5976 290.949 21.6542 290.468 22.6148 289.699C25.4965 287.296 21.5582 285.566 21.4621 283.258C21.4621 282.297 22.0384 281.336 22.6148 280.567C25.0163 277.106 27.3217 273.645 29.7231 270.088L29.8192 269.704C29.8192 270.953 31.26 271.53 31.8364 272.491C32.6049 273.741 33.2773 273.741 34.2379 274.414C36.159 275.76 37.792 277.875 38.5605 280.086C39.9053 283.931 41.058 287.873 43.2673 291.334C45.8609 295.371 49.7033 298.64 54.218 300.274C55.2746 300.659 56.4273 301.043 57.3879 301.812C58.3485 302.581 58.8288 303.927 58.2525 304.985C57.9643 305.561 57.3879 305.946 56.9076 306.234C53.9298 308.253 50.952 310.272 48.0703 312.195C47.1097 312.868 46.053 313.54 44.9003 313.637C43.7476 313.733 42.4028 312.964 42.3068 311.81" fill="#CF9C98"/>
<path d="M22.9025 286.719C22.9025 287.392 23.5749 287.873 23.9592 288.354C24.6316 289.123 25.2079 289.988 25.8803 290.757C27.1291 292.295 28.3779 293.833 29.6266 295.467C32.1241 298.544 34.5256 301.716 37.0231 304.792C38.2719 306.33 39.5206 307.869 40.6733 309.407C41.73 310.753 42.3063 312.291 41.73 314.021C41.2497 315.559 40.097 316.809 38.9443 317.867C37.8876 318.924 36.3507 320.558 34.7177 320.27C33.9492 320.174 33.2768 319.501 32.7965 318.924C32.1241 318.155 31.5478 317.482 30.9714 316.713C29.7227 315.175 28.57 313.733 27.3212 312.195C25.0158 309.214 22.8065 306.234 20.7892 303.062C19.0602 300.37 17.6193 296.909 19.0602 293.737C19.8287 292.199 21.1735 291.43 22.5183 290.468C23.4789 289.796 24.2473 288.834 24.0552 287.584C23.8631 286.431 22.9025 285.566 22.3262 284.604C21.9419 284.028 21.7498 283.355 21.9419 282.682C22.2301 281.72 22.9025 280.855 23.4789 280.086C24.7276 278.26 25.9764 276.433 27.2252 274.606C27.8015 273.645 28.4739 272.78 29.0503 271.819C29.4345 271.242 29.9148 270.665 30.1069 269.896C29.8187 269.896 29.4345 269.8 29.1463 269.8C29.2424 270.665 29.7227 271.242 30.299 271.819C30.5872 272.107 30.9714 272.395 31.1636 272.78C31.4517 273.164 31.6438 273.549 32.0281 273.837C32.6044 274.318 33.3729 274.606 34.0453 275.087C34.9098 275.76 35.7744 276.625 36.4468 277.49C37.7916 279.317 38.3679 281.624 39.1364 283.739C39.9049 285.854 40.6733 288.065 41.826 290.084C43.7472 293.737 46.725 296.909 50.2792 299.024C51.1437 299.601 52.1043 300.082 53.0649 300.466C54.0255 300.851 55.0821 301.139 56.0427 301.716C56.9072 302.197 57.7717 302.966 57.8678 304.023C57.9639 305.273 56.619 305.85 55.7545 306.427C53.353 308.061 50.8555 309.695 48.4541 311.329C47.3974 312.002 46.2447 312.964 44.996 313.156C43.9393 313.348 42.6906 312.868 42.4984 311.714C42.4024 311.137 41.4418 311.329 41.5379 312.002C41.826 314.021 44.3236 314.502 45.9566 313.829C47.1093 313.348 48.1659 312.579 49.2225 311.81C50.3752 311.041 51.4319 310.272 52.5846 309.503C53.7373 308.734 54.986 307.869 56.1387 307.1C57.0033 306.523 58.0599 305.946 58.5402 304.985C59.4047 302.966 57.5796 301.139 55.9466 300.466C54.89 299.986 53.7373 299.697 52.7767 299.12C51.8161 298.64 50.8555 298.159 49.991 297.486C48.1659 296.236 46.4368 294.698 45.092 292.968C41.9221 289.026 40.6733 284.22 38.9443 279.605C38.0798 277.298 36.4468 275.183 34.4295 273.837C34.0453 273.549 33.565 273.357 33.1808 273.068C32.7005 272.78 32.4123 272.395 32.1241 271.915C31.5478 271.146 30.299 270.473 30.203 269.415C30.203 268.935 29.4345 268.742 29.2424 269.319C29.0503 269.992 28.4739 270.569 28.0897 271.242C27.5133 272.107 26.8409 272.972 26.2646 273.934C25.1119 275.664 23.9592 277.394 22.8065 279.029C21.9419 280.374 20.5971 281.816 20.9814 283.547C21.1735 284.604 22.038 285.47 22.6144 286.431C22.9025 286.815 23.1907 287.296 23.0946 287.777C23.0946 288.45 22.5183 288.93 22.038 289.315C20.6932 290.372 19.2523 291.045 18.3878 292.583C16.7548 295.467 17.5233 299.024 19.0602 301.812C19.9247 303.446 21.0774 304.985 22.1341 306.523C23.2868 308.157 24.4395 309.791 25.6882 311.426C26.8409 312.964 28.0897 314.502 29.2424 316.04C29.9148 316.809 30.5872 317.674 31.1636 318.443C31.7399 319.116 32.2202 319.789 32.9887 320.366C34.3335 321.423 35.8704 321.231 37.2152 320.366C38.6561 319.501 39.9049 318.155 40.9615 316.905C41.9221 315.752 42.6906 314.406 42.8827 312.868C42.9787 311.137 42.1142 309.695 41.1536 308.349C36.0625 301.716 30.8754 295.275 25.6882 288.738C25.0158 287.969 24.4395 287.104 23.7671 286.335C23.7671 286.431 23.8631 286.527 23.8631 286.719C23.8631 286.623 23.8631 286.623 23.8631 286.527C23.8631 286.142 22.9025 286.142 22.9025 286.719Z" fill="#CF9C98"/>
<path d="M36.4465 275.568C37.9834 274.607 39.5203 273.645 41.0573 272.684C40.7691 274.318 42.4981 275.664 44.1311 276.049C45.7641 276.433 47.4932 276.241 49.1262 276.914C51.2395 277.779 52.5843 279.99 54.3133 281.528C57.9635 284.797 64.2073 284.701 67.7615 281.24C69.9708 283.739 73.8132 283.835 77.1752 283.739C83.8993 283.547 90.6234 283.355 97.3475 283.066C98.9805 282.97 106.569 280.182 105.512 281.432C103.687 283.547 101.094 286.912 103.495 289.123C105.801 291.43 103.591 295.66 103.687 298.928C103.687 300.755 103.687 302.677 102.727 304.216C101.478 306.234 98.7884 307.003 96.3869 306.907C90.6234 306.811 85.2441 303.447 79.4806 303.447C76.2146 303.447 73.0447 304.504 69.8748 304.408C67.2812 304.312 64.7837 303.543 62.2862 302.677C59.5965 301.812 56.9069 300.851 54.5054 299.601C49.7986 297.102 45.9562 292.872 43.843 287.969C42.8824 285.662 42.21 283.259 41.0573 281.047C39.9046 278.836 38.1755 276.818 35.8701 276.049L36.4465 275.568Z" fill="#CF9C98"/>
<path d="M36.6389 275.953C38.1758 274.991 39.7127 274.03 41.2497 273.069C40.9615 272.972 40.7694 272.78 40.4812 272.684C40.193 274.895 42.4984 276.337 44.4196 276.626C45.6684 276.818 47.0132 276.818 48.2619 277.202C49.4146 277.491 50.2792 278.26 51.1437 279.125C52.6806 280.663 53.9294 282.394 55.9466 283.355C57.7717 284.22 59.7889 284.605 61.8062 284.412C64.1116 284.22 66.2248 283.259 67.8578 281.721C67.6657 281.721 67.3775 281.721 67.1854 281.721C68.6263 283.355 70.7396 284.028 72.8529 284.22C75.3504 284.509 77.944 284.316 80.5375 284.22C83.5154 284.124 86.5892 284.028 89.567 283.932C91.104 283.932 92.5448 283.836 94.0818 283.836C95.2345 283.836 96.3872 283.836 97.5399 283.739C98.8847 283.547 100.133 283.067 101.382 282.778C102.535 282.394 103.784 282.009 105.032 281.913H105.225C105.128 282.009 104.84 281.432 104.936 281.432C104.84 281.432 104.264 282.297 104.072 282.49C103.399 283.355 102.727 284.22 102.343 285.278C101.959 286.143 101.67 287.2 101.959 288.162C102.247 289.219 103.111 289.7 103.495 290.661C104.456 292.584 103.495 295.083 103.207 297.102C103.015 298.159 103.015 299.217 103.015 300.371C103.015 301.716 102.919 303.062 102.247 304.216C101.094 306.235 98.5005 306.908 96.3872 306.908C93.7936 306.908 91.2 306.139 88.7025 305.369C86.205 304.6 83.7075 303.831 81.1139 303.543C78.3282 303.255 75.6386 303.831 72.8529 304.216C71.412 304.408 69.9711 304.504 68.5302 304.312C67.0894 304.12 65.6485 303.735 64.3037 303.351C61.614 302.485 58.8284 301.62 56.2348 300.467C51.72 298.448 47.9738 295.179 45.3802 290.949C44.0354 288.642 43.1708 286.143 42.2103 283.739C41.3457 281.528 40.2891 279.317 38.464 277.779C37.5995 277.01 36.7349 276.433 35.6783 276.145C35.6783 276.433 35.7743 276.722 35.7743 277.01C36.1586 276.337 36.3507 276.145 36.6389 275.953C37.1192 275.664 36.6389 274.799 36.1586 275.087C35.8704 275.28 35.6783 275.376 35.3901 275.568C35.0059 275.76 35.1019 276.337 35.4862 276.433C40.7694 278.164 41.5378 284.797 43.6511 289.123C45.8605 293.449 49.3186 297.198 53.5451 299.601C55.9466 301.043 58.6362 301.909 61.3259 302.87C64.0155 303.735 66.7051 304.697 69.5869 304.793C72.5647 304.889 75.4464 304.024 78.3282 303.831C81.0178 303.639 83.7075 304.312 86.301 305.081C88.8946 305.85 91.3921 306.715 94.0818 307.1C96.3872 307.388 98.7886 307.388 100.902 306.235C103.111 305.081 103.976 302.774 104.072 300.371C104.072 299.217 104.072 298.063 104.264 296.814C104.456 295.66 104.744 294.506 104.84 293.353C104.936 292.391 105.032 291.334 104.744 290.373C104.648 289.892 104.456 289.507 104.168 289.123C103.784 288.642 103.303 288.258 103.111 287.681C102.247 285.662 104.456 283.163 105.609 281.721C105.897 281.336 106.281 280.855 105.705 280.471C105.417 280.279 104.84 280.375 104.552 280.471C103.111 280.759 101.766 281.144 100.422 281.528C99.7492 281.721 98.9808 281.913 98.3083 282.105C97.6359 282.297 97.0596 282.297 96.3872 282.297C93.3133 282.394 90.2394 282.49 87.1656 282.586C84.0917 282.682 81.0178 282.778 77.944 282.874C75.6386 282.97 73.1411 283.067 70.8357 282.297C69.779 281.913 68.8184 281.336 68.05 280.567C67.8578 280.375 67.5697 280.375 67.3775 280.567C64.5919 283.163 60.2692 283.836 56.8111 282.201C54.986 281.336 53.7373 279.894 52.3924 278.452C51.72 277.683 51.0476 277.01 50.1831 276.529C49.2225 275.953 48.1659 275.664 47.1092 275.568C45.8605 275.376 44.5157 275.472 43.363 274.895C42.3063 274.415 41.4418 273.549 41.5378 272.3C41.5378 271.915 41.0576 271.723 40.7694 271.915C39.2324 272.876 37.6955 273.838 36.1586 274.799C35.6783 275.472 36.1586 276.337 36.6389 275.953Z" fill="#CF9C98"/>
<path d="M115.695 310.945C117.424 313.156 119.057 315.367 120.786 317.578C121.362 318.347 122.227 319.213 123.187 319.02C123.86 318.924 124.244 318.347 124.724 317.867C127.798 314.214 131.833 311.33 136.347 309.791C138.749 309.503 141.054 309.215 143.456 309.022C145.185 308.83 146.914 308.638 148.739 308.446C149.411 308.349 150.084 308.253 150.756 307.965C151.429 307.677 151.909 307.196 152.101 306.523C152.389 305.273 151.237 304.216 150.468 303.254C149.123 301.62 148.547 299.313 148.931 297.198C141.919 298.255 134.811 299.409 128.279 302.293C123.476 304.408 119.057 307.58 115.407 311.426L115.695 310.945Z" fill="#CF9C98"/>
<path d="M115.214 311.137C116.559 312.868 117.808 314.598 119.153 316.232C120.017 317.386 121.074 319.309 122.707 319.501C123.475 319.597 124.148 319.116 124.628 318.636C125.204 318.059 125.685 317.386 126.261 316.809C127.51 315.56 128.855 314.406 130.392 313.348C131.832 312.387 133.369 311.522 135.002 310.849C135.387 310.657 135.771 310.464 136.251 310.368C136.827 310.176 137.404 310.176 137.98 310.176C139.037 310.08 140.093 309.888 141.15 309.792C143.263 309.599 145.377 309.311 147.394 309.119C149.027 308.926 151.044 308.926 152.005 307.484C153.157 305.85 151.813 304.312 150.756 303.062C149.411 301.428 148.835 299.313 149.123 297.294C149.219 296.91 148.931 296.621 148.547 296.717C143.455 297.486 138.46 298.255 133.561 299.794C129.047 301.14 124.628 303.158 120.786 305.946C118.672 307.484 116.655 309.215 114.83 311.041C114.446 311.426 114.926 312.099 115.406 311.81C115.599 311.714 115.791 311.522 115.887 311.426C116.367 311.041 115.887 310.272 115.406 310.561C115.214 310.657 115.022 310.849 114.926 310.945C115.118 311.234 115.31 311.426 115.502 311.714C118.672 308.446 122.323 305.658 126.453 303.543C130.872 301.332 135.675 299.986 140.478 299.025C143.263 298.448 146.049 298.063 148.835 297.583C148.643 297.39 148.45 297.198 148.258 297.006C147.97 298.544 148.162 300.082 148.835 301.62C149.123 302.293 149.507 302.966 149.987 303.543C150.468 304.12 151.044 304.696 151.428 305.466C152.293 307.58 149.219 307.869 147.97 308.061C145.953 308.253 144.032 308.542 142.015 308.734C141.054 308.83 140.093 308.926 139.229 309.022C138.268 309.119 137.212 309.119 136.251 309.407C135.579 309.599 134.81 309.984 134.138 310.272C133.369 310.657 132.601 311.041 131.832 311.426C129.047 313.06 126.453 315.175 124.436 317.674C123.86 318.347 123.187 319.116 122.227 318.444C121.458 317.867 120.882 316.905 120.305 316.136C118.961 314.406 117.616 312.579 116.271 310.849C115.695 310.176 114.83 310.657 115.214 311.137Z" fill="#CF9C98"/>
<path d="M64.6878 232.5C65.2642 229.232 67.4735 226.348 70.4514 224.81C73.7173 223.175 77.7518 223.464 80.8257 225.386C80.7296 225.194 80.6335 225.002 80.6335 224.81C79.9611 228.078 77.7518 230.962 74.6779 232.404C71.3159 234.038 67.2814 233.654 64.2076 231.635C63.7273 231.25 63.247 232.116 63.7273 232.5C67.0893 234.615 71.4119 235 74.9661 233.365C78.3281 231.827 80.7296 228.655 81.4981 225.098C81.4981 224.906 81.4981 224.713 81.3059 224.521C77.9439 222.502 73.6213 222.214 70.0671 223.944C66.8011 225.482 64.3997 228.751 63.7273 232.308C63.6312 232.885 64.5918 233.077 64.6878 232.5Z" fill="white"/>
<path d="M68.2419 225.482C67.2814 228.847 69.0104 232.5 72.1803 233.942C72.7567 234.23 73.237 233.365 72.6606 233.077C69.8749 231.827 68.338 228.751 69.2025 225.771C69.3946 225.098 68.4341 224.905 68.2419 225.482Z" fill="white"/>
<path d="M74.6782 227.021C74.0058 226.348 72.9491 226.252 72.0846 226.636C71.2201 227.021 70.8359 228.078 71.028 228.943C71.124 229.328 71.3161 229.808 71.7004 230.097C72.0846 230.385 72.4689 230.578 72.9491 230.578C73.8137 230.674 74.7743 230.097 75.0624 229.232C75.3506 228.27 74.8703 227.117 74.0058 226.732C73.8137 226.636 73.5255 226.636 73.3334 226.924C73.2373 227.117 73.2373 227.501 73.5255 227.597C73.6216 227.597 73.6216 227.694 73.7176 227.694C73.7176 227.694 73.7176 227.694 73.8137 227.694C73.8137 227.597 73.8137 227.694 73.8137 227.694L73.9097 227.79C73.9097 227.79 73.9097 227.79 73.9097 227.886C73.9097 227.886 73.9097 227.982 73.9097 227.886C73.9097 227.79 73.9097 227.886 73.9097 227.886C73.9097 227.886 73.9097 227.982 74.0058 227.982L74.1018 228.078C74.1018 228.078 74.1018 227.982 74.1018 228.078C74.1018 228.174 74.1979 228.27 74.1979 228.366C74.1979 228.463 74.1979 228.27 74.1979 228.366V228.463C74.1979 228.559 74.1979 228.655 74.1979 228.655C74.1979 228.751 74.1979 228.655 74.1979 228.559V228.655V228.751V228.847C74.1979 228.847 74.1979 228.943 74.1979 228.847C74.1979 228.751 74.1979 228.847 74.1979 228.847L74.1018 229.039C74.1018 229.039 74.1979 228.943 74.1018 229.039C74.1018 229.039 74.1018 229.039 74.1018 229.136L74.0058 229.232C73.9097 229.328 74.0058 229.232 74.0058 229.232L73.9097 229.328C73.8137 229.328 73.7176 229.424 73.7176 229.424C73.7176 229.424 73.8137 229.424 73.7176 229.424H73.6216H73.5255C73.5255 229.424 73.5255 229.424 73.4294 229.424C73.3334 229.424 73.5255 229.424 73.4294 229.424C73.3334 229.424 73.2373 229.424 73.2373 229.424H73.1413C73.0452 229.424 73.1413 229.424 73.1413 229.424H73.0452C72.9491 229.424 72.8531 229.424 72.8531 229.328H72.757C72.757 229.328 72.8531 229.424 72.757 229.328C72.757 229.328 72.661 229.328 72.661 229.232C72.661 229.232 72.5649 229.232 72.5649 229.136C72.5649 229.136 72.661 229.232 72.5649 229.136C72.5649 229.136 72.4689 229.136 72.4689 229.039C72.4689 229.039 72.4689 229.039 72.4689 228.943C72.4689 228.943 72.3728 228.847 72.4689 228.943C72.4689 228.943 72.4689 228.943 72.4689 228.847C72.4689 228.847 72.4689 228.751 72.3728 228.751C72.3728 228.751 72.3728 228.655 72.2767 228.655C72.2767 228.655 72.2767 228.559 72.2767 228.655C72.2767 228.751 72.2767 228.655 72.2767 228.655C72.2767 228.559 72.2767 228.463 72.1807 228.463C72.1807 228.463 72.1807 228.463 72.1807 228.366C72.1807 228.27 72.1807 228.463 72.1807 228.366V228.27C72.1807 228.174 72.1807 228.078 72.1807 228.078C72.1807 227.982 72.1807 228.174 72.1807 228.078V227.982V227.886C72.1807 227.886 72.1807 227.886 72.1807 227.79C72.1807 227.694 72.1807 227.79 72.1807 227.79C72.1807 227.694 72.2767 227.597 72.2767 227.597C72.2767 227.597 72.2767 227.597 72.2767 227.501L72.3728 227.405L72.4689 227.309C72.4689 227.309 72.4689 227.309 72.5649 227.309C72.5649 227.309 72.4689 227.405 72.5649 227.309C72.661 227.213 72.757 227.213 72.8531 227.117H72.9491H73.0452H73.1413C73.1413 227.117 73.2373 227.117 73.1413 227.117C73.0452 227.117 73.1413 227.117 73.1413 227.117C73.2373 227.117 73.3334 227.117 73.4294 227.117C73.4294 227.117 73.4294 227.117 73.5255 227.117C73.6216 227.117 73.4294 227.117 73.5255 227.117H73.6216H73.7176C73.7176 227.117 73.7176 227.117 73.8137 227.117C73.9097 227.117 73.8137 227.117 73.8137 227.117C73.9097 227.117 74.0058 227.213 74.1018 227.213C74.1979 227.309 74.1018 227.213 74.1018 227.213L74.1979 227.309C74.39 227.501 74.6782 227.501 74.8703 227.309C74.7743 227.501 74.8703 227.213 74.6782 227.021Z" fill="white"/>
<path d="M21.8462 232.981C22.1343 235 22.5186 237.211 24.0555 238.749C25.3043 239.999 27.4175 240.575 28.9545 239.518C30.5875 238.364 30.6835 236.057 30.2032 234.327C29.7229 232.5 28.3781 230.866 26.457 230.385C24.3437 229.905 22.2304 231.058 21.558 233.077C21.3659 233.654 22.3264 233.942 22.5186 233.365C22.9989 231.923 24.4397 231.058 25.8806 231.25C27.4175 231.443 28.6663 232.596 29.1466 234.038C29.6269 235.384 29.819 237.307 28.7624 238.364C27.7057 239.422 25.9767 239.133 24.92 238.172C23.4791 236.826 23.0949 234.807 22.8067 232.885C22.7107 232.404 21.7501 232.404 21.8462 232.981Z" fill="white"/>
<path d="M25.9766 234.134C25.4002 234.519 24.9199 235.192 24.9199 235.865C24.9199 236.538 25.4963 237.211 26.1687 237.403C26.8411 237.499 27.4175 237.114 27.6096 236.442C27.8017 235.865 27.7056 235.192 27.3214 234.807C26.8411 234.134 26.1687 233.846 25.4002 233.558C25.2081 233.461 24.8239 233.654 24.8239 233.846C24.7278 234.134 24.9199 234.327 25.1121 234.423C25.2081 234.423 25.3042 234.519 25.4002 234.519C25.3042 234.519 25.4963 234.519 25.4963 234.519C25.5924 234.519 25.5924 234.615 25.6884 234.615C25.7845 234.711 25.8805 234.711 25.9766 234.807C26.0726 234.807 26.0726 234.903 26.1687 234.903C26.1687 234.903 26.2648 235 26.1687 234.903C26.1687 234.903 26.2648 234.903 26.2648 235L26.3608 235.096C26.3608 235.096 26.3608 235.096 26.4569 235.192C26.4569 235.192 26.5529 235.288 26.4569 235.192C26.4569 235.096 26.4569 235.288 26.4569 235.288C26.4569 235.288 26.4569 235.288 26.4569 235.384C26.4569 235.384 26.4569 235.384 26.4569 235.48C26.4569 235.48 26.4569 235.576 26.4569 235.48C26.4569 235.384 26.4569 235.576 26.4569 235.576V235.672C26.4569 235.769 26.4569 235.576 26.4569 235.672C26.4569 235.672 26.4569 235.672 26.4569 235.769C26.4569 235.865 26.4569 235.865 26.4569 235.961V236.057C26.4569 236.057 26.4569 235.961 26.4569 236.057V236.153C26.4569 236.153 26.4569 236.153 26.4569 236.249C26.4569 236.345 26.4569 236.249 26.4569 236.249L26.3608 236.345C26.3608 236.442 26.3608 236.345 26.3608 236.345C26.2648 236.442 26.3608 236.345 26.3608 236.345L26.2648 236.442C26.1687 236.442 26.2648 236.442 26.2648 236.442H26.1687C26.0726 236.442 26.2648 236.442 26.1687 236.442H26.0726C26.0726 236.442 25.9766 236.442 26.0726 236.442C26.1687 236.442 26.0726 236.442 26.0726 236.442H25.9766C25.8805 236.442 26.0726 236.442 25.9766 236.442C25.8805 236.442 25.8805 236.345 25.7845 236.345C25.8805 236.442 25.7845 236.345 25.6884 236.249C25.6884 236.249 25.6884 236.249 25.5924 236.153C25.6884 236.249 25.5924 236.153 25.5924 236.153C25.5924 236.153 25.5924 236.153 25.5924 236.057C25.5924 236.057 25.4963 235.961 25.5924 235.961C25.5924 236.057 25.5924 235.961 25.5924 235.961V235.865C25.5924 235.769 25.5924 235.865 25.5924 235.865V235.769V235.672C25.5924 235.769 25.5924 235.672 25.5924 235.672C25.5924 235.576 25.5924 235.576 25.6884 235.48C25.6884 235.384 25.6884 235.48 25.6884 235.48C25.6884 235.48 25.6884 235.384 25.7845 235.384V235.288C25.7845 235.288 25.8805 235.192 25.7845 235.192C25.7845 235.192 25.7845 235.096 25.8805 235.096C25.9766 235 25.9766 235 26.0726 234.903C26.0726 234.903 25.9766 235 26.0726 234.903C26.0726 234.903 26.1687 234.903 26.1687 234.807C26.3608 234.711 26.4569 234.327 26.3608 234.134C26.5529 234.134 26.2648 234.038 25.9766 234.134Z" fill="white"/>
<path d="M46.4369 247.785C46.1487 249.516 46.9171 251.342 48.5501 252.015C50.0871 252.688 52.1043 252.208 53.257 251.054C54.6018 249.708 54.89 247.689 54.5058 245.959C54.0255 244.132 52.6806 242.594 51.0477 241.633C47.6856 239.518 43.0748 239.614 39.9049 242.113C37.0231 244.325 35.8704 248.651 37.8877 251.919C38.9443 253.553 41.1536 254.899 42.8827 253.361C44.5157 251.919 43.8433 249.42 41.9221 248.747C41.3458 248.554 41.0576 249.516 41.6339 249.708C43.2669 250.285 43.1709 252.592 41.5379 253.073C40.0009 253.457 38.7522 251.823 38.2719 250.573C37.1192 247.785 38.2719 244.613 40.5773 242.883C43.0748 241.056 46.4369 240.768 49.3186 241.825C52.1043 242.883 54.6018 245.767 53.5452 248.939C53.0649 250.477 51.624 251.631 49.991 251.535C48.358 251.438 47.1093 249.804 47.3974 248.17C47.4935 247.401 46.5329 247.112 46.4369 247.785Z" fill="white"/>
<path d="M44.8041 251.438C45.7647 253.553 45.2844 255.957 45.3804 258.168C45.4765 260.283 46.0529 262.205 47.7819 263.647C49.4149 264.993 51.6242 265.762 53.6415 266.339C56.139 267.108 58.7326 267.781 61.3261 268.358C64.2079 268.935 67.1857 269.415 70.1635 269.608C70.7399 269.704 70.7399 268.742 70.1635 268.646C65.0724 268.166 59.9813 267.204 55.0823 265.762C52.9691 265.089 50.8558 264.512 49.0307 263.263C48.1661 262.686 47.4937 261.917 47.0134 261.052C46.5331 260.09 46.4371 258.937 46.4371 257.879C46.341 255.572 46.7253 253.169 45.6686 250.958C45.3804 250.381 44.5159 250.862 44.8041 251.438Z" fill="white"/>
<path d="M99.8456 213.466C97.9245 217.503 98.4047 222.022 99.0772 226.348C99.4614 228.847 99.9417 231.25 99.9417 233.75C99.9417 236.057 99.6535 238.268 98.885 240.383C97.4442 244.709 94.8506 248.554 92.0649 252.015C90.624 253.842 89.0871 255.572 87.5501 257.303C86.1093 259.033 84.5723 260.667 82.9393 262.205C79.3852 265.57 75.0626 268.358 70.0675 268.839C69.4912 268.935 69.4912 269.896 70.0675 269.8C79.3852 269.031 85.629 261.148 91.2004 254.611C94.1782 251.15 97.0599 247.401 98.885 243.171C99.7496 241.152 100.422 239.037 100.71 236.826C100.998 234.423 100.806 232.116 100.518 229.712C99.8456 224.521 98.3087 218.945 100.614 213.946C100.902 213.37 100.038 212.889 99.8456 213.466Z" fill="white"/>
<path d="M36.3507 234.903C33.565 236.153 31.836 238.749 30.8754 241.536C30.299 243.267 30.0109 244.997 29.9148 246.728C29.7227 248.65 29.5306 250.573 29.6266 252.496C29.6266 253.073 30.5872 253.073 30.5872 252.496C30.4911 250.765 30.6833 248.939 30.8754 247.208C31.0675 245.574 31.2596 243.844 31.7399 242.209C32.6044 239.518 34.2374 236.922 36.9271 235.672C37.4074 235.48 36.9271 234.615 36.3507 234.903Z" fill="white"/>
<path d="M37.2151 240.095C32.4122 246.439 27.8014 253.553 27.8975 261.821C27.8975 265.474 28.8581 269.223 31.0674 272.299C32.124 273.741 33.4689 275.087 35.294 275.376C37.1191 275.664 38.656 274.703 39.9048 273.453C41.5378 271.819 42.8826 269.992 44.1313 268.069C45.4762 266.147 46.6289 264.032 47.6855 261.917C47.9737 261.34 47.1091 260.859 46.821 261.436C45.188 264.897 43.0747 268.262 40.5772 271.242C39.5205 272.588 38.1757 274.222 36.3506 274.414C34.5255 274.607 32.9886 273.261 31.9319 271.915C27.5132 266.051 28.2817 257.879 31.1635 251.534C32.9886 247.593 35.39 244.036 37.9836 240.575C38.4639 240.095 37.5994 239.614 37.2151 240.095Z" fill="white"/>
<path d="M41.1537 270.858C40.7695 272.684 41.8261 274.511 43.4591 275.472C45.3803 276.626 47.8778 276.626 50.0872 276.626C52.5847 276.626 55.0822 276.433 57.4837 276.049C59.7891 275.664 62.1905 275.087 64.3999 274.222C66.5132 273.357 68.4343 271.723 68.8186 269.319C68.9146 268.743 67.954 268.454 67.858 269.031C67.5698 270.954 66.1289 272.3 64.4959 273.069C62.6708 273.934 60.4615 274.414 58.4443 274.895C56.331 275.28 54.2177 275.568 52.1044 275.664C50.0872 275.76 47.8778 275.76 45.8606 275.376C43.9394 274.991 41.634 273.453 42.1143 271.146C42.2104 270.473 41.2498 270.281 41.1537 270.858Z" fill="white"/>
<path d="M100.422 214.139C103.495 211.543 106.185 208.563 108.491 205.294C108.875 204.814 108.01 204.333 107.626 204.814C105.417 207.986 102.727 210.966 99.7492 213.466C99.2689 213.85 99.9413 214.523 100.422 214.139Z" fill="white"/>
<path d="M100.422 213.85C102.823 217.407 105.225 220.964 107.146 224.809C109.067 228.751 110.412 232.981 110.892 237.307C111.757 245.478 109.547 253.553 105.609 260.667C103.496 264.609 100.806 268.262 97.9243 271.626C97.5401 272.107 98.2125 272.78 98.5967 272.299C103.88 266.147 108.299 259.129 110.508 251.342C112.909 242.979 112.333 234.134 108.779 226.155C106.762 221.637 103.976 217.503 101.094 213.37C100.902 212.793 100.134 213.273 100.422 213.85Z" fill="white"/>
<path d="M60.7499 275.568C65.4568 277.875 70.74 279.509 76.0232 279.894C78.7128 280.086 81.4985 279.894 84.0921 279.317C86.4936 278.74 88.895 277.779 91.1044 276.625C93.698 275.279 96.1955 273.837 98.693 272.299C99.1733 272.011 98.693 271.146 98.2127 271.434C93.9861 274.03 89.7596 276.625 84.9566 278.067C79.7695 279.605 74.4863 279.125 69.2991 277.779C66.5134 277.01 63.8238 276.048 61.2302 274.703C60.6539 274.51 60.1736 275.375 60.7499 275.568Z" fill="white"/>
<path d="M106.378 206.64C106.281 206.736 106.281 206.832 106.185 206.929C106.185 207.025 106.089 207.025 106.089 207.121C106.089 207.217 106.089 207.217 106.089 207.313C106.089 207.409 106.089 207.409 106.185 207.505C106.185 207.602 106.281 207.602 106.281 207.602C106.281 207.602 106.378 207.602 106.378 207.698C106.474 207.698 106.57 207.698 106.666 207.698C106.666 207.698 106.762 207.698 106.762 207.602C106.858 207.602 106.858 207.505 106.954 207.409C107.05 207.313 107.05 207.217 107.146 207.121C107.146 207.025 107.242 207.025 107.242 206.929C107.242 206.832 107.242 206.832 107.242 206.736C107.242 206.64 107.242 206.64 107.146 206.544C107.146 206.448 107.05 206.448 107.05 206.448C107.05 206.448 106.954 206.448 106.954 206.352C106.858 206.352 106.762 206.352 106.666 206.352C106.666 206.352 106.57 206.352 106.57 206.448C106.474 206.448 106.474 206.544 106.378 206.64Z" fill="white"/>
<path d="M106.377 207.698C106.954 207.698 106.954 206.736 106.377 206.736C105.705 206.736 105.705 207.698 106.377 207.698Z" fill="white"/>
<path d="M107.914 205.679C110.123 203.66 111.66 201.161 112.525 198.277C113.485 195.104 113.101 191.836 112.621 188.567C112.333 186.837 112.045 185.01 111.949 183.28C111.852 181.645 111.949 179.915 112.141 178.281C112.429 174.916 113.101 171.648 113.485 168.283C113.966 164.63 114.158 160.881 113.389 157.228C113.293 156.651 112.333 156.843 112.429 157.516C113.774 163.957 112.045 170.494 111.276 176.839C110.892 180.107 110.796 183.28 111.276 186.548C111.756 189.913 112.525 193.278 111.852 196.642C111.18 199.815 109.547 202.795 107.146 205.006C106.761 205.487 107.434 206.159 107.914 205.679Z" fill="white"/>
<path d="M69.0102 185.395C72.5643 172.994 76.4066 159.727 85.8204 150.402C88.6061 147.614 91.776 145.307 95.2341 143.481C95.8104 143.192 95.3301 142.327 94.7538 142.615C88.7021 145.788 83.611 150.498 79.6726 156.266C75.9264 161.746 73.4288 167.899 71.3156 174.147C70.0668 177.8 69.0102 181.453 67.9535 185.106C67.8575 185.683 68.818 185.972 69.0102 185.395Z" fill="white"/>
<path d="M94.8502 143.48C97.924 142.327 101.19 143.096 103.88 144.826C106.761 146.653 108.779 149.537 110.316 152.517C111.276 154.247 112.045 156.17 112.813 157.997C113.005 158.573 113.966 158.285 113.774 157.708C111.084 151.267 107.626 143.769 100.133 142.231C98.3083 141.846 96.3871 141.942 94.658 142.519C93.9856 142.808 94.2738 143.769 94.8502 143.48Z" fill="white"/>
<path d="M14.2573 160.208C10.9914 160.016 8.78201 162.996 8.20566 165.88C7.53326 169.148 8.20566 172.705 9.26231 175.878C11.4716 182.415 15.7943 187.894 19.3484 193.758C21.1735 196.739 22.8065 199.815 23.7671 203.083C24.8238 206.448 25.0159 209.909 24.4395 213.37C23.2868 220.003 19.8287 226.252 20.309 233.077C20.8854 240.672 25.4962 247.305 29.8188 253.361C30.203 253.842 30.9715 253.361 30.6833 252.88C26.9371 247.593 22.9026 241.921 21.6538 235.384C20.9814 232.116 21.2696 228.751 22.1341 225.579C22.9026 222.406 24.0553 219.234 24.9198 216.061C25.6883 212.889 26.0725 209.717 25.5922 206.448C25.1119 203.179 23.8632 200.103 22.4223 197.123C19.3484 191.163 15.0258 185.875 12.048 179.819C10.415 176.454 9.16625 172.801 9.07019 169.052C8.97413 167.129 9.16625 165.207 10.2229 163.476C11.0874 162.034 12.6244 160.977 14.3534 161.073C14.8337 161.169 14.8337 160.208 14.2573 160.208Z" fill="white"/>
<path d="M14.3534 160.784C25.9765 166.552 31.8361 178.954 40.9616 187.606C43.1709 189.721 46.2448 192.316 49.4147 190.874C49.9911 190.586 49.5108 189.817 48.9345 190.009C46.0527 191.355 43.0749 188.375 41.2498 186.548C39.0404 184.337 36.9272 181.934 35.006 179.53C31.1637 174.82 27.5134 169.821 22.9987 165.687C20.5972 163.476 17.8115 161.457 14.8337 159.919C14.2574 159.631 13.7771 160.496 14.3534 160.784Z" fill="white"/>
<path d="M48.8381 191.163C54.6977 187.894 61.3257 186.068 68.0498 185.683C68.6261 185.683 68.6261 184.722 68.0498 184.722C61.1336 185.106 54.4095 187.029 48.3578 190.394C47.7815 190.682 48.2618 191.451 48.8381 191.163Z" fill="white"/>
<path d="M15.0258 166.264C12.5283 166.264 11.3756 169.148 11.8559 171.263C12.1441 172.705 13.0086 174.051 13.681 175.301C14.4495 176.647 15.1219 177.992 15.7943 179.338C18.58 184.914 20.8854 190.778 22.5184 196.738C23.479 200.103 24.1514 203.66 24.7277 207.121C24.8238 207.698 25.7844 207.505 25.6883 206.832C23.9593 195.393 20.0209 184.337 14.2574 174.243C13.4889 172.897 12.5283 171.359 12.7204 169.821C12.8165 168.571 13.681 167.225 15.0258 167.225C15.6982 167.225 15.6982 166.264 15.0258 166.264Z" fill="white"/>
<path d="M25.3997 210.87C28.6656 204.429 30.2026 197.219 30.0105 190.105C29.9144 186.548 29.4341 182.895 28.3775 179.531C27.4169 176.166 26.0721 172.801 23.7667 170.206C21.3652 167.514 17.6189 165.687 13.9687 166.457C13.3924 166.553 13.5845 167.514 14.2569 167.418C17.4268 166.841 20.6928 168.379 22.9021 170.686C25.2075 173.186 26.5524 176.358 27.4169 179.627C29.338 186.164 29.6262 193.182 28.2814 199.815C27.5129 203.564 26.2642 207.217 24.5351 210.582C24.343 210.966 25.1115 211.447 25.3997 210.87Z" fill="white"/>
<path d="M79.8654 189.913C78.1363 181.357 76.4073 172.032 79.9614 163.668C81.5944 159.919 84.284 156.843 87.6461 154.536C89.2791 153.382 91.0081 152.325 92.8332 151.363C94.6583 150.402 96.6756 149.633 98.7889 149.825C103.015 150.21 104.264 155.209 105.417 158.477C106.954 162.803 108.395 167.225 108.875 171.84C109.355 176.262 108.971 180.588 107.434 184.818C105.993 188.759 103.784 192.412 101.478 195.873C100.902 196.738 100.326 197.507 99.7494 198.373C99.1731 199.142 98.6928 200.007 98.0204 200.776C97.444 201.449 96.5795 202.026 95.6189 202.026C94.5623 202.026 93.6978 201.257 92.9293 200.584C89.2791 197.507 85.6289 194.431 81.9786 191.355C81.1141 190.586 80.1535 189.817 79.289 189.048C78.8087 188.663 78.1363 189.336 78.6166 189.721C82.555 193.085 86.4934 196.354 90.3357 199.718C91.2002 200.487 92.0648 201.257 93.0254 201.929C93.7938 202.506 94.6583 202.987 95.715 202.987C97.6362 202.987 98.8849 201.257 99.9416 199.815C102.535 196.161 105.033 192.412 106.954 188.375C108.875 184.337 110.028 179.915 109.932 175.397C109.836 170.59 108.683 165.783 107.146 161.265C106.377 159.054 105.609 156.843 104.744 154.728C104.072 152.998 103.208 151.363 101.767 150.21C98.2125 147.422 93.4096 149.825 90.0476 151.844C86.3973 153.959 82.9392 156.651 80.5378 160.208C75.4467 168.091 76.3112 177.896 77.9442 186.644C78.1363 187.894 78.4245 189.144 78.6166 190.393C79.0969 190.778 79.9614 190.49 79.8654 189.913Z" fill="white"/>
<path d="M37.1191 236.153C38.7521 228.462 31.932 222.887 27.9936 217.215C26.8409 215.484 25.8803 213.754 25.3039 211.735C25.1118 211.158 24.2473 211.351 24.3434 212.023C26.1685 219.041 32.9886 223.175 35.4861 229.808C36.2546 231.731 36.5428 233.846 36.0625 235.865C36.0625 236.538 37.0231 236.826 37.1191 236.153Z" fill="white"/>
<path d="M67.4734 185.395C65.0719 186.356 63.4389 188.471 62.6705 190.874C61.7099 193.854 62.0941 197.027 62.7665 200.103C63.535 203.468 64.5916 206.736 64.4956 210.293C64.4956 211.928 64.1114 213.466 63.4389 214.908C62.8626 216.254 62.0941 217.407 61.3257 218.657C59.8848 220.964 58.4439 223.464 58.3479 226.348C58.2518 229.135 59.3084 231.827 60.8454 234.134C64.3035 239.229 69.9709 241.921 74.966 245.19C77.7516 247.112 80.4413 249.227 82.1703 252.207C83.8033 254.899 84.6679 258.168 83.6112 261.34C83.4191 261.917 84.3797 262.205 84.5718 261.629C86.3008 256.245 83.1309 250.669 79.0965 247.209C74.4857 243.171 68.53 240.96 64.2074 236.73C62.1902 234.711 60.4611 232.308 59.6927 229.52C58.9242 226.636 59.4045 223.944 60.8454 221.349C62.1902 218.945 63.9192 216.734 64.8798 214.042C65.9365 210.966 65.5522 207.698 64.8798 204.621C64.1114 200.968 62.7665 197.219 63.2468 193.374C63.6311 190.586 65.168 187.51 67.8576 186.452C68.2419 186.068 68.0498 185.202 67.4734 185.395Z" fill="white"/>
<path d="M59.6931 240.287C68.1462 242.979 75.2545 249.516 78.8087 257.687C79.7693 259.994 81.1141 263.744 78.4245 265.474C77.9442 265.858 78.3284 266.531 78.9047 266.339C79.289 266.147 79.6732 265.955 80.0574 265.762C80.6338 265.474 80.1535 264.705 79.5772 264.897C79.1929 265.089 78.8087 265.282 78.4245 265.474C78.6166 265.762 78.7126 266.051 78.9047 266.339C81.1141 264.897 81.2101 262.013 80.5377 259.706C79.8653 257.303 78.6166 255.092 77.3678 252.977C74.7742 248.939 71.4122 245.478 67.3777 242.979C65.0723 241.537 62.5748 240.287 59.9812 239.518C59.4049 239.133 59.1167 240.095 59.6931 240.287Z" fill="white"/>
<path d="M126.454 317.29C130.008 312.483 135.964 309.599 141.919 309.503C143.648 309.503 145.281 309.599 146.914 310.08C146.818 309.887 146.722 309.791 146.53 309.599C146.434 314.598 146.338 319.597 146.242 324.692C146.146 327.191 146.146 329.595 146.05 332.094C145.954 334.498 145.858 336.901 145.954 339.304C145.954 341.227 146.242 343.246 147.875 344.495C148.259 344.784 148.835 344.207 148.547 343.823C148.355 343.63 148.259 343.438 148.067 343.15C147.779 343.342 147.587 343.534 147.298 343.726C151.813 349.302 154.887 356.031 155.944 363.145C156.136 364.203 156.232 365.453 155.752 366.414C155.367 367.087 154.407 367.76 153.638 367.375C153.254 367.183 152.87 367.471 152.966 367.952C153.446 369.971 152.582 372.278 150.853 373.528C149.027 374.778 146.434 374.681 144.705 373.432C144.513 373.336 144.225 373.336 144.128 373.528C142.688 374.778 140.574 375.258 138.749 374.874C137.789 374.681 136.924 374.297 136.252 373.624C135.483 372.951 134.811 372.086 134.042 371.317C133.274 370.644 132.409 370.163 131.449 369.875C130.392 369.586 129.239 369.49 128.279 368.913C126.262 367.856 125.493 365.453 125.301 363.338C125.109 360.742 125.301 358.146 125.301 355.551C125.301 352.955 125.397 350.36 125.397 347.668C125.493 342.381 125.589 336.997 125.685 331.71C125.781 328.73 125.781 325.846 125.877 322.865C125.877 321.52 125.877 320.078 126.358 318.828C126.742 317.77 127.606 316.713 128.855 316.521C129.432 316.424 129.432 315.463 128.855 315.559C126.55 315.848 125.397 317.963 125.109 320.078C124.917 321.327 124.917 322.673 124.917 324.019C124.917 325.461 124.821 326.903 124.821 328.345C124.725 334.113 124.629 339.977 124.533 345.745C124.436 348.629 124.436 351.513 124.34 354.301C124.244 357.089 124.148 359.973 124.244 362.761C124.34 365.068 124.917 367.471 126.646 369.009C127.51 369.779 128.471 370.259 129.528 370.548C130.68 370.836 131.929 371.028 132.89 371.701C133.946 372.47 134.619 373.624 135.675 374.489C136.54 375.162 137.5 375.643 138.557 375.835C140.766 376.316 143.168 375.739 144.801 374.201C144.609 374.201 144.417 374.297 144.225 374.297C146.338 375.835 149.412 375.835 151.525 374.297C153.542 372.855 154.503 370.163 153.926 367.76C153.734 367.952 153.446 368.144 153.254 368.337C154.791 369.009 156.424 367.952 157 366.51C157.385 365.549 157.288 364.491 157.192 363.53C157.096 362.472 156.904 361.511 156.616 360.55C155.752 356.512 154.215 352.667 152.197 349.11C151.045 347.091 149.7 345.168 148.259 343.342C147.875 342.957 147.202 343.438 147.491 343.919C147.683 344.111 147.779 344.303 147.971 344.592C148.163 344.399 148.451 344.111 148.643 343.919C147.202 342.861 147.106 340.746 147.202 339.112C147.202 336.805 147.298 334.498 147.298 332.19C147.394 327.48 147.491 322.673 147.587 317.963C147.683 315.271 147.683 312.579 147.779 309.791C147.779 309.599 147.587 309.407 147.394 309.311C141.247 307.772 134.619 309.311 129.624 313.156C128.183 314.31 126.934 315.559 125.877 317.001C125.205 317.29 126.069 317.77 126.454 317.29Z" fill="white"/>
<path d="M12.7205 350.648C12.5284 352.571 12.2402 354.494 13.0087 356.32C13.6811 357.858 14.8338 359.012 16.4668 359.204C19.7328 359.685 22.8067 357.281 23.9594 354.397C24.0554 354.109 23.7672 353.821 23.4791 353.821C23.383 353.821 23.287 353.821 23.1909 353.821C23.287 354.109 23.4791 354.301 23.5751 354.59C27.7056 346.13 26.5529 336.228 30.6834 327.768C31.7401 325.654 33.181 323.635 35.0061 322.097C35.4864 321.712 34.814 321.039 34.3337 321.424C27.2253 327.48 27.1293 337.67 25.4002 346.13C24.8239 348.918 24.0554 351.61 22.8067 354.109C22.6145 354.494 22.8067 354.782 23.1909 354.878C23.287 354.878 23.383 354.878 23.4791 354.878C23.2869 354.686 23.1909 354.494 22.9988 354.301C22.0382 356.801 19.2525 358.916 16.4668 358.435C13.0087 357.858 13.2008 353.436 13.5851 350.841C13.7772 350.071 12.8166 350.071 12.7205 350.648Z" fill="white"/>
<path d="M16.7551 359.3C15.6024 361.03 14.3537 362.761 12.5285 363.915C10.7995 364.972 8.49409 365.356 6.76504 364.107C4.93993 362.761 4.65176 360.261 4.84387 358.146C5.03599 355.743 5.7084 353.436 6.47687 351.225C6.66898 350.648 5.80446 350.36 5.51628 350.936C4.74781 352.955 4.17146 354.974 3.88329 357.089C3.59511 359.012 3.59511 361.03 4.45964 362.857C5.22811 364.395 6.66898 365.549 8.39803 365.741C10.1271 365.933 11.9522 365.453 13.3931 364.395C15.1221 363.145 16.3709 361.415 17.5236 359.685C18.0039 359.3 17.1393 358.819 16.7551 359.3Z" fill="white"/>
<path d="M11.4716 337.766C12.0479 337.766 12.0479 336.805 11.4716 336.805C10.7992 336.805 10.7992 337.766 11.4716 337.766Z" fill="white"/>
<path d="M23.1907 308.445C20.0208 314.406 16.9469 320.462 14.0652 326.615C13.8731 327.095 14.3534 327.576 14.8337 327.191C15.1218 326.903 15.41 326.711 15.7942 326.422C15.5061 326.23 15.314 326.038 15.0258 325.846C11.7598 331.614 8.49381 337.478 5.22782 343.246C2.63425 347.86 -1.30415 353.436 0.424904 359.012C1.19337 361.415 2.82636 363.53 5.32388 364.107C5.90023 364.299 6.18841 363.338 5.61206 363.145C3.49877 362.569 2.0579 360.742 1.38549 358.723C0.61702 356.224 1.09731 353.628 2.0579 351.321C3.11454 348.629 4.74753 346.13 6.09235 343.63C7.62928 340.939 9.16622 338.151 10.7032 335.459C12.4322 332.383 14.1613 329.403 15.7942 326.326C16.0824 325.846 15.41 325.365 15.0258 325.749C14.7376 326.038 14.4494 326.23 14.0652 326.519C14.3534 326.711 14.5455 326.903 14.8337 327.095C17.8115 320.943 20.7893 314.886 23.9592 308.926C24.3434 308.445 23.4789 307.965 23.1907 308.445Z" fill="white"/>
<path d="M202.042 11.913C197.148 9.26566 191.064 9.79513 186.038 12.1777C181.012 14.5603 176.78 18.2666 172.944 22.2376C152.179 43.0191 136.572 68.6982 127.578 96.6276" fill="#CF9C98"/>
<path d="M202.439 10.9864C186.964 3.04443 172.283 20.3844 163.289 30.709C152.708 42.8868 143.714 56.3881 136.572 70.9485C132.604 79.1552 129.165 87.4943 126.387 96.2305C125.991 97.4218 127.842 97.9512 128.239 96.7599C133.001 82.0673 139.614 68.0364 147.814 54.9321C155.882 42.0926 165.67 29.6501 176.912 19.3255C183.393 13.5014 192.651 8.20673 201.381 12.7072C202.571 13.2367 203.629 11.6483 202.439 10.9864Z" fill="#CF9C98"/>
<path d="M202.042 11.9131C198.736 8.47153 193.18 12.0454 188.816 14.0309C184.451 16.0164 181.277 19.8551 178.235 23.5613C143.053 67.1099 119.51 120.057 110.913 175.386C110.251 179.886 109.59 184.519 110.251 189.02C110.913 193.52 114.087 196.035 117.79 198.947C122.816 202.918 131.414 201.33 137.894 200.932C151.914 200.271 168.976 199.609 182.864 198.947C184.848 198.815 204.158 205.698 203.894 203.712C203.629 201.859 182.467 195.241 180.615 195.373C169.77 196.564 153.898 195.108 142.92 195.505C137.365 195.77 129.297 198.285 121.494 194.579C115.807 191.932 115.277 187.961 115.145 181.607C115.145 175.253 116.997 169.032 118.981 162.943C123.875 147.324 128.901 131.705 133.794 116.086C137.365 104.967 140.937 93.7156 146.359 83.391C158.528 60.3592 179.293 43.2839 198.868 26.0763C201.381 23.9584 204.026 21.3111 204.026 18.1343C204.026 14.9575 204.555 12.4425 201.645 11.9131H202.042Z" fill="#CF9C98"/>
<path d="M202.703 11.2513C199.132 7.80975 194.106 10.3247 190.403 12.1778C188.154 13.3691 185.906 14.4281 183.922 16.0165C181.806 17.7372 179.954 19.8551 178.235 21.973C171.092 30.7092 164.479 39.8425 158.395 49.2405C145.962 68.3013 135.646 88.6857 127.445 109.864C119.245 131.043 113.293 153.281 109.854 175.783C109.061 181.078 107.87 187.564 110.251 192.461C111.177 194.447 112.764 196.167 114.484 197.623C116.203 199.079 117.922 200.535 120.039 201.462C124.403 203.183 129.429 202.653 134.059 202.256C139.481 201.859 145.036 201.727 150.459 201.462C156.543 201.197 162.495 200.933 168.579 200.668C171.489 200.535 174.399 200.403 177.309 200.271C179.16 200.138 181.541 199.874 183.128 200.006C185.641 200.271 188.154 201.33 190.667 202.124C193.709 203.05 196.884 203.977 200.058 204.639C201.248 204.904 204.29 205.83 204.819 204.109C205.348 202.389 202.439 201.462 201.381 200.933C195.693 198.418 189.609 196.432 183.525 194.976C180.748 194.314 178.102 194.711 175.192 194.844C169.77 195.108 164.215 194.844 158.792 194.711C153.634 194.579 148.475 194.447 143.449 194.579C138.291 194.844 133.265 196.167 127.974 195.506C123.345 194.976 117.922 192.858 116.732 187.828C115.542 182.666 116.335 176.842 117.526 171.68C119.113 165.458 121.229 159.237 123.213 153.148C125.197 146.795 127.181 140.441 129.297 134.087C133.133 121.91 136.704 109.6 141.333 97.6866C145.565 86.5678 151.385 76.2433 158.792 66.9776C165.802 58.109 173.87 50.167 182.202 42.6222C186.303 38.9159 190.535 35.2096 194.767 31.5034C196.751 29.6502 198.868 27.9295 200.852 26.0763C202.571 24.4879 204.29 22.6348 204.952 20.2522C205.481 18.5314 205.481 16.1488 205.216 14.2957C204.952 12.5749 203.761 11.516 202.174 11.1189C202.306 11.6484 202.439 12.1778 202.571 12.8397L202.703 12.7073C203.629 11.7807 202.174 10.4571 201.248 11.2513L201.116 11.3836C200.587 11.9131 200.852 12.8397 201.513 13.1044C203.894 13.6339 203.364 16.2812 203.232 18.1343C203.1 20.914 201.381 22.8995 199.397 24.6203C195.561 28.1942 191.329 31.6357 187.361 35.2096C179.16 42.3574 171.225 49.7699 163.818 57.8443C156.676 65.6539 150.327 74.1254 145.301 83.5234C139.746 93.9804 136.175 105.232 132.604 116.483C128.768 128.66 124.932 140.838 120.965 153.016C117.526 163.738 112.764 174.856 114.087 186.24C114.484 189.814 115.939 192.726 119.113 194.711C123.61 197.491 129.033 198.02 134.059 197.491C138.688 197.094 143.185 196.432 147.814 196.432C152.972 196.432 158.13 196.697 163.289 196.697C168.315 196.829 173.341 196.829 178.367 196.432C179.425 196.3 180.351 196.167 181.277 196.432C182.335 196.697 183.393 196.962 184.583 197.226C190.27 198.815 196.355 200.403 201.645 203.315C201.91 203.448 202.306 203.845 202.571 203.845C202.703 203.845 202.703 203.977 202.703 203.977C202.703 203.977 202.968 202.918 202.968 203.05C202.835 202.918 201.116 202.786 200.587 202.786C197.677 202.124 194.767 201.33 191.858 200.403C189.212 199.609 186.699 198.815 184.054 198.153C182.996 197.888 182.07 197.888 180.88 198.02C178.102 198.153 175.457 198.285 172.679 198.418C161.305 198.947 149.93 199.477 138.556 200.006C133.926 200.271 129.165 200.933 124.536 200.535C119.774 200.006 115.542 197.094 112.764 193.255C109.325 188.622 110.78 181.475 111.574 176.312C112.367 170.885 113.426 165.458 114.484 160.164C116.732 149.442 119.51 138.985 122.816 128.528C129.429 107.614 138.291 87.2297 149.137 68.1689C154.427 58.6385 160.247 49.5052 166.595 40.5043C169.77 36.0038 173.076 31.5034 176.515 27.1353C179.689 23.0319 182.996 18.5314 187.625 15.7517C189.741 14.5604 191.99 13.3691 194.238 12.4426C196.487 11.516 199.264 10.5894 201.248 12.5749C202.306 13.5015 203.629 12.1778 202.703 11.2513Z" fill="#CF9C98"/>
<path d="M205.481 19.0605C192.387 29.9146 176.912 41.4305 166.596 55.0642C160.644 62.8739 156.94 71.8748 153.105 80.8757C149.269 90.009 145.434 99.2747 141.598 108.408C135.646 122.571 129.694 136.734 126.652 151.692C124.933 159.766 124.668 169.297 130.885 174.724C135.778 178.959 143.053 178.959 149.534 180.018C158.792 181.474 167.389 185.975 174.135 192.461C175.722 194.049 177.97 195.77 179.822 194.711C181.012 193.917 181.409 192.196 180.88 190.872C180.351 189.549 179.161 188.49 178.102 187.696C171.754 183.195 163.554 182.004 156.411 178.695C142.656 172.341 133.662 156.986 134.852 141.897C136.043 125.483 147.55 111.982 153.766 96.7597C158.924 84.4496 160.776 70.5511 167.918 59.3C177.441 44.3426 195.694 34.1503 206.142 19.8547L205.481 19.0605Z" fill="#CF9C98"/>
<path d="M204.819 18.3988C192.651 28.4587 179.689 37.9891 169.373 50.0344C158.527 62.6092 152.972 78.6256 146.624 93.7154C139.878 109.864 132.472 125.88 127.842 142.691C124.536 154.339 120.568 172.738 135.249 178.298C138.556 179.489 141.994 179.886 145.433 180.283C149.269 180.813 152.84 181.474 156.543 182.666C160.247 183.857 163.686 185.578 166.86 187.828C168.447 188.887 169.902 189.946 171.357 191.27C172.812 192.461 174.002 193.917 175.589 194.976C178.102 196.564 181.409 196.035 181.938 192.726C182.467 189.549 179.425 187.299 177.044 185.842C170.563 181.872 162.892 180.813 156.014 177.503C143.714 171.415 135.381 157.913 135.514 144.279C135.514 128.66 145.698 115.556 152.179 102.187C155.618 95.1714 157.866 87.7589 160.115 80.3464C162.363 72.8015 165.008 65.2566 169.505 58.6382C177.706 46.7252 190.138 38.5185 200.19 28.3263C202.571 25.8113 204.819 23.2964 206.936 20.5167C207.2 20.2519 207.068 19.8548 206.936 19.4577C206.803 19.193 206.671 18.9283 206.539 18.6635C205.878 17.6046 204.158 18.5312 204.819 19.7225C204.952 19.9872 205.084 20.2519 205.216 20.5167C205.216 20.1196 205.216 19.8548 205.216 19.4577C196.751 30.9736 184.583 38.9156 174.928 49.1078C170.034 54.2701 165.934 59.8295 163.157 66.3155C160.115 73.3309 158.263 80.7435 155.882 88.0236C153.634 95.1714 150.459 101.922 146.888 108.54C143.317 115.026 139.614 121.38 137.101 128.263C134.588 134.749 133.265 141.632 134.059 148.515C134.72 154.869 137.101 160.958 140.54 166.252C144.111 171.547 148.872 176.047 154.427 178.959C160.908 182.401 168.315 183.46 174.796 187.034C176.383 187.828 178.102 188.755 179.16 190.211C180.88 192.196 179.822 195.505 176.912 193.785C175.325 192.858 174.134 191.402 172.812 190.343C171.357 189.152 169.902 187.96 168.315 186.901C162.495 182.93 155.75 180.283 148.74 179.357C142.127 178.43 133.926 178.43 129.562 172.341C125.726 166.914 126.255 159.369 127.446 153.148C130.62 136.602 137.63 120.983 143.978 105.496C147.285 97.554 150.724 89.4797 154.03 81.5377C157.205 74.1251 160.247 66.5802 164.744 59.8295C173.209 46.8576 185.774 36.9301 197.545 27.2674C200.455 24.8848 203.365 22.6345 206.142 20.2519C207.2 18.9283 205.745 17.4722 204.819 18.3988Z" fill="#CF9C98"/>
<path d="M206.936 22.3698C203.497 34.9447 191.329 45.6664 182.864 55.5938C166.728 74.3899 158.131 98.2159 149.93 121.512C147.285 129.057 144.508 136.867 143.582 144.809C142.656 152.883 143.846 161.355 148.343 168.105C152.708 174.591 159.586 178.827 165.405 184.122C171.225 189.416 176.251 196.961 174.531 204.639C172.151 215.493 158.395 219.331 151.782 228.2C147.55 233.892 146.359 241.701 148.74 248.32C151.121 254.938 157.073 260.233 164.083 261.689C153.766 261.159 144.243 253.349 141.73 243.422C139.217 233.494 143.979 221.979 152.84 216.816C159.189 212.978 167.786 211.786 171.754 205.565C175.325 199.873 173.473 191.931 169.109 186.769C164.744 181.607 158.527 178.43 152.443 175.386C146.359 172.341 140.275 168.9 136.307 163.34C131.81 156.987 130.884 148.78 132.075 141.103C133.265 133.425 136.44 126.278 139.482 119.13C147.417 100.996 155.353 82.9937 163.421 64.8595C167.389 55.7262 171.622 46.3282 177.838 38.6509C184.054 30.9737 195.826 22.3698 205.878 21.708L206.936 22.3698Z" fill="#CF9C98"/>
<path d="M205.878 22.1052C203.232 31.3708 196.619 38.7833 190.403 45.6664C183.922 52.8142 177.441 59.962 172.283 68.1687C161.305 85.3764 154.559 104.967 147.814 124.16C144.375 134.087 141.201 144.677 142.656 155.266C143.317 159.899 144.772 164.532 147.417 168.503C150.063 172.474 153.634 175.65 157.205 178.562C164.347 184.387 174.002 191.27 173.738 201.727C173.605 210.198 165.802 214.963 159.718 219.464C156.676 221.714 153.634 224.097 151.253 227.009C148.475 230.45 146.888 234.553 146.491 238.922C145.566 247.658 150.195 256.129 157.866 260.497C159.718 261.556 161.702 262.218 163.686 262.748C163.818 262.086 163.818 261.424 163.95 260.762C154.824 260.233 146.227 253.879 143.185 245.143C140.143 236.539 143.053 226.347 149.666 220.258C156.014 214.434 166.199 214.169 171.621 207.154C177.573 199.609 173.473 189.019 166.992 183.195C159.321 176.312 148.872 173.665 141.069 166.914C132.604 159.502 131.149 148.118 133.662 137.529C134.985 131.837 137.233 126.41 139.614 121.115C142.127 115.424 144.64 109.732 147.153 104.04C152.179 92.6565 157.205 81.273 162.098 69.8895C166.595 59.6973 170.696 49.1079 177.573 40.2394C183.393 32.5621 192.122 25.679 201.513 23.1641C202.703 22.8993 203.761 22.6346 204.952 22.5022C205.613 22.3699 205.613 22.5022 206.407 22.8993C207.465 23.5612 208.523 21.8404 207.465 21.1786C207.068 20.9139 206.671 20.5167 206.274 20.3844C205.349 20.1197 203.894 20.6491 202.968 20.7815C200.719 21.1786 198.471 21.9728 196.355 22.8993C191.725 25.0172 187.361 27.9293 183.525 31.2384C175.193 38.3862 169.902 48.049 165.405 57.9765C160.115 69.4924 155.221 81.1406 150.063 92.6565C145.037 104.172 139.614 115.556 134.985 127.337C131.149 137.396 128.636 148.78 133.133 159.105C137.498 169.297 147.946 173.533 156.94 178.43C161.702 181.077 166.595 184.122 169.637 188.755C172.415 192.99 173.87 198.682 171.621 203.447C169.637 207.815 165.008 210.066 160.776 211.786C156.676 213.507 152.443 215.096 149.004 218.008C142.259 223.832 138.82 233.23 140.407 242.098C141.994 250.967 149.004 258.512 157.602 261.292C159.718 261.953 161.834 262.35 164.082 262.483C165.141 262.483 165.405 260.762 164.347 260.497C155.353 258.379 148.608 250.305 148.475 240.907C148.475 236.274 149.93 231.509 152.972 227.935C155.353 224.891 158.527 222.64 161.569 220.39C167.124 216.287 173.738 211.919 175.457 204.771C177.706 195.638 171.092 187.299 164.611 181.739C161.04 178.695 157.205 175.915 153.766 172.606C150.195 169.164 147.417 165.061 145.962 160.163C142.92 149.971 145.037 139.25 148.211 129.454C151.385 119.659 154.956 109.997 158.66 100.466C162.363 91.0681 166.463 81.8025 171.621 73.0663C176.515 64.5948 182.467 57.1823 189.08 50.0345C195.297 43.2838 201.777 36.5331 205.745 28.194C206.671 26.3409 207.332 24.3554 207.994 22.3699C208.258 21.4433 206.274 20.9139 205.878 22.1052Z" fill="#CF9C98"/>
<path d="M199 31.371C200.19 28.7237 202.968 27.2677 205.481 27.6648C207.994 28.0619 209.713 30.3121 210.507 32.6947C211.3 35.0773 211.036 37.5922 210.903 40.1072C204.819 39.5777 198.868 43.1516 195.032 47.9168C191.196 52.682 186.303 58.6385 184.319 64.3303C178.896 79.4201 176.912 94.907 177.441 110.923C178.102 127.602 179.689 135.808 189.477 148.383C191.99 151.692 195.958 155.663 203.1 159.899C228.098 175.121 255.741 207.948 186.964 217.876C181.673 218.67 179.293 213.243 175.06 214.699C170.96 216.155 159.585 233.759 162.098 237.466C158.66 230.186 167.257 210.728 172.812 204.904C176.383 201.197 181.806 198.021 181.806 192.858C181.806 188.755 178.234 185.446 174.399 183.857C170.563 182.269 166.331 181.739 162.76 179.754C155.221 175.783 151.914 166.782 150.062 158.443C143.714 130.514 147.153 100.334 159.585 74.6549C168.579 55.9912 180.086 40.1072 199 31.6358V31.371Z" fill="#CF9C98"/>
<path d="M199.793 31.9004C201.248 28.8559 205.084 27.5323 207.729 30.0472C210.374 32.6946 210.11 36.7979 209.845 40.2395C210.11 39.9747 210.507 39.5776 210.903 39.1805C204.687 38.7834 199 41.9602 195.032 46.5931C190.667 51.4906 186.17 57.1824 183.789 63.2712C181.012 70.1543 179.292 77.6992 178.102 85.1117C176.912 92.5242 176.383 99.9368 176.515 107.349C176.647 118.733 177.309 130.381 182.996 140.441C185.509 145.074 188.815 149.574 192.519 153.281C196.354 156.987 200.851 159.766 205.348 162.679C210.771 166.252 215.929 170.356 220.294 175.121C224.13 179.224 227.701 183.99 228.891 189.549C232.462 204.903 212.887 211.522 201.513 214.301C198.471 215.096 195.429 215.625 192.387 216.155C189.212 216.684 185.773 217.743 182.731 216.287C180.88 215.36 179.292 214.037 177.309 213.64C175.721 213.375 174.266 213.904 172.944 214.963C170.034 217.346 167.786 220.787 165.802 223.964C163.818 227.273 161.569 230.847 160.908 234.686C160.643 235.745 160.643 237.069 161.305 237.995C161.966 239.054 163.553 238.127 163.024 236.936C161.966 234.554 162.363 231.509 162.76 228.994C163.421 225.685 164.347 222.508 165.669 219.464C168.05 213.64 170.96 207.816 175.589 203.58C178.102 201.197 181.144 198.947 182.335 195.638C183.525 192.329 182.467 188.755 179.954 186.24C177.044 183.328 173.208 182.136 169.24 180.945C164.876 179.621 160.908 177.901 157.866 174.327C152.575 167.973 150.724 159.105 149.401 151.163C147.814 141.765 147.285 132.102 147.946 122.439C149.004 103.643 154.427 85.5088 163.289 68.963C167.521 61.1534 172.415 53.6085 178.631 47.1225C181.673 43.9457 184.98 40.9013 188.551 38.3863C190.403 37.0627 192.387 35.8714 194.37 34.6801C195.429 34.1506 196.487 33.6211 197.545 33.0917C198.338 32.6946 199.264 32.4298 199.793 31.768C200.587 30.7091 199.132 29.3854 198.338 30.312C197.942 30.8414 196.619 31.2385 196.09 31.5033C195.164 31.9004 194.238 32.4298 193.445 32.9593C191.593 34.0182 189.741 35.0772 188.022 36.4008C184.848 38.6511 181.805 41.166 178.896 43.9457C173.208 49.6375 168.447 56.2558 164.347 63.1389C154.956 79.0229 148.872 96.6276 146.756 114.894C145.698 124.292 145.565 133.823 146.491 143.353C147.417 151.957 148.74 161.09 152.443 169.032C154.03 172.474 156.014 175.65 158.924 178.033C162.231 180.945 166.331 182.004 170.431 183.195C174.399 184.387 179.557 186.372 180.747 191.005C181.805 195.241 178.102 198.55 175.325 201.065C172.812 203.315 170.695 205.565 168.976 208.345C166.992 211.522 165.405 214.831 163.95 218.405C162.495 221.979 161.305 225.685 160.776 229.391C160.379 232.171 160.247 235.083 161.437 237.73C161.966 237.333 162.627 237.069 163.156 236.671C162.627 235.745 163.156 234.289 163.421 233.362C163.95 231.509 164.876 229.656 165.802 227.803C167.786 224.097 170.166 220.39 172.944 217.346C173.87 216.419 174.928 215.228 176.25 215.096C178.367 214.831 180.218 216.684 181.938 217.478C184.318 218.67 186.567 218.537 189.08 218.14C192.387 217.611 195.561 217.081 198.735 216.419C207.465 214.566 216.855 211.919 223.997 206.227C228.23 202.918 231.272 198.285 231.404 192.858C231.536 187.563 229.023 182.533 226.114 178.298C222.543 173.268 218.046 169.032 213.152 165.193C206.274 159.766 198.074 155.928 192.122 149.442C184.98 141.5 180.483 131.837 179.292 121.115C177.705 107.085 178.234 92.5242 181.276 78.6258C182.864 71.478 184.715 64.0654 188.551 57.8442C190.403 54.7998 192.651 52.0201 194.9 49.2404C196.883 46.7254 199.132 44.3428 201.909 42.7544C204.687 41.0337 207.861 40.2395 211.036 40.3718C211.565 40.3718 211.961 39.8424 212.094 39.3129C212.491 34.8124 212.491 29.3854 208.126 26.7381C204.555 24.4878 200.19 26.4733 198.471 30.0472C197.545 32.0327 199.264 33.0917 199.793 31.9004Z" fill="#CF9C98"/>
<path d="M212.49 36.5329C222.278 68.0362 247.143 76.9047 266.983 101.79C281.928 120.586 305.339 124.689 325.311 120.586C340.521 117.541 354.938 108.805 370.016 104.305C385.094 99.8041 402.156 100.069 414.324 113.041C428.476 127.998 433.37 156.722 448.712 169.032C460.087 178.033 474.636 175.65 486.275 167.179C497.914 158.84 507.04 145.338 515.902 131.969C519.605 126.277 523.705 120.321 529.26 119.394C534.683 118.468 540.767 126.41 538.254 133.293C541.429 123.762 535.477 111.982 528.07 109.599C520.663 107.349 513.124 111.982 506.908 118.071C500.692 124.16 495.401 131.969 488.92 137.264C480.059 144.412 466.832 151.427 456.913 147.986C430.063 138.588 409.959 98.3481 382.977 90.4061C364.99 85.1115 355.202 87.7588 337.347 93.98C297.668 107.746 247.143 106.555 212.49 35.8711V36.5329Z" fill="#CF9C98"/>
<path d="M211.564 36.7977C215.665 49.9019 223.468 60.8884 233.256 70.4188C242.911 79.6844 253.492 87.8911 262.353 97.8186C264.866 100.598 267.115 103.643 269.76 106.422C272.141 108.937 274.786 111.188 277.696 113.173C283.251 117.012 289.6 119.791 296.081 121.38C309.704 124.689 323.856 123.101 336.95 118.468C352.16 113.041 366.709 104.172 383.11 102.849C390.12 102.319 397.394 103.246 403.743 106.422C410.091 109.599 414.985 114.629 418.821 120.453C426.228 131.572 430.328 144.544 437.073 156.192C440.115 161.487 443.686 166.517 448.58 170.223C454.267 174.591 461.41 176.444 468.552 175.65C484.027 173.929 495.666 161.752 504.66 149.971C509.818 143.22 514.183 135.94 519.076 129.057C521.193 126.013 523.705 122.704 527.144 121.115C530.319 119.659 533.361 120.85 535.477 123.498C537.593 126.145 538.387 129.719 537.196 133.028C537.858 133.16 538.519 133.425 539.048 133.558C541.164 126.939 539.445 119.527 535.345 114.1C531.245 108.673 524.764 106.82 518.283 109.07C510.479 111.849 504.792 118.6 499.501 124.689C496.592 127.998 493.814 131.44 490.64 134.484C487.73 137.264 484.291 139.646 480.852 141.764C474.371 145.603 466.039 149.442 458.367 147.588C452.416 146.132 446.861 142.294 442.099 138.588C431.254 130.116 422.26 119.527 412.604 109.864C403.611 100.995 393.691 92.3916 381.258 88.9501C373.851 86.9646 366.18 86.038 358.509 87.0969C350.573 88.1559 343.034 91.0679 335.495 93.5829C316.449 99.9365 295.816 102.319 276.241 96.6273C250.847 89.0824 232.197 68.8304 219.236 46.4604C217.119 42.7541 215.135 39.0479 213.284 35.2093C212.887 34.2827 211.432 34.8122 211.432 35.7387C211.432 36.0035 211.432 36.2682 211.432 36.5329C211.432 37.8566 213.416 37.8566 213.416 36.5329C213.416 36.2682 213.416 36.0035 213.416 35.7387C212.755 35.8711 212.226 36.1358 211.564 36.2682C223.468 60.4913 240.795 83.7878 266.189 94.9066C284.97 103.113 305.868 103.246 325.443 98.4805C338.272 95.3037 350.573 88.9501 364.064 88.553C371.603 88.2882 379.671 89.8766 386.681 92.7887C392.368 95.3037 397.526 98.8776 402.288 102.981C412.737 111.849 421.598 122.306 431.386 131.837C436.015 136.205 440.909 140.441 446.332 143.882C451.49 147.191 457.309 150.236 463.658 149.839C471.329 149.442 478.604 145.735 484.82 141.5C491.83 136.734 496.988 130.646 502.543 124.292C507.834 118.203 514.447 110.658 523.044 109.996C530.451 109.467 535.477 115.82 537.329 122.439C538.254 125.88 538.254 129.587 537.196 133.028C536.8 134.219 538.651 134.749 539.048 133.558C540.9 127.998 537.99 120.718 532.17 118.733C525.689 116.482 520.267 123.762 517.092 128.263C507.569 141.897 499.105 156.986 485.217 166.649C478.868 171.017 471.329 174.062 463.526 173.665C456.119 173.268 449.77 169.561 444.877 164.134C436.147 154.207 431.783 140.97 425.831 129.189C423.053 123.498 419.879 118.071 415.646 113.306C411.017 108.011 404.933 104.172 398.055 102.187C383.507 98.0834 368.825 102.981 355.467 108.54C347.399 111.849 339.463 115.688 330.998 118.071C324.253 120.056 317.243 121.115 310.233 120.983C296.345 120.85 282.457 116.085 272.405 106.422C269.628 103.775 267.379 100.863 264.999 97.951C262.75 95.3037 260.369 92.7887 257.856 90.4061C252.963 85.6409 247.805 81.1404 242.778 76.64C232.859 67.9038 223.336 58.6381 217.384 46.5928C215.797 43.2836 214.474 39.8421 213.284 36.4006C213.019 35.0769 211.168 35.6064 211.564 36.7977Z" fill="#CF9C98"/>
<path d="M203.893 13.3687C206.01 4.3678 218.839 0.661541 225.717 0.926274C232.594 1.19101 238.943 6.3533 244.63 11.7803C257.063 23.6933 281.664 35.7387 295.155 45.4014C307.059 54.1376 322.401 56.1231 337.876 55.8584C346.87 55.726 352.557 41.1657 360.096 34.415C373.852 21.9726 391.707 19.4576 407.579 25.1494C423.45 30.8411 437.602 44.2101 448.977 60.756C457.839 73.7279 465.642 89.0824 477.149 96.7597C487.73 103.907 500.427 103.643 511.802 99.2746C523.177 95.0389 533.625 86.9645 543.942 79.0225C537.461 86.1703 530.98 93.1858 524.499 100.334C518.812 106.555 512.86 113.041 505.982 116.218C494.079 121.777 480.588 117.144 469.742 108.276C458.897 99.407 449.903 86.6998 440.512 74.9192C431.121 63.1385 421.069 51.4903 409.034 46.5927C373.984 32.4295 332.85 74.6544 302.958 53.0787C286.955 41.5628 257.592 19.7223 239.604 18.3987C233.785 18.0016 227.965 19.9871 222.146 19.7223C216.326 19.4576 205.877 20.9136 203.497 13.5011L203.893 13.3687Z" fill="#CF9C98"/>
<path d="M204.819 13.6336C206.274 8.20658 211.432 5.02978 216.591 3.30902C222.146 1.58825 227.701 1.32352 232.859 4.10322C239.208 7.41238 243.837 12.9718 249.392 17.3399C254.55 21.4432 260.105 25.0171 265.66 28.4587C271.48 32.0326 277.432 35.4741 283.251 39.048C285.896 40.6364 288.409 42.2248 290.922 43.9455C293.568 45.6663 296.081 47.6518 298.858 49.2402C305.075 52.6817 311.952 54.7996 318.83 55.8585C322.401 56.388 325.84 56.7851 329.411 56.9175C332.585 57.0498 336.289 57.4469 339.463 56.7851C344.357 55.7262 347.796 51.3581 350.705 47.5194C354.409 42.6219 357.583 37.592 362.345 33.621C373.322 24.62 387.871 21.3109 401.627 24.4877C415.118 27.6645 426.624 36.2683 435.883 46.1958C440.909 51.6228 445.406 57.4469 449.506 63.6682C453.606 69.757 457.31 75.9783 461.542 81.9347C465.378 87.2294 469.478 92.3917 474.768 96.3627C480.323 100.598 487.069 102.981 494.079 103.378C509.289 104.04 522.912 95.8332 534.816 87.2294C537.99 84.8468 541.164 82.4642 544.339 80.0816C543.942 79.5521 543.545 79.0227 543.148 78.4932C537.197 84.9792 531.245 91.4651 525.293 98.0835C520.002 103.908 514.712 110.261 507.834 114.232C493.947 122.439 478.207 114.894 467.362 105.099C455.59 94.3772 446.729 80.8758 436.677 68.6981C427.947 58.1088 417.631 47.3871 403.743 43.9455C392.897 41.2982 381.523 43.2837 370.809 46.3281C359.699 49.5049 348.854 53.873 337.611 56.5204C327.427 58.903 316.449 59.6972 306.926 54.5349C302.165 52.0199 297.932 48.3136 293.568 45.2692C288.277 41.563 282.987 37.8567 277.564 34.4152C267.512 27.9292 256.799 21.3109 245.027 18.5312C242.382 17.8693 239.737 17.4722 236.959 17.6046C232.991 17.737 229.156 18.6635 225.188 18.9283C222.41 19.0606 219.5 19.0606 216.723 18.9283C214.078 18.9283 211.432 18.7959 208.919 17.8693C207.861 17.4722 206.803 16.9428 206.01 16.1486C205.613 15.7515 205.216 15.222 204.819 14.6925C204.687 14.4278 204.555 14.1631 204.422 13.8983C204.555 14.1631 204.29 14.1631 204.555 13.766C205.216 12.707 203.497 11.6481 202.835 12.707C201.645 14.5602 203.761 16.9428 205.216 18.1341C207.068 19.5901 209.448 20.2519 211.829 20.649C214.474 21.0461 216.987 21.0461 219.633 21.0461C223.071 21.0461 226.378 20.9138 229.685 20.5167C233.52 19.9872 237.356 19.4577 241.192 19.9872C243.705 20.3843 246.218 21.0461 248.598 21.8403C254.418 23.8258 260.105 26.6055 265.396 29.65C276.77 36.0036 287.484 43.6808 298.065 51.2257C302.429 54.4025 306.53 57.3146 311.688 59.0353C316.582 60.6237 321.872 60.8885 326.898 60.4914C350.176 58.6382 371.074 44.0779 394.749 45.0045C400.833 45.2692 406.917 46.7252 412.34 49.7697C419.086 53.4759 424.773 58.903 429.931 64.4624C440.777 76.3754 449.506 90.1415 460.748 101.79C470.536 112.114 484.291 122.042 499.369 119.527C506.644 118.336 512.728 113.835 517.886 108.673C523.97 102.716 529.658 96.098 535.345 89.8767C538.387 86.5676 541.429 83.2584 544.339 79.9492C545 79.1551 544.074 77.699 543.148 78.3609C530.848 87.7589 517.622 98.4806 501.882 100.996C494.343 102.187 486.54 101.26 479.794 97.554C473.71 94.2448 468.949 88.9502 464.716 83.3908C455.987 71.7425 449.242 58.7706 439.586 47.7842C430.592 37.592 419.747 28.591 406.785 24.0906C394.22 19.7225 380.068 20.5167 368.296 27.0026C362.609 30.0471 357.848 34.2828 353.88 39.3127C350.441 43.8132 347.531 48.9755 343.034 52.5494C340.653 54.4025 338.405 54.932 335.495 54.932C331.792 54.932 328.088 54.7996 324.385 54.5349C316.978 53.873 309.439 52.2846 302.562 49.1078C296.742 46.3281 291.716 42.2248 286.161 38.7833C280.474 35.2094 274.522 31.7678 268.835 28.3263C263.015 24.7524 257.328 21.1785 251.905 17.2075C246.482 13.1041 241.853 7.94185 236.166 4.10322C231.007 0.661686 225.717 -0.661979 219.633 0.396953C214.607 1.19115 209.448 3.30902 205.877 6.88291C204.158 8.60368 202.967 10.7215 202.306 13.1041C202.703 14.2954 204.555 14.8249 204.819 13.6336Z" fill="#CF9C98"/>
<path d="M203.893 19.3254C202.835 24.8848 212.623 28.0616 215.929 31.5031C222.146 37.7243 228.362 43.6808 234.446 50.2991C246.085 63.0063 267.247 65.6537 281.135 75.3164C285.5 78.2285 291.452 82.8613 299.387 81.2729C381.523 64.33 385.094 60.0943 415.382 78.758C424.244 84.3174 453.871 109.732 510.479 89.0826C479.398 95.039 470.536 97.4216 419.218 57.9764C402.42 45.0045 382.845 42.7542 364.064 48.446C352.293 52.0199 341.447 60.4914 329.808 65.1242C318.169 69.757 304.413 70.1541 295.287 59.1677C290.261 53.2112 286.822 48.5784 282.193 42.0924C276.506 34.2828 270.686 22.8993 263.015 20.1196C251.244 15.8838 215.665 20.649 203.497 22.2374" fill="#CF9C98"/>
<path d="M202.967 19.0605C202.042 24.6199 208.655 27.6643 212.49 30.1792C215.665 32.2971 218.178 35.3415 220.955 37.9889C224.262 41.1657 227.436 44.4748 230.61 47.784C233.256 50.5637 235.901 53.4758 238.943 55.726C241.72 57.8438 244.763 59.5646 247.805 61.0206C254.418 64.1974 261.295 66.7124 268.041 69.4921C271.215 70.8158 274.389 72.2718 277.299 74.1249C280.209 75.8457 282.722 77.9636 285.632 79.552C288.542 81.2727 291.848 82.464 295.287 82.464C299.784 82.5964 304.413 81.008 308.646 80.0814C322.798 77.1694 336.818 73.9926 350.97 71.2129C365.254 68.4332 380.994 64.8593 395.146 69.6245C407.182 73.5955 416.837 82.0669 427.815 87.8911C449.374 99.4069 474.239 100.201 497.517 93.9799C501.882 92.7886 506.115 91.465 510.215 90.0089C511.405 89.6118 511.008 87.8911 509.686 88.1558C502.543 89.4795 495.401 91.0678 488.127 91.465C481.514 91.7297 475.033 90.8031 468.684 88.5529C459.558 85.2437 451.225 80.0814 443.29 74.6544C437.47 70.8158 431.915 66.7124 426.36 62.4767C420.011 57.7115 413.927 52.8139 406.653 49.5048C393.823 43.813 379.539 43.1512 366.048 46.7251C358.773 48.5782 352.293 52.0197 345.679 55.5936C339.198 59.1675 332.718 63.1385 325.575 65.3887C319.623 67.2419 313.275 67.9037 307.191 66.1829C300.181 64.1974 295.816 59.0352 291.451 53.4758C286.954 47.784 282.722 41.9599 278.622 36.0034C275.315 30.9734 271.877 25.414 266.983 21.5754C263.544 18.9281 259.444 18.1339 255.211 17.7368C250.185 17.3397 245.159 17.3397 240.133 17.6044C229.42 18.0015 218.707 19.1928 208.126 20.5165C206.406 20.7812 204.687 20.9136 202.835 21.1783C201.645 21.3107 201.512 23.2962 202.835 23.1638C212.49 21.9725 222.146 20.7812 231.801 19.987C237.224 19.5899 242.779 19.3252 248.201 19.3252C252.434 19.3252 256.931 19.4576 261.163 20.6489C266.85 22.3696 270.686 27.7966 273.86 32.4295C277.828 38.1212 281.664 43.813 285.764 49.3724C289.864 54.7994 293.964 61.0206 299.784 64.8593C304.81 68.1684 310.894 69.3597 316.714 68.9626C331.13 67.9037 342.902 58.5057 355.467 52.5492C368.561 46.328 383.903 44.6072 397.923 48.4458C405.198 50.5637 411.943 54.0052 418.027 58.6381C424.111 63.2709 430.328 67.9037 436.544 72.4042C445.141 78.493 454.003 84.4495 463.658 88.5529C470.007 91.3326 476.62 93.0534 483.63 93.3181C490.508 93.4504 497.385 92.2592 503.998 91.0679C505.982 90.6708 507.966 90.2737 509.95 90.0089C509.818 89.3471 509.553 88.6852 509.421 88.1558C484.82 97.0243 457.442 99.804 433.238 88.6853C421.598 83.2582 411.679 74.6544 399.907 69.6245C394.484 67.3742 388.929 65.9182 383.11 65.6535C375.703 65.2564 368.164 66.3153 360.89 67.639C348.986 69.6245 337.214 72.2718 325.443 74.7868C317.11 76.5075 308.778 78.3607 300.445 80.0814C296.213 81.008 292.377 81.008 288.277 79.1549C285.367 77.8312 282.854 75.8457 280.209 74.1249C268.438 66.3153 254.021 63.668 242.117 56.1231C239.075 54.27 236.43 52.0197 234.049 49.3724C230.875 46.0632 227.701 42.7541 224.394 39.4449C221.352 36.5328 218.574 33.2237 215.268 30.444C213.152 28.7232 210.771 27.5319 208.522 25.9435C206.538 24.6199 203.761 22.6344 204.158 19.8547C205.084 18.3986 203.1 17.7368 202.967 19.0605Z" fill="#CF9C98"/>
<path d="M211.697 28.9881C215.664 42.7542 233.255 64.7271 241.324 74.2575C249.788 84.3173 264.47 80.4787 274.522 87.097C283.648 92.9212 292.774 98.8777 302.694 100.996C319.094 104.437 340.785 102.054 357.318 99.5395C374.909 96.8922 396.865 97.2893 407.711 102.187C416.837 106.29 422.524 111.585 428.344 128.528C426.095 108.938 415.382 92.6564 402.42 84.4497C389.458 76.243 374.777 75.3164 360.625 77.8314C346.605 80.3463 332.85 86.3028 319.227 91.3328C312.878 93.7154 306.265 95.8332 299.652 94.9067C291.054 93.583 283.516 86.9647 276.241 80.6111C264.602 70.4189 237.356 61.1532 225.716 50.961C219.632 45.5339 213.019 38.5185 211.3 28.7234L211.697 28.9881Z" fill="#CF9C98"/>
<path d="M210.771 29.2528C212.887 36.533 216.987 43.1513 221.087 49.3726C225.584 56.2556 230.61 62.7416 235.769 69.0952C237.885 71.6101 239.869 74.5222 242.249 76.7724C245.159 79.4198 248.73 81.0082 252.434 82.0671C256.402 83.126 260.369 83.6555 264.337 84.4497C268.702 85.3763 272.273 86.9647 276.109 89.4796C284.97 95.1714 294.097 100.731 304.545 102.584C314.201 104.305 324.253 104.172 334.04 103.51C343.695 102.849 353.218 101.128 362.873 100.069C372.396 99.01 382.184 98.7453 391.707 99.6719C398.981 100.334 405.991 101.922 412.208 105.893C418.027 109.599 421.731 115.423 424.508 121.645C425.566 124.027 426.492 126.41 427.286 128.925C427.682 129.851 429.402 129.851 429.27 128.66C427.286 112.247 419.35 96.098 406.123 86.0381C390.649 74.2575 370.677 74.1251 352.557 78.7579C342.24 81.4053 332.321 85.5086 322.401 89.2149C317.375 91.068 312.349 93.1859 307.058 93.9801C301.768 94.7743 296.742 93.8477 291.98 91.3328C284.177 87.2294 278.49 80.4787 271.083 75.7135C264.47 71.3454 257.327 67.9039 250.185 64.4623C236.43 57.5793 220.955 50.1668 214.21 35.3417C213.152 33.2238 212.49 30.8412 212.093 28.4586C211.829 28.591 211.3 28.8557 210.771 29.2528C210.771 29.3852 210.903 29.5176 211.035 29.6499C211.829 30.7089 213.152 29.2528 212.49 28.1939C212.358 28.0615 212.226 27.9292 212.226 27.7968C211.564 26.8702 210.374 27.9292 210.506 28.7234C213.416 44.475 227.965 54.5348 241.191 61.5503C248.466 65.3889 255.873 68.8304 263.015 72.8014C266.189 74.5222 269.363 76.3753 272.405 78.4932C275.844 81.0082 278.886 84.0526 282.325 86.6999C285.896 89.612 289.6 92.2593 293.964 93.9801C298.329 95.8332 302.958 96.3627 307.587 95.5685C312.878 94.7743 317.904 92.7888 322.93 90.9357C327.956 89.0825 332.85 87.097 337.876 85.2439C356.393 78.4932 377.29 73.3309 396.204 81.9347C411.943 89.0825 422.524 104.834 426.36 121.38C426.889 123.63 427.286 126.013 427.55 128.395C428.211 128.263 428.873 128.263 429.534 128.131C427.021 120.851 423.847 113.173 418.292 107.746C413.927 103.51 408.24 100.731 402.42 99.1424C393.823 97.0245 384.697 96.6274 375.835 96.8922C366.18 97.1569 356.657 98.7453 347.134 99.9366C337.082 101.128 326.766 101.922 316.714 101.525C311.82 101.26 306.926 100.863 302.165 99.6719C296.874 98.3482 291.98 96.098 287.219 93.4506C282.722 90.9357 278.49 87.7589 273.993 85.2439C270.554 83.3908 266.586 82.4642 262.75 81.67C258.782 80.8758 254.814 80.3463 250.979 79.0227C247.011 77.699 244.101 75.3164 241.456 72.1396C236.562 66.3155 231.801 60.2266 227.436 54.1378C222.674 47.5194 218.045 40.6364 214.739 33.0915C214.077 31.5031 213.548 30.047 213.019 28.3263C212.358 27.3997 210.374 27.9292 210.771 29.2528Z" fill="#CF9C98"/>
<path d="M211.036 27.6646C214.474 36.4007 236.033 47.5195 241.456 54.0055C251.111 65.5214 263.147 72.4044 275.051 79.0228C287.484 86.0382 300.313 93.186 313.672 94.3773C344.886 97.4217 375.968 68.8305 406.124 80.2141C408.769 81.273 411.547 82.5967 413.531 85.3764C414.456 86.5677 415.118 88.0237 415.779 89.4797C419.482 96.8923 423.054 104.305 426.757 111.717C430.857 119.924 434.957 128.263 440.38 134.881C449.903 146.397 463.262 151.427 475.694 148.383C488.127 145.206 499.369 133.955 505.321 118.6C490.375 126.145 473.314 124.954 458.897 115.424C443.422 105.099 431.651 86.1706 416.44 75.1841C395.014 59.8296 369.487 62.0799 345.68 66.448C321.872 70.816 297.271 76.7725 273.993 67.904C257.063 61.2857 221.749 47.6519 211.3 27.7969L211.036 27.6646Z" fill="#CF9C98"/>
<path d="M210.11 27.9292C211.565 31.5031 214.739 34.4152 217.649 36.7978C221.484 40.107 225.717 42.8866 229.817 45.7987C233.256 48.3137 236.959 50.6963 240.001 53.7407C242.118 55.8586 243.837 58.1088 245.953 60.2267C248.334 62.4769 250.847 64.5948 253.36 66.5803C258.518 70.5513 264.206 73.9928 269.893 77.1696C276.109 80.7435 282.326 84.3174 288.806 87.4942C295.155 90.671 301.768 93.3183 308.778 94.642C314.73 95.8333 320.682 95.8333 326.634 94.9067C338.67 93.1859 350.044 88.5531 361.551 84.7145C372.661 80.8759 384.433 77.4343 396.204 78.758C402.024 79.4198 409.563 81.1406 413.002 86.3029C415.118 89.3473 416.573 93.0536 418.16 96.3627C419.879 99.9366 421.599 103.378 423.318 106.952C429.402 119.13 434.957 132.896 445.803 141.764C454.664 148.912 466.436 152.354 477.546 148.912C488.259 145.603 496.724 136.999 502.147 127.337C503.734 124.557 505.057 121.777 506.247 118.865C506.644 117.938 505.454 117.409 504.792 117.806C494.211 123.101 482.175 124.027 470.933 120.321C460.087 116.747 451.622 109.07 443.819 100.996C436.148 93.0536 429.138 84.3174 420.673 77.302C412.076 70.2865 402.024 65.5213 391.178 63.5358C368.164 59.3001 345.283 66.0508 322.666 69.6247C309.969 71.6102 296.875 72.6691 284.31 69.8894C275.58 68.0363 267.115 64.33 259.047 60.7561C250.582 57.1822 242.118 53.0789 234.182 48.1813C226.775 43.5485 219.368 38.1215 214.342 30.9737C213.416 29.65 212.755 27.6645 211.432 26.7379C210.374 25.9437 209.449 27.6645 210.374 28.4587C210.771 28.7234 211.3 30.0471 211.565 30.5766C212.094 31.3708 212.623 32.2973 213.284 33.0915C214.475 34.6799 215.929 36.2683 217.384 37.7244C220.426 40.7688 223.865 43.5485 227.304 46.0634C235.108 51.6228 243.572 55.9909 252.17 59.9619C259.444 63.2711 266.983 66.3155 274.522 69.0952C286.426 73.4633 299.388 74.1252 311.953 72.8015C335.892 70.5513 359.303 62.3445 383.507 64.33C395.146 65.389 406.388 68.9629 415.911 75.8459C425.038 82.3319 432.18 91.0681 439.719 99.2748C447.126 107.349 455.194 115.424 465.246 120.056C475.562 124.689 487.201 125.748 498.047 122.439C500.692 121.645 503.205 120.586 505.718 119.395C505.189 118.997 504.792 118.6 504.263 118.336C499.899 129.19 492.492 139.514 481.911 144.941C471.462 150.236 459.426 148.912 449.771 142.426C438.396 134.749 432.444 121.512 426.625 109.599C423.186 102.716 419.879 95.7009 416.44 88.8178C415.118 86.0381 413.531 83.5232 410.885 81.6701C408.637 80.0817 405.859 79.1551 403.214 78.3609C380.465 71.7426 357.848 85.3763 336.421 91.0681C330.734 92.5241 325.047 93.583 319.227 93.7154C312.614 93.8478 306.001 92.5241 299.784 90.2739C292.907 87.7589 286.426 84.4497 280.077 80.8758C274.39 77.6991 268.57 74.5223 263.147 71.0807C257.592 67.6392 252.302 63.6682 247.54 59.1677C244.101 55.8586 241.324 52.1523 237.488 49.2402C230.082 43.4161 221.352 38.7833 214.871 31.7679C213.681 30.5766 212.623 29.1205 211.962 27.5321C211.565 26.2085 209.581 26.7379 210.11 27.9292Z" fill="#CF9C98"/>
<path d="M248.862 148.383C254.417 142.029 258.385 136.47 264.602 123.763C265.131 140.573 277.167 155.663 288.541 161.09C299.916 166.649 312.481 165.061 324.385 161.884C336.288 158.575 347.927 153.678 359.963 152.486C371.999 151.295 384.961 154.472 394.087 165.591C397.129 169.297 399.907 173.93 403.478 176.577C409.033 180.416 415.646 178.695 421.598 176.312C434.692 171.15 447.257 162.943 458.499 152.354C448.844 170.356 437.073 185.975 423.714 198.55C412.34 209.271 400.039 217.611 387.739 225.817C377.819 232.436 367.899 239.186 357.318 242.893C337.479 249.776 315.655 245.54 297.932 231.112C276.505 213.772 258.914 180.945 246.746 150.765L248.862 148.383Z" fill="#CF9C98"/>
<path d="M249.524 149.045C256.137 141.5 261.031 133.161 265.395 124.16C264.734 124.027 264.205 123.763 263.544 123.63C264.205 137.794 272.273 151.692 283.912 159.502C297.8 168.9 314.862 165.723 329.94 161.09C345.018 156.457 361.154 149.971 377.025 155.001C384.564 157.384 390.649 162.281 395.278 168.503C397.394 171.415 399.51 174.459 402.42 176.709C405.33 178.96 409.033 179.886 412.737 179.489C416.969 179.092 420.937 177.503 424.773 175.915C428.873 174.194 432.841 172.076 436.808 169.826C445.009 165.061 452.548 159.237 459.425 152.883C458.896 152.486 458.367 152.089 457.838 151.692C448.58 168.9 437.073 184.784 422.789 198.153C415.117 205.3 406.785 211.522 398.188 217.478C389.723 223.302 381.258 229.259 372.396 234.421C363.931 239.451 354.805 243.422 344.886 244.481C336.024 245.54 326.898 244.349 318.565 241.437C301.239 235.348 288.277 221.714 277.828 207.154C266.718 191.667 257.989 174.459 250.582 156.987C249.656 154.736 248.73 152.619 247.804 150.368C247.672 150.633 247.672 151.03 247.54 151.295C248.201 150.633 248.862 149.839 249.524 149.045C250.317 148.118 248.862 146.662 248.069 147.589C247.408 148.383 246.746 149.177 246.085 150.104C245.82 150.368 245.688 150.765 245.82 151.03C253.227 169.164 261.824 187.034 272.67 203.447C282.722 218.405 295.022 232.965 311.555 240.907C319.756 244.746 328.617 246.996 337.611 247.128C346.87 247.261 355.996 245.01 364.46 241.039C374.248 236.407 383.242 230.185 392.236 224.096C400.833 218.272 409.43 212.316 417.366 205.565C432.841 192.726 445.538 176.842 455.59 159.502C456.912 157.251 458.103 155.001 459.425 152.751C459.955 151.692 458.764 150.765 457.838 151.56C451.754 157.251 445.141 162.414 438.131 166.782C431.65 170.753 424.64 174.591 417.234 176.709C413.398 177.768 409.165 178.298 405.462 176.445C401.891 174.591 399.643 171.15 397.262 167.973C393.029 162.414 388.136 157.648 381.787 154.736C368.032 148.515 353.218 151.692 339.463 156.06C323.988 160.825 306.926 167.576 290.922 161.09C276.505 155.266 266.189 139.117 265.528 123.763C265.528 122.836 264.205 122.307 263.676 123.233C259.311 131.969 254.55 140.308 248.069 147.721C247.275 148.515 248.73 149.971 249.524 149.045Z" fill="#CF9C98"/>
<path d="M266.189 123.763C264.866 133.161 268.173 143.088 273.464 149.177C278.754 155.266 285.632 158.045 292.509 158.84C299.387 159.634 306.265 158.575 313.143 157.913C338.537 155.398 351.631 132.896 389.194 165.326C397.791 172.738 409.43 180.415 419.482 179.357C423.186 178.959 449.374 192.99 455.59 182.004C445.009 188.225 452.151 164.267 414.192 165.723C402.685 166.12 391.707 138.455 380.861 133.028C363.799 124.292 344.753 117.806 327.03 122.968C314.068 126.675 301.239 124.027 269.892 105.099C276.902 108.673 275.977 116.747 274.257 119.792C272.538 122.836 268.967 124.689 266.321 123.365L266.189 123.763Z" fill="#CF9C98"/>
<path d="M265.131 123.763C263.941 133.028 266.718 143.088 272.935 150.104C279.68 157.648 289.467 160.296 299.255 160.031C304.413 159.899 309.704 159.369 314.862 158.575C317.772 158.178 320.681 157.516 323.459 156.722C328.75 155.133 333.908 153.016 339.066 151.295C344.357 149.574 349.779 148.515 355.334 148.912C362.741 149.574 369.751 152.751 375.968 156.59C384.697 162.149 391.839 169.826 400.833 174.988C404.933 177.371 409.43 179.357 414.192 180.018C416.705 180.415 419.085 179.886 421.334 180.68C426.757 182.269 432.047 184.519 437.602 185.843C442.628 187.034 449.241 188.225 453.738 184.916C454.664 184.254 455.458 183.328 456.119 182.269C456.648 181.342 455.59 180.415 454.796 180.945C452.283 182.401 450.961 181.872 449.374 179.754C447.257 176.974 445.406 174.062 442.628 171.812C438.131 167.973 432.444 165.988 426.624 165.061C422.26 164.399 417.895 164.664 413.398 164.531C410.62 164.399 408.107 162.546 406.124 160.693C400.436 155.398 396.336 148.515 391.707 142.426C389.591 139.647 387.474 136.867 384.829 134.617C381.655 131.837 377.555 130.116 373.719 128.395C363.403 123.763 352.425 120.189 341.05 119.924C335.892 119.792 330.866 120.586 325.84 122.042C323.591 122.704 321.211 123.101 318.962 123.233C313.275 123.498 307.72 122.307 302.429 120.453C293.832 117.541 285.764 113.173 277.96 108.673C275.315 107.217 272.802 105.628 270.157 104.04C269.76 104.569 269.496 105.231 269.099 105.761C272.802 107.746 274.654 111.32 274.125 115.423C273.728 118.865 270.554 124.16 266.454 122.174C265.792 121.909 264.866 122.174 264.999 122.968C265.131 123.365 265.131 123.63 265.131 123.763C265.263 125.086 267.247 125.086 267.115 123.763C267.115 123.63 267.115 123.365 267.115 123.233C266.586 123.498 266.057 123.763 265.66 124.027C270.686 126.41 275.315 121.38 276.109 116.747C277.035 111.585 274.918 106.555 270.289 104.04C269.099 103.378 268.173 105.099 269.231 105.761C277.961 111.055 286.954 116.218 296.477 120.189C302.297 122.571 308.381 124.689 314.73 125.086C317.243 125.219 319.623 125.219 322.136 124.822C325.443 124.292 328.485 123.233 331.792 122.704C343.431 120.586 355.334 123.233 366.18 127.336C369.09 128.395 372 129.719 374.909 131.043C377.158 132.102 379.406 133.028 381.39 134.352C384.168 136.205 386.416 138.852 388.533 141.367C393.426 147.456 397.526 154.339 402.949 160.163C405.065 162.414 407.446 164.664 410.356 165.855C413.795 167.311 417.763 166.385 421.334 166.649C427.947 167.046 434.825 168.37 440.247 172.341C443.289 174.591 445.406 177.636 447.654 180.548C449.241 182.666 451.093 184.386 453.871 183.592C454.664 183.328 455.325 183.063 455.987 182.666C455.59 182.269 455.061 181.739 454.664 181.342C451.887 186.24 444.877 185.313 440.247 184.386C434.56 183.195 429.137 181.077 423.715 179.224C422.26 178.695 420.805 178.165 419.218 178.165C414.456 178.298 410.091 177.239 405.727 175.121C396.468 170.753 389.326 163.34 381.126 157.516C374.909 153.148 368.164 149.309 360.625 147.589C355.202 146.397 349.647 146.53 344.224 147.721C333.511 150.104 323.856 155.663 312.746 156.722C302.429 157.781 291.584 159.502 281.928 154.472C273.067 149.839 267.909 140.441 266.983 130.778C266.718 128.395 266.85 126.013 267.115 123.63C267.379 122.439 265.395 122.571 265.131 123.763Z" fill="#CF9C98"/>
<path d="M330.602 122.042C344.225 114.629 358.641 109.07 373.19 108.011C387.871 106.952 402.817 110.526 415.647 120.586C427.815 130.116 436.148 147.456 448.448 156.722C460.087 165.59 455.855 175.385 486.937 174.856C477.546 178.033 473.578 181.739 442.099 168.635C436.809 166.517 431.122 167.046 426.096 164.002C419.747 160.163 414.853 153.015 409.43 147.191C398.453 135.411 384.962 128.66 371.339 125.219C357.715 121.777 344.754 122.439 330.866 122.439L330.602 122.042Z" fill="#CF9C98"/>
<path d="M331.13 122.836C344.886 115.291 360.096 109.335 375.968 108.673C390.517 108.143 405.33 112.776 416.572 122.307C426.757 130.91 433.238 142.956 442.496 152.354C445.67 155.663 449.506 158.178 452.548 161.619C454.4 163.737 456.119 166.12 458.103 168.238C465.51 175.783 477.281 175.783 487.069 175.65C486.936 174.988 486.936 174.327 486.804 173.665C482.439 175.121 478.472 176.709 473.71 176.709C470.139 176.577 466.436 175.915 462.997 174.856C457.309 173.268 451.754 171.282 446.199 169.032C442.761 167.708 439.586 166.517 435.883 165.855C432.444 165.193 429.137 164.664 426.095 162.811C420.54 159.237 416.44 153.545 412.075 148.647C403.346 138.588 392.236 131.175 379.671 126.675C372.264 124.027 364.461 122.439 356.525 121.777C347.928 121.115 339.331 121.38 330.601 121.38C330.866 121.512 331.13 121.645 331.395 121.909C331.263 121.777 331.263 121.645 331.13 121.512C330.601 120.321 328.882 121.38 329.411 122.571C329.543 122.704 329.543 122.836 329.675 122.968C329.808 123.233 330.205 123.498 330.469 123.498C345.679 123.498 360.89 122.968 375.703 127.601C388.665 131.705 400.436 138.985 409.562 149.045C413.927 153.942 417.895 159.369 423.186 163.34C425.831 165.326 428.608 166.517 431.783 167.179C435.354 167.973 438.793 168.37 442.099 169.694C451.49 173.532 461.277 177.636 471.462 178.562C474.239 178.827 477.149 178.695 479.794 177.9C482.175 177.371 484.556 176.312 486.804 175.518C487.862 175.121 487.73 173.532 486.54 173.532C477.546 173.665 466.303 173.929 459.426 167.179C457.309 165.193 455.722 162.678 453.738 160.56C450.829 157.119 447.125 154.736 443.951 151.56C434.428 142.162 427.947 130.116 417.895 121.248C407.182 111.85 393.162 106.952 379.142 106.555C361.551 106.158 344.753 112.644 329.543 120.983C329.014 121.777 330.072 123.498 331.13 122.836Z" fill="#CF9C98"/>
<path d="M202.042 94.9069C191.46 84.3176 177.573 81.935 165.008 85.6412C166.066 106.687 172.944 115.424 185.773 115.159C188.683 115.159 191.328 113.968 193.444 111.982C197.809 107.879 200.058 105.099 202.042 94.9069Z" fill="white" stroke="white" stroke-width="0.5" stroke-miterlimit="10"/>
<path d="M207.332 94.9068C207.861 98.2159 206.803 104.967 215.532 112.114C217.649 113.835 220.294 114.894 223.071 115.424C243.44 118.997 247.011 108.673 249.656 88.4208C232.991 83.5232 214.739 83.1261 207.332 94.9068Z" fill="white" stroke="white" stroke-width="0.5" stroke-miterlimit="10"/>
<path d="M200.587 95.4363C201.91 94.1127 206.936 94.1127 208.258 95.4363" stroke="white" stroke-width="2" stroke-miterlimit="10" stroke-linecap="round" stroke-linejoin="round"/>
<path d="M248.863 93.5832L249.656 88.2886H252.302C255.608 90.1417 257.857 91.8625 258.915 93.5832H248.863Z" fill="white" stroke="white" stroke-width="0.5" stroke-miterlimit="10"/>
</svg>
