<svg width="585" height="429" viewBox="0 0 585 429" fill="none" xmlns="http://www.w3.org/2000/svg">
<g clip-path="url(#clip0)">
<path d="M155.674 183.592C162.287 190.608 174.323 188.755 182.126 194.446C186.888 197.888 189.269 203.712 191.385 209.272C193.765 215.36 196.146 221.582 196.146 228.068C196.014 235.48 192.707 242.496 189.401 249.246C182.92 262.351 176.307 275.72 165.726 285.912C148.928 302.193 122.608 307.885 100.52 300.075L100.388 299.81C97.3456 299.678 94.4359 297.692 92.981 294.913C93.3777 295.707 97.8747 296.236 98.9328 296.501C101.181 296.898 103.43 297.163 105.678 297.295C110.307 297.428 114.804 296.898 119.301 295.707C128.163 293.324 136.363 287.5 142.447 280.749C146.151 276.646 149.061 271.484 149.59 265.924L149.986 266.851C153.954 251.496 163.477 230.847 173.529 218.802C174.984 217.081 176.571 215.228 177.629 213.243C178.688 211.257 179.349 208.742 178.82 206.492C178.158 203.58 175.645 201.462 172.868 200.403C170.09 199.344 167.181 199.212 164.139 199.079C158.187 198.815 152.235 198.55 146.283 198.285C150.383 194.579 153.69 189.946 155.806 184.916" fill="#CF9C98"/>
<path d="M155.145 183.99C159.113 188.093 164.932 189.284 170.223 190.475C173 191.137 175.778 191.799 178.423 192.99C181.201 194.314 183.581 196.3 185.433 198.815C187.285 201.462 188.607 204.374 189.798 207.418C191.12 210.86 192.575 214.169 193.633 217.743C194.691 221.317 195.485 225.156 195.221 228.994C195.088 232.7 194.03 236.274 192.708 239.716C191.385 243.157 189.665 246.599 188.078 249.908C186.491 253.085 184.904 256.262 183.317 259.438C180.01 265.66 176.439 271.749 172.207 277.308C168.239 282.603 163.477 287.368 158.055 291.206C153.029 294.78 147.474 297.56 141.522 299.546C129.75 303.517 116.788 304.046 104.753 300.737C103.298 300.34 101.843 299.943 100.52 299.413C100.652 299.546 100.785 299.678 100.917 299.81C100.917 299.678 100.917 299.678 100.785 299.546C100.652 299.281 100.52 299.016 100.123 299.016C97.2135 298.751 94.7005 297.031 93.3779 294.516C92.9811 294.78 92.5843 294.913 92.1875 295.177C92.8488 296.236 94.8328 296.369 96.0231 296.633C97.8748 296.898 99.5942 297.295 101.446 297.428C107.001 298.09 112.821 297.692 118.376 296.369C128.031 293.986 136.76 287.897 143.241 280.352C146.812 276.249 149.59 271.219 149.987 265.66C149.59 265.66 149.061 265.792 148.664 265.792C148.796 266.057 148.928 266.322 149.061 266.719C149.325 267.248 150.119 267.38 150.383 266.719C153.69 254.011 158.98 241.834 165.726 230.583C167.313 227.803 169.165 225.156 171.016 222.508C173 219.861 175.249 217.478 177.1 214.831C178.952 212.051 180.275 208.61 179.084 205.301C178.026 202.388 175.513 200.403 172.736 199.476C168.768 198.02 164.139 198.153 159.906 198.02C155.277 197.756 150.648 197.623 146.151 197.359C146.283 197.756 146.415 198.153 146.68 198.55C150.78 194.844 154.087 190.211 156.335 185.048C156.732 184.254 155.542 183.592 155.145 184.387C153.029 189.417 149.722 193.917 145.754 197.623C145.357 198.02 145.622 198.682 146.283 198.815C150.251 198.947 154.219 199.212 158.187 199.344C162.022 199.476 165.858 199.476 169.694 200.138C172.868 200.668 176.175 202.124 177.762 205.168C179.481 208.345 177.894 212.051 176.042 214.831C174.191 217.346 172.074 219.596 170.223 222.111C168.371 224.626 166.784 227.141 165.197 229.656C161.758 235.215 158.848 241.172 156.335 247.128C153.558 253.482 151.177 259.968 149.457 266.586C149.854 266.586 150.251 266.586 150.78 266.586C150.648 266.322 150.516 266.057 150.383 265.66C150.119 264.998 149.193 265.13 149.061 265.792C148.664 270.557 146.415 274.925 143.506 278.499C140.596 282.073 137.025 285.382 133.189 288.03C129.353 290.809 125.253 293.06 120.756 294.516C115.73 296.104 110.308 296.766 105.017 296.501C102.636 296.369 100.388 295.972 98.0071 295.575C97.2135 295.442 96.2877 295.31 95.4941 295.177C95.0973 295.045 93.9069 294.913 93.6424 294.516C93.2456 293.721 92.0552 294.383 92.452 295.177C94.0392 298.222 97.0812 300.075 100.388 300.34C100.123 300.207 99.991 300.075 99.7265 299.81C99.991 300.472 100.256 300.472 100.917 300.737C101.71 301.002 102.504 301.266 103.298 301.531C104.885 301.928 106.472 302.325 108.059 302.722C111.101 303.384 114.275 303.781 117.318 303.914C123.666 304.311 130.147 303.649 136.363 302.193C149.061 299.281 160.568 292.53 169.297 283C174.191 277.705 178.159 271.616 181.73 265.395C185.301 259.041 188.607 252.423 191.782 245.805C195.088 238.922 197.601 231.642 196.675 223.832C196.146 219.993 194.956 216.287 193.633 212.581C192.443 209.404 191.253 206.095 189.665 202.918C188.211 200.006 186.491 197.094 184.11 194.844C181.994 192.858 179.349 191.534 176.571 190.608C171.016 188.755 164.8 188.49 159.642 185.446C158.451 184.784 157.261 183.857 156.335 182.798C155.542 182.401 154.616 183.328 155.145 183.99Z" fill="#CF9C98"/>
<path d="M92.0552 295.575C90.7325 298.222 87.8227 299.943 84.913 300.207C82.0032 300.472 78.9611 299.545 76.4481 298.089C73.9351 296.501 71.8189 294.516 69.835 292.265C73.4061 292.133 76.9772 291.868 80.6805 291.736H80.1515C81.2096 291.604 82.2677 292.133 83.0613 292.662C83.9871 293.324 84.6484 293.986 85.5743 294.648C87.5582 295.839 90.2035 295.972 92.3197 294.913" fill="#CF9C98"/>
<path d="M91.5259 295.177C89.542 299.016 85.045 300.207 81.2094 299.281C76.7125 298.222 73.4059 295.045 70.3638 291.736C70.2316 292.133 70.0993 292.53 69.8348 292.927C73.4059 292.795 76.977 292.53 80.6804 292.398C81.4739 292.398 81.4739 291.074 80.6804 291.074C80.5481 291.074 80.4158 291.074 80.1513 291.074C80.1513 291.471 80.1513 292.001 80.1513 292.398C82.6643 292.265 84.2515 294.913 86.3677 295.707C88.4839 296.501 90.7324 296.369 92.7163 295.442C93.5099 295.045 92.8486 293.986 92.055 294.251C90.071 295.177 87.558 295.045 85.7064 293.854C83.9869 292.662 82.3998 290.809 80.1513 291.074C79.3577 291.074 79.2255 292.398 80.1513 292.398C80.2836 292.398 80.4158 292.398 80.6804 292.398C80.6804 292.001 80.6804 291.471 80.6804 291.074C77.1092 291.206 73.5381 291.471 69.8348 291.603C69.3057 291.603 68.9089 292.265 69.3057 292.795C72.6123 296.369 76.5802 299.943 81.6062 300.869C85.8386 301.531 90.6001 300.075 92.584 295.972C92.9808 295.177 91.9227 294.516 91.5259 295.177Z" fill="#CF9C98"/>
<path d="M188.475 254.938C193.104 264.336 197.733 273.734 202.362 283C204.346 286.971 206.198 290.809 208.05 294.78C209.901 298.751 211.489 302.722 213.076 306.826C214.134 309.738 215.192 313.312 213.472 315.959C211.621 318.871 207.653 319.268 204.214 319.533C189.665 320.857 175.645 326.416 164.138 335.285C162.022 337.005 159.906 338.726 157.525 340.05C155.144 341.241 152.235 342.035 149.722 341.241C147.076 340.579 144.828 338.197 144.828 335.417C144.828 332.77 146.944 330.519 149.193 329.196C151.573 328.004 154.219 327.475 156.732 326.548C163.08 324.298 168.371 319.401 171.148 313.312C162.419 319.003 153.69 324.828 144.828 330.519C144.431 323.769 144.167 317.15 143.77 310.4C143.638 308.679 143.638 306.958 144.299 305.37C145.357 302.855 148.134 301.399 150.515 300.075C159.245 295.178 166.651 288.162 172.868 280.22C179.084 272.278 183.978 263.542 188.739 254.673L188.475 254.938Z" fill="#CF9C98"/>
<path d="M187.814 255.335C193.765 267.38 199.982 279.426 205.669 291.736C207.124 294.78 208.447 297.692 209.769 300.737C210.96 303.517 212.282 306.429 213.076 309.341C213.869 311.856 214.002 314.9 211.753 316.886C209.901 318.342 207.388 318.739 205.14 318.871C199.453 319.401 193.898 320.327 188.475 322.048C182.92 323.769 177.629 326.019 172.736 328.799C170.223 330.255 167.842 331.711 165.461 333.431C163.08 335.152 160.832 337.138 158.451 338.726C155.938 340.314 152.896 341.506 149.854 340.712C147.473 340.182 145.357 338.064 145.357 335.549C145.357 332.77 147.738 330.784 149.986 329.725C152.632 328.401 155.541 328.004 158.319 326.813C162.948 324.828 167.048 321.386 169.826 317.15C170.487 316.091 171.148 315.032 171.677 313.841C171.942 313.312 171.413 312.517 170.752 312.915C162.022 318.606 153.293 324.43 144.431 330.122C144.828 330.255 145.093 330.519 145.489 330.652C145.093 323.901 144.828 317.018 144.431 310.267C144.299 308.811 144.299 307.223 144.828 305.767C145.357 304.575 146.283 303.649 147.341 302.855C149.457 301.266 151.97 300.207 154.219 298.751C164.138 292.398 171.942 283.397 178.555 273.734C182.523 267.778 186.094 261.556 189.401 255.203C189.665 254.673 189.268 254.144 188.607 254.276C188.475 254.276 188.475 254.276 188.343 254.276C187.549 254.409 187.814 255.732 188.739 255.6C188.872 255.6 188.872 255.6 189.004 255.6C188.739 255.335 188.475 254.938 188.21 254.673C182.258 265.792 175.91 276.911 167.313 286.177C163.345 290.545 158.848 294.383 153.954 297.692C151.706 299.148 149.193 300.34 146.944 301.928C144.828 303.384 143.373 305.37 143.241 308.017C143.109 309.87 143.241 311.723 143.373 313.444C143.505 315.43 143.505 317.283 143.638 319.268C143.77 323.107 144.034 327.078 144.167 330.916C144.167 331.446 144.696 331.843 145.225 331.446C153.954 325.754 162.684 319.93 171.545 314.238C171.281 313.973 170.884 313.576 170.619 313.312C168.371 318.342 164.403 322.445 159.509 324.96C156.732 326.416 153.822 326.945 150.912 328.004C148.531 328.931 146.018 330.387 144.828 332.77C143.638 335.02 144.034 337.535 145.622 339.52C147.341 341.506 149.986 342.432 152.632 342.3C155.674 342.035 158.451 340.579 160.832 338.858C163.345 337.005 165.593 335.02 168.106 333.299C178.158 326.416 189.93 321.915 201.966 320.459C206.463 319.93 213.076 320.062 214.795 314.768C215.589 312.12 214.663 309.076 213.737 306.561C212.547 303.384 211.356 300.34 210.034 297.295C207.256 290.809 204.082 284.588 200.908 278.367C197.733 272.013 194.559 265.66 191.517 259.306C190.723 257.718 189.93 256.129 189.136 254.541C188.607 253.879 187.549 254.541 187.814 255.335Z" fill="#CF9C98"/>
<path d="M32.2723 306.296V306.561C40.0758 316.489 47.8794 326.284 55.6829 336.211C56.8733 337.667 57.9314 339.123 58.3282 340.976C58.9895 344.683 55.9474 347.992 53.1699 350.639C51.5827 352.095 49.4665 353.816 47.3503 353.154C46.1599 352.757 45.2341 351.83 44.3083 350.771C39.0177 344.55 33.9917 338.064 29.4948 331.181C27.6431 328.534 25.7914 325.622 25.1301 322.445C24.3365 319.268 24.8656 315.562 27.2463 313.312C28.4367 312.12 29.8916 311.459 31.2142 310.4C35.1821 307.091 29.7593 304.708 29.6271 301.531C29.6271 300.207 30.4206 298.884 31.2142 297.825C34.5208 293.06 37.6951 288.294 41.0017 283.397L41.134 282.867C41.134 284.588 43.1179 285.382 43.9115 286.706C44.9696 288.427 45.8954 288.427 47.2181 289.353C49.8633 291.207 52.1118 294.119 53.1699 297.163C55.0216 302.458 56.6087 307.885 59.6508 312.65C63.2219 318.209 68.5124 322.71 74.7288 324.96C76.1837 325.489 77.7708 326.019 79.0935 327.078C80.4161 328.137 81.0774 329.99 80.2838 331.446C79.8871 332.24 79.0935 332.77 78.4322 333.167C74.332 335.946 70.2318 338.726 66.2639 341.373C64.9413 342.3 63.4864 343.227 61.8993 343.359C60.3121 343.491 58.4604 342.432 58.3282 340.844" fill="#CF9C98"/>
<path d="M31.6109 306.296C31.6109 307.223 32.5367 307.885 33.0658 308.547C33.9916 309.605 34.7852 310.797 35.711 311.856C37.4304 313.974 39.1499 316.091 40.8693 318.342C44.3081 322.577 47.6147 326.945 51.0536 331.181C52.773 333.299 54.4924 335.417 56.0796 337.535C57.5345 339.388 58.328 341.506 57.5345 343.888C56.8731 346.006 55.286 347.727 53.6988 349.183C52.2439 350.639 50.1277 352.889 47.8792 352.492C46.8211 352.36 45.8953 351.433 45.234 350.639C44.3081 349.58 43.5146 348.654 42.721 347.595C41.0016 345.477 39.4144 343.491 37.695 341.373C34.5207 337.27 31.4786 333.167 28.7011 328.799C26.3203 325.092 24.3364 320.327 26.3203 315.959C27.3784 313.841 29.2301 312.782 31.0818 311.459C32.4044 310.532 33.4626 309.208 33.198 307.488C32.9335 305.899 31.6109 304.708 30.8173 303.384C30.2882 302.59 30.0237 301.663 30.2882 300.737C30.685 299.413 31.6109 298.222 32.4044 297.163C34.1239 294.648 35.8433 292.133 37.5627 289.618C38.3563 288.294 39.2821 287.103 40.0757 285.779C40.6048 284.985 41.2661 284.191 41.5306 283.132C41.1338 283.132 40.6048 283 40.208 283C40.3402 284.191 41.0016 284.985 41.7951 285.779C42.1919 286.177 42.721 286.574 42.9855 287.103C43.3823 287.633 43.6468 288.162 44.1759 288.559C44.9695 289.221 46.0276 289.618 46.9534 290.28C48.1438 291.206 49.3341 292.398 50.26 293.589C52.1117 296.104 52.9052 299.281 53.9633 302.193C55.0215 305.105 56.0796 308.149 57.6667 310.929C60.312 315.959 64.4121 320.327 69.3059 323.239C70.4962 324.033 71.8189 324.695 73.1415 325.225C74.4641 325.754 75.919 326.151 77.2417 326.945C78.432 327.607 79.6224 328.666 79.7547 330.122C79.8869 331.843 78.0352 332.637 76.8449 333.431C73.5383 335.682 70.0995 337.932 66.7929 340.182C65.338 341.109 63.7508 342.432 62.0314 342.697C60.5765 342.962 58.8571 342.3 58.5926 340.712C58.4603 339.917 57.1377 340.182 57.2699 341.109C57.6667 343.888 61.1056 344.55 63.354 343.624C64.9412 342.962 66.3961 341.903 67.851 340.844C69.4381 339.785 70.893 338.726 72.4802 337.667C74.0674 336.608 75.7868 335.417 77.3739 334.358C78.5643 333.564 80.0192 332.77 80.6805 331.446C81.8709 328.666 79.3579 326.151 77.1094 325.225C75.6545 324.563 74.0674 324.166 72.7447 323.372C71.4221 322.71 70.0995 322.048 68.9091 321.121C66.3961 319.401 64.0153 317.283 62.1637 314.9C57.799 309.473 56.0796 302.855 53.6988 296.501C52.5085 293.324 50.26 290.412 47.4825 288.559C46.9534 288.162 46.2921 287.897 45.763 287.5C45.1017 287.103 44.7049 286.574 44.3081 285.912C43.5146 284.853 41.7951 283.926 41.6629 282.47C41.6629 281.808 40.6048 281.544 40.3402 282.338C40.0757 283.264 39.2821 284.059 38.7531 284.985C37.9595 286.177 37.0337 287.368 36.2401 288.692C34.6529 291.074 33.0658 293.457 31.4786 295.707C30.2882 297.56 28.4366 299.546 28.9656 301.928C29.2301 303.384 30.4205 304.576 31.2141 305.899C31.6109 306.429 32.0077 307.09 31.8754 307.752C31.8754 308.679 31.0818 309.341 30.4205 309.87C28.5688 311.326 26.5849 312.253 25.3945 314.371C23.146 318.342 24.2041 323.239 26.3203 327.078C27.5107 329.328 29.0979 331.446 30.5528 333.564C32.1399 335.814 33.7271 338.064 35.4465 340.315C37.0337 342.432 38.7531 344.55 40.3402 346.668C41.2661 347.727 42.1919 348.918 42.9855 349.977C43.7791 350.904 44.4404 351.83 45.4985 352.625C47.3502 354.081 49.4664 353.816 51.3181 352.625C53.302 351.433 55.0215 349.58 56.4763 347.859C57.799 346.271 58.8571 344.418 59.1216 342.3C59.2539 339.917 58.0635 337.932 56.7409 336.079C49.7309 326.945 42.5887 318.077 35.4465 309.076C34.5207 308.017 33.7271 306.826 32.8012 305.767C32.8012 305.899 32.9335 306.032 32.9335 306.296C32.9335 306.164 32.9335 306.164 32.9335 306.032C32.9335 305.502 31.6109 305.502 31.6109 306.296Z" fill="#CF9C98"/>
<path d="M50.2599 290.942C52.3761 289.618 54.4923 288.294 56.6085 286.971C56.2117 289.221 58.5925 291.074 60.8409 291.603C63.0894 292.133 65.4702 291.868 67.7186 292.795C70.6284 293.986 72.4801 297.03 74.8608 299.148C79.8868 303.649 88.4839 303.516 93.3777 298.751C96.4197 302.193 101.71 302.325 106.339 302.193C115.598 301.928 124.856 301.663 134.115 301.266C136.363 301.134 146.812 297.295 145.357 299.016C142.844 301.928 139.273 306.561 142.58 309.605C145.754 312.782 142.712 318.606 142.844 323.107C142.844 325.622 142.844 328.269 141.521 330.387C139.802 333.167 136.099 334.225 132.792 334.093C124.856 333.961 117.45 329.328 109.514 329.328C105.017 329.328 100.652 330.784 96.2875 330.652C92.7164 330.519 89.2775 329.46 85.8387 328.269C82.1353 327.078 78.4319 325.754 75.1254 324.033C68.6445 320.592 63.3539 314.768 60.4442 308.017C59.1215 304.84 58.1957 301.531 56.6085 298.486C55.0214 295.442 52.6406 292.662 49.4663 291.603L50.2599 290.942Z" fill="#CF9C98"/>
<path d="M50.5245 291.471C52.6407 290.147 54.7569 288.824 56.8731 287.5C56.4763 287.368 56.2118 287.103 55.815 286.971C55.4182 290.015 58.5925 292.001 61.2378 292.398C62.9572 292.662 64.8089 292.662 66.5283 293.192C68.1155 293.589 69.3058 294.648 70.4962 295.839C72.6124 297.957 74.3318 300.34 77.1094 301.663C79.6224 302.855 82.3999 303.384 85.1774 303.119C88.3517 302.855 91.2615 301.531 93.51 299.413C93.2455 299.413 92.8487 299.413 92.5842 299.413C94.5681 301.663 97.4779 302.59 100.388 302.855C103.827 303.252 107.398 302.987 110.969 302.855C115.069 302.722 119.301 302.59 123.401 302.458C125.518 302.458 127.502 302.325 129.618 302.325C131.205 302.325 132.792 302.325 134.379 302.193C136.231 301.928 137.95 301.266 139.67 300.869C141.257 300.34 142.976 299.81 144.696 299.678H144.96C144.828 299.81 144.431 299.016 144.564 299.016C144.431 299.016 143.638 300.207 143.373 300.472C142.447 301.663 141.522 302.855 140.992 304.311C140.463 305.502 140.067 306.958 140.463 308.282C140.86 309.738 142.051 310.4 142.58 311.723C143.902 314.371 142.58 317.812 142.183 320.592C141.918 322.048 141.918 323.504 141.918 325.092C141.918 326.945 141.786 328.798 140.86 330.387C139.273 333.167 135.702 334.093 132.792 334.093C129.221 334.093 125.65 333.034 122.211 331.975C118.772 330.916 115.333 329.857 111.762 329.46C107.927 329.063 104.223 329.857 100.388 330.387C98.4037 330.652 96.4198 330.784 94.4358 330.519C92.4519 330.255 90.468 329.725 88.6163 329.196C84.9129 328.004 81.0773 326.813 77.5062 325.225C71.2898 322.445 66.1315 317.944 62.5604 312.12C60.7087 308.944 59.5184 305.502 58.1957 302.193C57.0054 299.148 55.5505 296.104 53.0375 293.986C51.8471 292.927 50.6567 292.133 49.2018 291.736C49.2018 292.133 49.3341 292.53 49.3341 292.927C49.8632 292.001 50.1277 291.736 50.5245 291.471C51.1858 291.074 50.5245 289.883 49.8632 290.28C49.4664 290.545 49.2018 290.677 48.8051 290.942C48.276 291.206 48.4083 292.001 48.9373 292.133C56.2118 294.516 57.2699 303.649 60.1797 309.605C63.2217 315.562 67.9832 320.724 73.8028 324.033C77.1094 326.019 80.8127 327.21 84.5161 328.534C88.2195 329.725 91.9228 331.049 95.8907 331.181C99.9909 331.313 103.959 330.122 107.927 329.857C111.63 329.593 115.333 330.519 118.905 331.578C122.476 332.637 125.914 333.828 129.618 334.358C132.792 334.755 136.099 334.755 139.009 333.167C142.051 331.578 143.241 328.401 143.373 325.092C143.373 323.504 143.373 321.915 143.638 320.195C143.902 318.606 144.299 317.018 144.431 315.429C144.564 314.106 144.696 312.65 144.299 311.326C144.167 310.664 143.902 310.135 143.505 309.605C142.976 308.943 142.315 308.414 142.051 307.62C140.86 304.84 143.902 301.399 145.489 299.413C145.886 298.884 146.415 298.222 145.622 297.692C145.225 297.428 144.431 297.56 144.035 297.692C142.051 298.089 140.199 298.619 138.347 299.148C137.421 299.413 136.363 299.678 135.437 299.943C134.512 300.207 133.718 300.207 132.792 300.207C128.56 300.34 124.327 300.472 120.095 300.604C115.862 300.737 111.63 300.869 107.398 301.001C104.223 301.134 100.784 301.266 97.6102 300.207C96.1553 299.678 94.8326 298.884 93.7745 297.825C93.51 297.56 93.1132 297.56 92.8487 297.825C89.013 301.399 83.0612 302.325 78.2997 300.075C75.7867 298.884 74.0673 296.898 72.2156 294.913C71.2898 293.854 70.3639 292.927 69.1736 292.265C67.8509 291.471 66.3961 291.074 64.9412 290.942C63.2217 290.677 61.3701 290.809 59.7829 290.015C58.328 289.353 57.1376 288.162 57.2699 286.441C57.2699 285.912 56.6086 285.647 56.2118 285.912C54.0956 287.235 51.9794 288.559 49.8632 289.883C49.2018 290.809 49.8632 292.001 50.5245 291.471Z" fill="#CF9C98"/>
<path d="M159.377 339.653C161.758 342.697 164.006 345.741 166.387 348.786C167.18 349.845 168.371 351.036 169.693 350.771C170.619 350.639 171.148 349.845 171.81 349.183C176.042 344.153 181.597 340.182 187.813 338.064C191.12 337.667 194.294 337.27 197.601 337.005C199.982 336.74 202.362 336.476 204.875 336.211C205.801 336.079 206.727 335.946 207.653 335.549C208.579 335.152 209.24 334.49 209.504 333.564C209.901 331.843 208.314 330.387 207.256 329.063C205.404 326.813 204.611 323.636 205.14 320.724C195.485 322.18 185.697 323.769 176.703 327.74C170.09 330.652 164.006 335.02 158.98 340.314L159.377 339.653Z" fill="#CF9C98"/>
<path d="M158.715 339.917C160.567 342.3 162.287 344.682 164.138 346.933C165.329 348.521 166.784 351.168 169.032 351.433C170.09 351.566 171.016 350.904 171.677 350.242C172.471 349.448 173.132 348.521 173.926 347.727C175.645 346.006 177.497 344.418 179.613 342.962C181.597 341.638 183.713 340.447 185.962 339.52C186.491 339.255 187.02 338.991 187.681 338.858C188.475 338.594 189.268 338.594 190.062 338.594C191.517 338.461 192.972 338.196 194.427 338.064C197.336 337.799 200.246 337.402 203.024 337.138C205.272 336.873 208.05 336.873 209.372 334.887C210.959 332.637 209.108 330.519 207.653 328.798C205.801 326.548 205.008 323.636 205.404 320.856C205.537 320.327 205.14 319.93 204.611 320.062C197.601 321.121 190.723 322.18 183.978 324.298C177.761 326.151 171.677 328.931 166.387 332.769C163.477 334.887 160.699 337.27 158.186 339.785C157.657 340.314 158.319 341.241 158.98 340.844C159.244 340.711 159.509 340.447 159.641 340.314C160.303 339.785 159.641 338.726 158.98 339.123C158.715 339.255 158.451 339.52 158.319 339.653C158.583 340.05 158.848 340.314 159.112 340.711C163.477 336.211 168.503 332.372 174.19 329.46C180.274 326.416 186.888 324.563 193.501 323.239C197.336 322.445 201.172 321.915 205.008 321.254C204.743 320.989 204.479 320.724 204.214 320.459C203.817 322.577 204.082 324.695 205.008 326.813C205.404 327.74 205.933 328.666 206.595 329.46C207.256 330.254 208.05 331.049 208.579 332.108C209.769 335.02 205.537 335.417 203.817 335.682C201.04 335.946 198.394 336.343 195.617 336.608C194.294 336.74 192.972 336.873 191.781 337.005C190.459 337.138 189.004 337.138 187.681 337.535C186.755 337.799 185.697 338.329 184.771 338.726C183.713 339.255 182.655 339.785 181.597 340.314C177.761 342.565 174.19 345.477 171.413 348.918C170.619 349.845 169.693 350.904 168.371 349.977C167.313 349.183 166.519 347.859 165.725 346.8C163.874 344.418 162.022 341.903 160.17 339.52C159.377 338.594 158.186 339.255 158.715 339.917Z" fill="#CF9C98"/>
<path d="M89.1454 231.641C89.939 227.141 92.981 223.17 97.0812 221.052C101.578 218.802 107.133 219.199 111.366 221.846C111.233 221.582 111.101 221.317 111.101 221.052C110.175 225.553 107.133 229.524 102.901 231.509C98.2715 233.759 92.7165 233.23 88.4841 230.45C87.8228 229.921 87.1614 231.112 87.8228 231.641C92.452 234.554 98.4038 235.083 103.298 232.833C107.927 230.715 111.233 226.347 112.291 221.449C112.291 221.185 112.291 220.92 112.027 220.655C107.398 217.875 101.446 217.478 96.5521 219.861C92.0552 221.979 88.7486 226.479 87.8228 231.377C87.6905 232.171 89.0131 232.436 89.1454 231.641Z" fill="white"/>
<path d="M94.039 221.979C92.7164 226.612 95.0972 231.641 99.4618 233.627C100.255 234.024 100.917 232.833 100.123 232.436C96.2875 230.715 94.1713 226.479 95.3617 222.376C95.6262 221.449 94.3036 221.184 94.039 221.979Z" fill="white"/>
<path d="M102.901 224.097C101.975 223.17 100.52 223.038 99.3298 223.567C98.1394 224.097 97.6103 225.553 97.8749 226.744C98.0071 227.273 98.2716 227.935 98.8007 228.332C99.3298 228.729 99.8588 228.994 100.52 228.994C101.71 229.127 103.033 228.332 103.43 227.141C103.827 225.817 103.165 224.229 101.975 223.699C101.71 223.567 101.314 223.567 101.049 223.964C100.917 224.229 100.917 224.758 101.314 224.891C101.446 224.891 101.446 225.023 101.578 225.023C101.578 225.023 101.578 225.023 101.711 225.023C101.711 224.891 101.711 225.023 101.711 225.023L101.843 225.156C101.843 225.156 101.843 225.156 101.843 225.288C101.843 225.288 101.843 225.42 101.843 225.288C101.843 225.156 101.843 225.288 101.843 225.288C101.843 225.288 101.843 225.42 101.975 225.42L102.107 225.553C102.107 225.553 102.107 225.42 102.107 225.553C102.107 225.685 102.24 225.817 102.24 225.95C102.24 226.082 102.24 225.817 102.24 225.95V226.082C102.24 226.214 102.24 226.347 102.24 226.347C102.24 226.479 102.24 226.347 102.24 226.214V226.347V226.479V226.612C102.24 226.612 102.24 226.744 102.24 226.612C102.24 226.479 102.24 226.612 102.24 226.612L102.107 226.876C102.107 226.876 102.24 226.744 102.107 226.876C102.107 226.876 102.107 226.876 102.107 227.009L101.975 227.141C101.843 227.273 101.975 227.141 101.975 227.141L101.843 227.273C101.71 227.273 101.578 227.406 101.578 227.406C101.578 227.406 101.711 227.406 101.578 227.406H101.446H101.314C101.314 227.406 101.314 227.406 101.181 227.406C101.049 227.406 101.314 227.406 101.181 227.406C101.049 227.406 100.917 227.406 100.917 227.406H100.785C100.652 227.406 100.785 227.406 100.785 227.406H100.652C100.52 227.406 100.388 227.406 100.388 227.273H100.256C100.256 227.273 100.388 227.406 100.256 227.273C100.256 227.273 100.123 227.273 100.123 227.141C100.123 227.141 99.9911 227.141 99.9911 227.009C99.9911 227.009 100.123 227.141 99.9911 227.009C99.9911 227.009 99.8588 227.009 99.8588 226.876C99.8588 226.876 99.8588 226.876 99.8588 226.744C99.8588 226.744 99.7265 226.612 99.8588 226.744C99.8588 226.744 99.8588 226.744 99.8588 226.612C99.8588 226.612 99.8588 226.479 99.7266 226.479C99.7266 226.479 99.7266 226.347 99.5943 226.347C99.5943 226.347 99.5943 226.214 99.5943 226.347C99.5943 226.479 99.5943 226.347 99.5943 226.347C99.5943 226.214 99.5943 226.082 99.462 226.082C99.462 226.082 99.462 226.082 99.462 225.95C99.462 225.817 99.462 226.082 99.462 225.95V225.817C99.462 225.685 99.462 225.553 99.462 225.553C99.462 225.42 99.462 225.685 99.462 225.553V225.42V225.288C99.462 225.288 99.462 225.288 99.462 225.156C99.462 225.023 99.462 225.156 99.462 225.156C99.462 225.023 99.5943 224.891 99.5943 224.891C99.5943 224.891 99.5943 224.891 99.5943 224.758L99.7266 224.626L99.8588 224.494C99.8588 224.494 99.8588 224.494 99.9911 224.494C99.9911 224.494 99.8588 224.626 99.9911 224.494C100.123 224.361 100.256 224.361 100.388 224.229H100.52H100.652H100.785C100.785 224.229 100.917 224.229 100.785 224.229C100.652 224.229 100.785 224.229 100.785 224.229C100.917 224.229 101.049 224.229 101.181 224.229C101.181 224.229 101.181 224.229 101.314 224.229C101.446 224.229 101.181 224.229 101.314 224.229H101.446H101.578C101.578 224.229 101.578 224.229 101.711 224.229C101.843 224.229 101.711 224.229 101.711 224.229C101.843 224.229 101.975 224.361 102.107 224.361C102.24 224.494 102.107 224.361 102.107 224.361L102.24 224.494C102.504 224.758 102.901 224.758 103.165 224.494C103.033 224.758 103.165 224.361 102.901 224.097Z" fill="white"/>
<path d="M30.1557 232.303C30.5525 235.083 31.0815 238.127 33.1977 240.245C34.9172 241.966 37.827 242.76 39.9432 241.304C42.1916 239.716 42.3239 236.539 41.6626 234.156C41.0013 231.641 39.1496 229.391 36.5043 228.729C33.5945 228.068 30.6847 229.656 29.7589 232.436C29.4944 233.23 30.817 233.627 31.0815 232.833C31.7429 230.847 33.7268 229.656 35.7107 229.921C37.827 230.185 39.5464 231.774 40.2077 233.759C40.869 235.612 41.1335 238.26 39.6786 239.716C38.2237 241.172 35.843 240.775 34.3881 239.451C32.4042 237.598 31.8751 234.818 31.4783 232.171C31.3461 231.509 30.0234 231.509 30.1557 232.303Z" fill="white"/>
<path d="M35.843 233.892C35.0495 234.421 34.3881 235.348 34.3881 236.274C34.3881 237.201 35.1817 238.127 36.1076 238.392C37.0334 238.525 37.827 237.995 38.0915 237.068C38.356 236.274 38.2238 235.348 37.6947 234.818C37.0334 233.892 36.1076 233.495 35.0495 233.097C34.7849 232.965 34.2559 233.23 34.2559 233.495C34.1236 233.892 34.3881 234.156 34.6527 234.289C34.7849 234.289 34.9172 234.421 35.0495 234.421C34.9172 234.421 35.1817 234.421 35.1817 234.421C35.314 234.421 35.314 234.553 35.4462 234.553C35.5785 234.686 35.7108 234.686 35.843 234.818C35.9753 234.818 35.9753 234.951 36.1076 234.951C36.1076 234.951 36.2398 235.083 36.1076 234.951C36.1076 234.951 36.2398 234.951 36.2398 235.083L36.3721 235.215C36.3721 235.215 36.3721 235.215 36.5044 235.348C36.5044 235.348 36.6366 235.48 36.5044 235.348C36.5044 235.215 36.5044 235.48 36.5044 235.48C36.5044 235.48 36.5044 235.48 36.5044 235.612C36.5044 235.612 36.5044 235.612 36.5044 235.745C36.5044 235.745 36.5044 235.877 36.5044 235.745C36.5044 235.612 36.5044 235.877 36.5044 235.877V236.01C36.5044 236.142 36.5044 235.877 36.5044 236.01C36.5044 236.01 36.5044 236.01 36.5044 236.142C36.5044 236.274 36.5044 236.274 36.5044 236.407V236.539C36.5044 236.539 36.5044 236.407 36.5044 236.539V236.671C36.5044 236.671 36.5044 236.671 36.5044 236.804C36.5044 236.936 36.5044 236.804 36.5044 236.804L36.3721 236.936C36.3721 237.068 36.3721 236.936 36.3721 236.936C36.2398 237.068 36.3721 236.936 36.3721 236.936L36.2398 237.068C36.1076 237.068 36.2398 237.068 36.2398 237.068H36.1076C35.9753 237.068 36.2398 237.068 36.1076 237.068H35.9753C35.9753 237.068 35.843 237.068 35.9753 237.068C36.1076 237.068 35.9753 237.068 35.9753 237.068H35.843C35.7108 237.068 35.9753 237.068 35.843 237.068C35.7108 237.068 35.7108 236.936 35.5785 236.936C35.7108 237.068 35.5785 236.936 35.4462 236.804C35.4462 236.804 35.4463 236.804 35.314 236.671C35.4463 236.804 35.314 236.671 35.314 236.671C35.314 236.671 35.314 236.671 35.314 236.539C35.314 236.539 35.1817 236.407 35.314 236.407C35.314 236.539 35.314 236.407 35.314 236.407V236.274C35.314 236.142 35.314 236.274 35.314 236.274V236.142V236.01C35.314 236.142 35.314 236.01 35.314 236.01C35.314 235.877 35.314 235.877 35.4462 235.745C35.4462 235.612 35.4462 235.745 35.4462 235.745C35.4462 235.745 35.4463 235.612 35.5785 235.612V235.48C35.5785 235.48 35.7108 235.348 35.5785 235.348C35.5785 235.348 35.5785 235.215 35.7108 235.215C35.843 235.083 35.843 235.083 35.9753 234.951C35.9753 234.951 35.843 235.083 35.9753 234.951C35.9753 234.951 36.1076 234.951 36.1076 234.818C36.3721 234.686 36.5044 234.156 36.3721 233.892C36.6366 233.892 36.2398 233.759 35.843 233.892Z" fill="white"/>
<path d="M64.0153 252.688C63.6185 255.07 64.6766 257.585 66.9251 258.512C69.0413 259.438 71.8188 258.777 73.406 257.188C75.2577 255.335 75.6545 252.555 75.1254 250.173C74.4641 247.658 72.6124 245.54 70.3639 244.216C65.7347 241.304 59.3861 241.437 55.0214 244.878C51.0535 247.923 49.4664 253.879 52.2439 258.38C53.6988 260.63 56.7408 262.483 59.1216 260.365C61.37 258.38 60.4442 254.938 57.7989 254.011C57.0054 253.747 56.6086 255.07 57.4021 255.335C59.6506 256.129 59.5184 259.306 57.2699 259.968C55.1537 260.497 53.4343 258.247 52.7729 256.526C51.1858 252.688 52.7729 248.32 55.9472 245.937C59.3861 243.422 64.0153 243.025 67.9832 244.481C71.8188 245.937 75.2577 249.908 73.8028 254.276C73.1415 256.394 71.1575 257.982 68.909 257.85C66.6606 257.718 64.9411 255.467 65.3379 253.217C65.4702 252.158 64.1476 251.761 64.0153 252.688Z" fill="white"/>
<path d="M61.7669 257.718C63.0895 260.63 62.4282 263.939 62.5604 266.983C62.6927 269.895 63.4863 272.543 65.867 274.528C68.1155 276.381 71.1576 277.44 73.9351 278.235C77.3739 279.293 80.945 280.22 84.5161 281.014C88.484 281.808 92.5842 282.47 96.6843 282.735C97.4779 282.867 97.4779 281.544 96.6843 281.411C89.6744 280.75 82.6644 279.426 75.919 277.44C73.0092 276.514 70.0994 275.72 67.5864 273.999C66.3961 273.205 65.4702 272.146 64.8089 270.954C64.1476 269.631 64.0153 268.042 64.0153 266.586C63.8831 263.409 64.4121 260.1 62.9572 257.056C62.5604 256.262 61.3701 256.924 61.7669 257.718Z" fill="white"/>
<path d="M137.554 205.433C134.909 210.992 135.57 217.214 136.496 223.17C137.025 226.612 137.686 229.921 137.686 233.362C137.686 236.539 137.289 239.584 136.231 242.496C134.247 248.452 130.676 253.747 126.84 258.512C124.857 261.027 122.74 263.41 120.624 265.792C118.64 268.175 116.524 270.425 114.275 272.543C109.382 277.176 103.43 281.014 96.5522 281.676C95.7586 281.808 95.7586 283.132 96.5522 283C109.382 281.941 117.979 271.087 125.65 262.086C129.75 257.321 133.718 252.158 136.231 246.334C137.422 243.555 138.347 240.642 138.744 237.598C139.141 234.289 138.876 231.112 138.48 227.803C137.554 220.655 135.438 212.978 138.612 206.095C139.009 205.301 137.818 204.639 137.554 205.433Z" fill="white"/>
<path d="M50.1276 234.951C46.292 236.671 43.9112 240.245 42.5886 244.084C41.795 246.467 41.3982 248.849 41.266 251.232C41.0014 253.879 40.7369 256.526 40.8692 259.174C40.8692 259.968 42.1918 259.968 42.1918 259.174C42.0595 256.791 42.3241 254.276 42.5886 251.894C42.8531 249.643 43.1176 247.261 43.779 245.011C44.9693 241.304 47.2178 237.73 50.9212 236.01C51.5825 235.745 50.9212 234.554 50.1276 234.951Z" fill="white"/>
<path d="M51.3179 242.098C44.7047 250.835 38.3561 260.63 38.4884 272.013C38.4884 277.043 39.811 282.206 42.853 286.441C44.3079 288.427 46.1596 290.28 48.6726 290.677C51.1856 291.074 53.3018 289.75 55.0212 288.03C57.2697 285.779 59.1214 283.264 60.8408 280.617C62.6925 277.97 64.2797 275.058 65.7346 272.146C66.1314 271.351 64.941 270.69 64.5442 271.484C62.2957 276.249 59.3859 280.882 55.9471 284.985C54.4922 286.838 52.6405 289.089 50.1275 289.353C47.6145 289.618 45.4983 287.765 44.0434 285.912C37.9593 277.837 39.0174 266.586 42.9853 257.85C45.4983 252.423 48.8049 247.526 52.376 242.76C53.0373 242.098 51.8469 241.437 51.3179 242.098Z" fill="white"/>
<path d="M56.7407 284.456C56.2116 286.971 57.6665 289.486 59.915 290.809C62.5602 292.398 65.9991 292.398 69.0411 292.398C72.48 292.398 75.9188 292.133 79.2254 291.604C82.3997 291.074 85.7063 290.28 88.7483 289.089C91.6581 287.897 94.3034 285.647 94.8324 282.338C94.9647 281.544 93.6421 281.147 93.5098 281.941C93.113 284.588 91.1291 286.441 88.8806 287.5C86.3676 288.691 83.3256 289.353 80.548 290.015C77.6382 290.545 74.7284 290.942 71.8187 291.074C69.0411 291.206 65.9991 291.206 63.2215 290.677C60.5763 290.148 57.402 288.03 58.0633 284.853C58.1955 283.926 56.8729 283.661 56.7407 284.456Z" fill="white"/>
<path d="M138.347 206.359C142.58 202.786 146.283 198.682 149.457 194.182C149.986 193.52 148.796 192.858 148.267 193.52C145.225 197.888 141.522 201.991 137.421 205.433C136.76 205.962 137.686 206.889 138.347 206.359Z" fill="white"/>
<path d="M138.347 205.962C141.654 210.86 144.96 215.757 147.606 221.052C150.251 226.479 152.103 232.303 152.764 238.26C153.954 249.511 150.912 260.63 145.49 270.425C142.58 275.852 138.876 280.882 134.908 285.515C134.379 286.176 135.305 287.103 135.834 286.441C143.109 277.97 149.193 268.307 152.235 257.585C155.542 246.069 154.748 233.892 149.854 222.905C147.077 216.684 143.241 210.992 139.273 205.301C139.009 204.506 137.951 205.168 138.347 205.962Z" fill="white"/>
<path d="M83.7225 290.942C90.2034 294.118 97.4779 296.369 104.752 296.898C108.456 297.163 112.291 296.898 115.862 296.104C119.169 295.31 122.476 293.986 125.518 292.398C129.089 290.545 132.528 288.559 135.966 286.441C136.628 286.044 135.966 284.853 135.305 285.25C129.486 288.824 123.666 292.398 117.053 294.383C109.911 296.501 102.636 295.839 95.4939 293.986C91.6583 292.927 87.9549 291.604 84.3838 289.75C83.5902 289.486 82.9289 290.677 83.7225 290.942Z" fill="white"/>
<path d="M146.548 196.035C146.415 196.167 146.415 196.3 146.283 196.432C146.283 196.564 146.151 196.564 146.151 196.697C146.151 196.829 146.151 196.829 146.151 196.961C146.151 197.094 146.151 197.094 146.283 197.226C146.283 197.359 146.415 197.359 146.415 197.359C146.415 197.359 146.548 197.359 146.548 197.491C146.68 197.491 146.812 197.491 146.944 197.491C146.944 197.491 147.077 197.491 147.077 197.359C147.209 197.359 147.209 197.226 147.341 197.094C147.474 196.961 147.473 196.829 147.606 196.697C147.606 196.564 147.738 196.564 147.738 196.432C147.738 196.3 147.738 196.3 147.738 196.167C147.738 196.035 147.738 196.035 147.606 195.903C147.606 195.77 147.474 195.77 147.474 195.77C147.474 195.77 147.341 195.77 147.341 195.638C147.209 195.638 147.077 195.638 146.944 195.638C146.944 195.638 146.812 195.638 146.812 195.77C146.68 195.77 146.68 195.903 146.548 196.035Z" fill="white"/>
<path d="M146.547 197.491C147.341 197.491 147.341 196.167 146.547 196.167C145.622 196.167 145.622 197.491 146.547 197.491Z" fill="white"/>
<path d="M148.664 194.711C151.706 191.932 153.822 188.49 155.012 184.519C156.335 180.151 155.806 175.65 155.145 171.15C154.748 168.767 154.351 166.252 154.219 163.87C154.086 161.62 154.219 159.237 154.483 156.987C154.88 152.354 155.806 147.853 156.335 143.221C156.996 138.191 157.261 133.028 156.203 127.998C156.07 127.204 154.748 127.469 154.88 128.396C156.732 137.264 154.351 146.265 153.293 155.001C152.764 159.502 152.632 163.87 153.293 168.37C153.954 173.003 155.012 177.636 154.086 182.269C153.161 186.637 150.912 190.74 147.606 193.785C147.076 194.446 148.002 195.373 148.664 194.711Z" fill="white"/>
<path d="M95.097 166.782C99.9907 149.707 105.281 131.44 118.243 118.6C122.079 114.762 126.443 111.585 131.205 109.07C131.998 108.673 131.337 107.482 130.543 107.879C122.211 112.247 115.201 118.733 109.778 126.675C104.62 134.22 101.181 142.691 98.2713 151.295C96.5519 156.325 95.097 161.355 93.6421 166.385C93.5098 167.179 94.8324 167.576 95.097 166.782Z" fill="white"/>
<path d="M130.676 109.07C134.909 107.482 139.405 108.541 143.109 110.923C147.077 113.438 149.854 117.409 151.97 121.513C153.293 123.895 154.351 126.542 155.409 129.057C155.674 129.852 156.996 129.455 156.732 128.66C153.029 119.792 148.267 109.467 137.951 107.349C135.438 106.82 132.792 106.952 130.412 107.746C129.486 108.143 129.883 109.467 130.676 109.07Z" fill="white"/>
<path d="M19.7073 132.102C15.2103 131.837 12.1683 135.941 11.3747 139.912C10.4488 144.412 11.3747 149.31 12.8296 153.678C15.8716 162.679 21.8235 170.223 26.7172 178.298C29.2302 182.401 31.4787 186.637 32.8013 191.137C34.2562 195.77 34.5207 200.535 33.7271 205.301C32.14 214.434 27.3785 223.038 28.0398 232.436C28.8334 242.893 35.182 252.026 41.1339 260.365C41.6629 261.027 42.721 260.365 42.3243 259.703C37.166 252.423 31.6109 244.613 29.8915 235.613C28.9657 231.112 29.3625 226.479 30.5528 222.111C31.6109 217.743 33.1981 213.375 34.3885 209.007C35.4466 204.639 35.9756 200.271 35.3143 195.77C34.653 191.27 32.9336 187.034 30.9496 182.931C26.7172 174.724 20.7654 167.444 16.6652 159.105C14.4167 154.472 12.6973 149.442 12.565 144.28C12.4328 141.632 12.6973 138.985 14.1522 136.602C15.3426 134.617 17.4588 133.161 19.8395 133.293C20.5008 133.426 20.5008 132.102 19.7073 132.102Z" fill="white"/>
<path d="M19.8392 132.896C35.843 140.838 43.9111 157.913 56.4761 169.826C59.5181 172.738 63.7506 176.312 68.1152 174.327C68.9088 173.93 68.2475 172.871 67.4539 173.135C63.486 174.989 59.3859 170.885 56.8729 168.37C53.8308 165.326 50.921 162.017 48.2758 158.707C42.9852 152.222 37.9592 145.338 31.7429 139.647C28.4363 136.602 24.6007 133.823 20.5005 131.705C19.7069 131.308 19.0456 132.499 19.8392 132.896Z" fill="white"/>
<path d="M67.3218 174.724C75.3898 170.223 84.516 167.708 93.7744 167.179C94.568 167.179 94.568 165.855 93.7744 165.855C84.2515 166.385 74.9931 169.032 66.6605 173.665C65.8669 174.062 66.5282 175.121 67.3218 174.724Z" fill="white"/>
<path d="M20.7653 140.441C17.3264 140.441 15.7393 144.412 16.4006 147.324C16.7974 149.309 17.9877 151.163 18.9136 152.883C19.9717 154.737 20.8975 156.59 21.8234 158.443C25.659 166.12 28.8333 174.194 31.0818 182.401C32.4044 187.034 33.3303 191.932 34.1238 196.697C34.2561 197.491 35.5787 197.226 35.4465 196.3C33.0657 180.548 27.643 165.326 19.7072 151.427C18.6491 149.574 17.3264 147.456 17.591 145.338C17.7232 143.618 18.9136 141.765 20.7653 141.765C21.6911 141.765 21.6911 140.441 20.7653 140.441Z" fill="white"/>
<path d="M35.0495 201.859C39.5465 192.99 41.6627 183.063 41.3982 173.268C41.2659 168.37 40.6046 163.34 39.1497 158.707C37.8271 154.075 35.9754 149.442 32.8011 145.868C29.4945 142.162 24.3362 139.647 19.3102 140.706C18.5166 140.838 18.7812 142.162 19.707 142.029C24.0717 141.235 28.5686 143.353 31.6107 146.53C34.785 149.971 36.6367 154.339 37.8271 158.84C40.4723 167.841 40.8691 177.504 39.0174 186.637C37.9593 191.799 36.2399 196.829 33.8592 201.462C33.5946 201.991 34.6527 202.653 35.0495 201.859Z" fill="white"/>
<path d="M110.043 173.003C107.662 161.222 105.281 148.383 110.175 136.867C112.424 131.705 116.127 127.469 120.756 124.292C123.005 122.704 125.385 121.248 127.898 119.924C130.411 118.6 133.189 117.542 136.099 117.806C141.918 118.336 143.638 125.219 145.225 129.719C147.341 135.676 149.325 141.765 149.986 148.118C150.648 154.207 150.119 160.164 148.002 165.988C146.019 171.415 142.976 176.445 139.802 181.21C139.009 182.401 138.215 183.46 137.421 184.651C136.628 185.71 135.967 186.902 135.041 187.961C134.247 188.887 133.057 189.681 131.734 189.681C130.279 189.681 129.089 188.622 128.031 187.696C123.005 183.46 117.979 179.224 112.953 174.989C111.762 173.93 110.44 172.871 109.249 171.812C108.588 171.282 107.662 172.209 108.324 172.738C113.746 177.371 119.169 181.872 124.46 186.505C125.65 187.563 126.84 188.622 128.163 189.549C129.221 190.343 130.411 191.005 131.866 191.005C134.512 191.005 136.231 188.622 137.686 186.637C141.257 181.607 144.696 176.445 147.341 170.885C149.986 165.326 151.574 159.237 151.441 153.016C151.309 146.397 149.722 139.779 147.606 133.558C146.548 130.513 145.489 127.469 144.299 124.557C143.373 122.174 142.183 119.924 140.199 118.336C135.305 114.497 128.692 117.806 124.063 120.586C119.037 123.498 114.275 127.204 110.969 132.102C103.959 142.956 105.149 156.457 107.398 168.503C107.662 170.223 108.059 171.944 108.324 173.665C108.985 174.194 110.175 173.797 110.043 173.003Z" fill="white"/>
<path d="M51.1857 236.671C53.4342 226.082 44.0435 218.405 38.6207 210.595C37.0335 208.213 35.7109 205.83 34.9173 203.05C34.6528 202.256 33.4624 202.521 33.5947 203.447C36.1077 213.11 45.4984 218.802 48.9372 227.935C49.9953 230.583 50.3921 233.495 49.7308 236.274C49.7308 237.201 51.0534 237.598 51.1857 236.671Z" fill="white"/>
<path d="M92.9811 166.782C89.6745 168.106 87.426 171.018 86.3679 174.327C85.0453 178.43 85.5743 182.798 86.5002 187.034C87.5583 191.667 89.0132 196.167 88.8809 201.065C88.8809 203.315 88.3518 205.433 87.426 207.418C86.6324 209.272 85.5743 210.86 84.5162 212.581C82.5323 215.758 80.5483 219.199 80.416 223.17C80.2838 227.009 81.7387 230.715 83.8549 233.892C88.6164 240.907 96.4199 244.613 103.298 249.114C107.133 251.761 110.837 254.673 113.217 258.777C115.466 262.483 116.656 266.983 115.201 271.351C114.937 272.146 116.259 272.543 116.524 271.749C118.905 264.336 114.54 256.659 108.985 251.894C102.636 246.334 94.436 243.29 88.4841 237.466C85.7066 234.686 83.3258 231.377 82.2677 227.538C81.2096 223.567 81.8709 219.861 83.8549 216.287C85.7066 212.978 88.0873 209.933 89.4099 206.227C90.8648 201.991 90.3358 197.491 89.4099 193.255C88.3518 188.225 86.5002 183.063 87.1615 177.768C87.6905 173.93 89.8067 169.694 93.5101 168.238C94.0392 167.708 93.7746 166.517 92.9811 166.782Z" fill="white"/>
<path d="M82.2675 242.363C93.9067 246.069 103.694 255.07 108.588 266.322C109.911 269.498 111.762 274.661 108.059 277.043C107.398 277.573 107.927 278.499 108.72 278.234C109.249 277.97 109.778 277.705 110.307 277.44C111.101 277.043 110.44 275.984 109.646 276.249C109.117 276.514 108.588 276.778 108.059 277.043C108.323 277.44 108.456 277.837 108.72 278.234C111.762 276.249 111.894 272.278 110.969 269.101C110.043 265.792 108.323 262.748 106.604 259.836C103.033 254.276 98.4036 249.511 92.8486 246.069C89.6743 244.084 86.2354 242.363 82.6643 241.304C81.8707 240.775 81.474 242.098 82.2675 242.363Z" fill="white"/>
<path d="M174.191 348.389C179.084 341.771 187.285 337.8 195.485 337.667C197.866 337.667 200.114 337.799 202.363 338.461C202.23 338.197 202.098 338.064 201.834 337.799C201.701 344.683 201.569 351.566 201.437 358.581C201.305 362.023 201.305 365.332 201.172 368.773C201.04 372.082 200.908 375.392 201.04 378.701C201.04 381.348 201.437 384.128 203.685 385.849C204.214 386.246 205.008 385.451 204.611 384.922C204.347 384.657 204.214 384.393 203.95 383.995C203.553 384.26 203.288 384.525 202.892 384.79C209.108 392.467 213.34 401.733 214.795 411.528C215.06 412.984 215.192 414.704 214.531 416.028C214.002 416.955 212.679 417.881 211.621 417.352C211.092 417.087 210.563 417.484 210.695 418.146C211.357 420.926 210.166 424.102 207.785 425.823C205.272 427.544 201.701 427.412 199.321 425.691C199.056 425.559 198.659 425.559 198.527 425.823C196.543 427.544 193.633 428.206 191.12 427.676C189.798 427.412 188.607 426.882 187.681 425.956C186.623 425.029 185.697 423.838 184.639 422.779C183.581 421.852 182.391 421.19 181.068 420.793C179.613 420.396 178.026 420.264 176.704 419.47C173.926 418.014 172.868 414.704 172.603 411.792C172.339 408.218 172.603 404.645 172.603 401.071C172.603 397.497 172.736 393.923 172.736 390.217C172.868 382.936 173 375.524 173.132 368.244C173.265 364.14 173.265 360.169 173.397 356.066C173.397 354.213 173.397 352.227 174.058 350.507C174.587 349.051 175.778 347.595 177.497 347.33C178.291 347.198 178.291 345.874 177.497 346.006C174.323 346.403 172.736 349.315 172.339 352.227C172.074 353.948 172.074 355.801 172.074 357.654C172.074 359.64 171.942 361.625 171.942 363.611C171.81 371.553 171.678 379.627 171.545 387.569C171.413 391.54 171.413 395.511 171.281 399.35C171.149 403.189 171.016 407.16 171.149 410.998C171.281 414.175 172.074 417.484 174.455 419.602C175.645 420.661 176.968 421.323 178.423 421.72C180.01 422.117 181.73 422.382 183.052 423.308C184.507 424.367 185.433 425.956 186.888 427.147C188.078 428.073 189.401 428.735 190.856 429C193.898 429.662 197.204 428.868 199.453 426.75C199.188 426.75 198.924 426.882 198.659 426.882C201.569 429 205.801 429 208.711 426.882C211.489 424.897 212.811 421.19 212.018 417.881C211.753 418.146 211.357 418.411 211.092 418.675C213.208 419.602 215.457 418.146 216.25 416.16C216.779 414.837 216.647 413.381 216.515 412.057C216.383 410.601 216.118 409.277 215.721 407.954C214.531 402.394 212.415 397.1 209.637 392.202C208.05 389.422 206.198 386.775 204.214 384.26C203.685 383.731 202.759 384.393 203.156 385.054C203.421 385.319 203.553 385.584 203.818 385.981C204.082 385.716 204.479 385.319 204.743 385.054C202.759 383.598 202.627 380.686 202.759 378.436C202.759 375.259 202.892 372.082 202.892 368.906C203.024 362.42 203.156 355.801 203.288 349.315C203.421 345.609 203.421 341.903 203.553 338.064C203.553 337.799 203.288 337.535 203.024 337.402C194.559 335.285 185.433 337.402 178.555 342.697C176.571 344.285 174.852 346.006 173.397 347.992C172.471 348.389 173.662 349.051 174.191 348.389Z" fill="white"/>
<path d="M17.591 394.32C17.3265 396.967 16.9297 399.615 17.9878 402.13C18.9137 404.247 20.5008 405.836 22.7493 406.101C27.2463 406.762 31.4787 403.453 33.0658 399.482C33.1981 399.085 32.8013 398.688 32.4045 398.688C32.2723 398.688 32.14 398.688 32.0077 398.688C32.14 399.085 32.4045 399.35 32.5368 399.747C38.2241 388.099 36.6369 374.465 42.3243 362.817C43.7792 359.905 45.7631 357.125 48.2761 355.007C48.9374 354.478 48.0116 353.551 47.3503 354.08C37.5628 362.42 37.4305 376.45 35.0498 388.099C34.2562 391.937 33.1981 395.644 31.4787 399.085C31.2142 399.615 31.4787 400.012 32.0077 400.144C32.14 400.144 32.2723 400.144 32.4045 400.144C32.14 399.879 32.0077 399.615 31.7432 399.35C30.4206 402.791 26.5849 405.703 22.7493 405.042C17.9878 404.247 18.2524 398.159 18.7814 394.585C19.0459 393.526 17.7233 393.526 17.591 394.32Z" fill="white"/>
<path d="M23.1461 406.233C21.559 408.616 19.8395 410.998 17.3265 412.587C14.9458 414.043 11.7715 414.572 9.39075 412.851C6.87775 410.998 6.48096 407.557 6.74549 404.645C7.01002 401.335 7.93586 398.159 8.99396 395.114C9.25849 394.32 8.06812 393.923 7.67133 394.717C6.61323 397.497 5.81965 400.276 5.42286 403.189C5.02607 405.836 5.02607 408.616 6.21644 411.131C7.27454 413.248 9.25849 414.837 11.6392 415.102C14.02 415.366 16.533 414.704 18.5169 413.248C20.8977 411.528 22.6171 409.145 24.2042 406.762C24.8655 406.233 23.6752 405.571 23.1461 406.233Z" fill="white"/>
<path d="M15.8716 376.583C16.6652 376.583 16.6652 375.259 15.8716 375.259C14.9458 375.259 14.9458 376.583 15.8716 376.583Z" fill="white"/>
<path d="M32.0076 336.211C27.6429 344.418 23.4105 352.757 19.4426 361.228C19.1781 361.89 19.8394 362.552 20.5007 362.023C20.8975 361.625 21.2943 361.361 21.8233 360.964C21.4265 360.699 21.162 360.434 20.7652 360.169C16.2683 368.111 11.7713 376.186 7.27438 384.128C3.70328 390.481 -1.71951 398.159 0.661223 405.836C1.71933 409.145 3.9678 412.057 7.40665 412.851C8.20022 413.116 8.59701 411.792 7.80344 411.528C4.89365 410.733 2.9097 408.218 1.98386 405.439C0.92575 401.997 1.58707 398.423 2.9097 395.247C4.36459 391.54 6.61307 388.099 8.46475 384.657C10.581 380.951 12.6972 377.112 14.8134 373.406C17.1941 369.17 19.5749 365.067 21.8233 360.831C22.2201 360.169 21.2943 359.508 20.7652 360.037C20.3684 360.434 19.9716 360.699 19.4426 361.096C19.8394 361.361 20.1039 361.625 20.5007 361.89C24.6009 353.419 28.701 345.08 33.0657 336.873C33.5948 336.211 32.4044 335.549 32.0076 336.211Z" fill="white"/>
<path d="M242.042 11.913C237.148 9.26566 231.064 9.79513 226.038 12.1777C221.012 14.5603 216.78 18.2666 212.944 22.2376C192.179 43.0191 176.572 68.6982 167.578 96.6276" fill="#CF9C98"/>
<path d="M242.439 10.9864C226.964 3.04443 212.283 20.3844 203.289 30.709C192.708 42.8868 183.714 56.3881 176.572 70.9485C172.604 79.1552 169.165 87.4943 166.387 96.2305C165.991 97.4218 167.842 97.9512 168.239 96.7599C173.001 82.0673 179.614 68.0364 187.814 54.9321C195.882 42.0926 205.67 29.6501 216.912 19.3255C223.393 13.5014 232.651 8.20673 241.381 12.7072C242.571 13.2367 243.629 11.6483 242.439 10.9864Z" fill="#CF9C98"/>
<path d="M242.042 11.9129C238.736 8.47141 233.18 12.0453 228.816 14.0308C224.451 16.0163 221.277 19.8549 218.235 23.5612C183.053 67.1098 159.51 120.056 150.913 175.386C150.251 179.886 149.59 184.519 150.251 189.019C150.913 193.52 154.087 196.035 157.79 198.947C162.816 202.918 171.414 201.329 177.894 200.932C191.914 200.271 208.976 199.609 222.864 198.947C224.848 198.815 244.158 205.698 243.894 203.712C243.629 201.859 222.467 195.241 220.615 195.373C209.77 196.564 193.898 195.108 182.92 195.505C177.365 195.77 169.297 198.285 161.494 194.579C155.807 191.931 155.277 187.96 155.145 181.607C155.145 175.253 156.997 169.032 158.981 162.943C163.875 147.324 168.901 131.705 173.794 116.085C177.365 104.967 180.937 93.7155 186.359 83.3909C198.528 60.3591 219.293 43.2838 238.868 26.0762C241.381 23.9583 244.026 21.311 244.026 18.1342C244.026 14.9574 244.555 12.4424 241.645 11.9129H242.042Z" fill="#CF9C98"/>
<path d="M242.703 11.2512C239.132 7.80963 234.106 10.3246 230.403 12.1777C228.154 13.369 225.906 14.428 223.922 16.0164C221.806 17.7371 219.954 19.855 218.235 21.9728C211.092 30.709 204.479 39.8423 198.395 49.2404C185.962 68.3011 175.646 88.6856 167.445 109.864C159.245 131.043 153.293 153.28 149.854 175.783C149.061 181.077 147.87 187.563 150.251 192.461C151.177 194.446 152.764 196.167 154.484 197.623C156.203 199.079 157.922 200.535 160.039 201.462C164.403 203.183 169.429 202.653 174.059 202.256C179.481 201.859 185.036 201.727 190.459 201.462C196.543 201.197 202.495 200.932 208.579 200.668C211.489 200.535 214.399 200.403 217.309 200.271C219.16 200.138 221.541 199.874 223.128 200.006C225.641 200.271 228.154 201.33 230.667 202.124C233.709 203.05 236.884 203.977 240.058 204.639C241.248 204.903 244.29 205.83 244.819 204.109C245.348 202.388 242.439 201.462 241.381 200.932C235.693 198.417 229.609 196.432 223.525 194.976C220.748 194.314 218.102 194.711 215.192 194.844C209.77 195.108 204.215 194.844 198.792 194.711C193.634 194.579 188.475 194.446 183.449 194.579C178.291 194.844 173.265 196.167 167.974 195.505C163.345 194.976 157.922 192.858 156.732 187.828C155.542 182.666 156.335 176.842 157.526 171.679C159.113 165.458 161.229 159.237 163.213 153.148C165.197 146.794 167.181 140.441 169.297 134.087C173.133 121.91 176.704 109.6 181.333 97.6865C185.565 86.5677 191.385 76.2431 198.792 66.9775C205.802 58.1089 213.87 50.1669 222.202 42.622C226.303 38.9158 230.535 35.2095 234.767 31.5032C236.751 29.6501 238.868 27.9293 240.852 26.0762C242.571 24.4878 244.29 22.6347 244.952 20.2521C245.481 18.5313 245.481 16.1487 245.216 14.2956C244.952 12.5748 243.761 11.5159 242.174 11.1188C242.306 11.6483 242.439 12.1777 242.571 12.8396L242.703 12.7072C243.629 11.7806 242.174 10.457 241.248 11.2512L241.116 11.3835C240.587 11.913 240.852 12.8396 241.513 13.1043C243.894 13.6338 243.364 16.2811 243.232 18.1342C243.1 20.9139 241.381 22.8994 239.397 24.6202C235.561 28.1941 231.329 31.6356 227.361 35.2095C219.16 42.3573 211.225 49.7698 203.818 57.8442C196.676 65.6538 190.327 74.1253 185.301 83.5233C179.746 93.9803 176.175 105.231 172.604 116.483C168.768 128.66 164.932 140.838 160.965 153.016C157.526 163.737 152.764 174.856 154.087 186.24C154.484 189.814 155.939 192.726 159.113 194.711C163.61 197.491 169.033 198.02 174.059 197.491C178.688 197.094 183.185 196.432 187.814 196.432C192.972 196.432 198.13 196.697 203.289 196.697C208.315 196.829 213.341 196.829 218.367 196.432C219.425 196.3 220.351 196.167 221.277 196.432C222.335 196.697 223.393 196.961 224.583 197.226C230.27 198.815 236.355 200.403 241.645 203.315C241.91 203.447 242.306 203.844 242.571 203.844C242.703 203.844 242.703 203.977 242.703 203.977C242.703 203.977 242.968 202.918 242.968 203.05C242.835 202.918 241.116 202.786 240.587 202.786C237.677 202.124 234.767 201.33 231.858 200.403C229.212 199.609 226.699 198.815 224.054 198.153C222.996 197.888 222.07 197.888 220.88 198.02C218.102 198.153 215.457 198.285 212.679 198.417C201.305 198.947 189.93 199.476 178.556 200.006C173.926 200.271 169.165 200.932 164.536 200.535C159.774 200.006 155.542 197.094 152.764 193.255C149.325 188.622 150.78 181.475 151.574 176.312C152.367 170.885 153.426 165.458 154.484 160.164C156.732 149.442 159.51 138.985 162.816 128.528C169.429 107.614 178.291 87.2296 189.137 68.1688C194.427 58.6384 200.247 49.5051 206.595 40.5042C209.77 36.0037 213.076 31.5032 216.515 27.1351C219.689 23.0318 222.996 18.5313 227.625 15.7516C229.741 14.5603 231.99 13.369 234.238 12.4425C236.487 11.5159 239.264 10.5893 241.248 12.5748C242.306 13.5014 243.629 12.1777 242.703 11.2512Z" fill="#CF9C98"/>
<path d="M245.481 19.0608C232.387 29.9148 216.912 41.4307 206.596 55.0645C200.644 62.8741 196.94 71.875 193.105 80.876C189.269 90.0093 185.434 99.2749 181.598 108.408C175.646 122.571 169.694 136.735 166.652 151.692C164.933 159.766 164.668 169.297 170.885 174.724C175.778 178.96 183.053 178.96 189.534 180.019C198.792 181.475 207.389 185.975 214.135 192.461C215.722 194.049 217.97 195.77 219.822 194.711C221.012 193.917 221.409 192.196 220.88 190.873C220.351 189.549 219.161 188.49 218.102 187.696C211.754 183.195 203.554 182.004 196.411 178.695C182.656 172.341 173.662 156.987 174.852 141.897C176.043 125.483 187.55 111.982 193.766 96.76C198.924 84.4499 200.776 70.5514 207.918 59.3002C217.441 44.3428 235.694 34.1506 246.142 19.855L245.481 19.0608Z" fill="#CF9C98"/>
<path d="M244.819 18.3989C232.651 28.4588 219.689 37.9892 209.373 50.0345C198.527 62.6094 192.972 78.6257 186.624 93.7155C179.878 109.864 172.472 125.881 167.842 142.691C164.536 154.339 160.568 172.738 175.249 178.298C178.556 179.489 181.994 179.886 185.433 180.283C189.269 180.813 192.84 181.475 196.543 182.666C200.247 183.857 203.686 185.578 206.86 187.828C208.447 188.887 209.902 189.946 211.357 191.27C212.812 192.461 214.002 193.917 215.589 194.976C218.102 196.564 221.409 196.035 221.938 192.726C222.467 189.549 219.425 187.299 217.044 185.843C210.563 181.872 202.892 180.813 196.014 177.504C183.714 171.415 175.381 157.913 175.514 144.28C175.514 128.66 185.698 115.556 192.179 102.187C195.618 95.1715 197.866 87.759 200.115 80.3465C202.363 72.8016 205.008 65.2567 209.505 58.6384C217.706 46.7254 230.138 38.5186 240.19 28.3264C242.571 25.8115 244.819 23.2965 246.936 20.5168C247.2 20.2521 247.068 19.855 246.936 19.4579C246.803 19.1931 246.671 18.9284 246.539 18.6637C245.878 17.6047 244.158 18.5313 244.819 19.7226C244.952 19.9873 245.084 20.2521 245.216 20.5168C245.216 20.1197 245.216 19.855 245.216 19.4579C236.751 30.9738 224.583 38.9157 214.928 49.108C210.034 54.2703 205.934 59.8297 203.157 66.3156C200.115 73.3311 198.263 80.7436 195.882 88.0237C193.634 95.1715 190.459 101.922 186.888 108.541C183.317 115.027 179.614 121.38 177.101 128.263C174.588 134.749 173.265 141.632 174.059 148.515C174.72 154.869 177.101 160.958 180.54 166.252C184.111 171.547 188.872 176.047 194.427 178.96C200.908 182.401 208.315 183.46 214.796 187.034C216.383 187.828 218.102 188.755 219.16 190.211C220.88 192.196 219.822 195.505 216.912 193.785C215.325 192.858 214.134 191.402 212.812 190.343C211.357 189.152 209.902 187.96 208.315 186.902C202.495 182.931 195.75 180.283 188.74 179.357C182.127 178.43 173.926 178.43 169.562 172.341C165.726 166.914 166.255 159.369 167.446 153.148C170.62 136.602 177.63 120.983 183.978 105.496C187.285 97.5541 190.724 89.4798 194.03 81.5378C197.205 74.1253 200.247 66.5804 204.744 59.8297C213.209 46.8577 225.774 36.9302 237.545 27.2675C240.455 24.8849 243.365 22.6347 246.142 20.2521C247.2 18.9284 245.745 17.4724 244.819 18.3989Z" fill="#CF9C98"/>
<path d="M246.936 22.37C243.497 34.9448 231.329 45.6665 222.864 55.594C206.728 74.39 198.131 98.216 189.93 121.513C187.285 129.057 184.508 136.867 183.582 144.809C182.656 152.883 183.846 161.355 188.343 168.106C192.708 174.591 199.586 178.827 205.405 184.122C211.225 189.417 216.251 196.961 214.531 204.639C212.151 215.493 198.395 219.331 191.782 228.2C187.55 233.892 186.359 241.701 188.74 248.32C191.121 254.938 197.073 260.233 204.083 261.689C193.766 261.159 184.243 253.35 181.73 243.422C179.217 233.495 183.979 221.979 192.84 216.816C199.189 212.978 207.786 211.787 211.754 205.565C215.325 199.874 213.473 191.932 209.109 186.769C204.744 181.607 198.527 178.43 192.443 175.386C186.359 172.341 180.275 168.9 176.307 163.34C171.81 156.987 170.884 148.78 172.075 141.103C173.265 133.425 176.44 126.278 179.482 119.13C187.417 100.996 195.353 82.9938 203.421 64.8596C207.389 55.7263 211.622 46.3283 217.838 38.651C224.054 30.9738 235.826 22.37 245.878 21.7081L246.936 22.37Z" fill="#CF9C98"/>
<path d="M245.878 22.1053C243.232 31.3709 236.619 38.7835 230.403 45.6665C223.922 52.8143 217.441 59.9621 212.283 68.1688C201.305 85.3765 194.559 104.967 187.814 124.16C184.375 134.087 181.201 144.677 182.656 155.266C183.317 159.899 184.772 164.532 187.417 168.503C190.063 172.474 193.634 175.65 197.205 178.563C204.347 184.387 214.002 191.27 213.738 201.727C213.605 210.198 205.802 214.963 199.718 219.464C196.676 221.714 193.634 224.097 191.253 227.009C188.475 230.45 186.888 234.554 186.491 238.922C185.566 247.658 190.195 256.129 197.866 260.497C199.718 261.556 201.702 262.218 203.686 262.748C203.818 262.086 203.818 261.424 203.95 260.762C194.824 260.233 186.227 253.879 183.185 245.143C180.143 236.539 183.053 226.347 189.666 220.258C196.014 214.434 206.199 214.169 211.621 207.154C217.573 199.609 213.473 189.019 206.992 183.195C199.321 176.312 188.872 173.665 181.069 166.914C172.604 159.502 171.149 148.118 173.662 137.529C174.985 131.837 177.233 126.41 179.614 121.115C182.127 115.424 184.64 109.732 187.153 104.04C192.179 92.6566 197.205 81.2731 202.098 69.8896C206.595 59.6974 210.696 49.108 217.573 40.2395C223.393 32.5622 232.122 25.6792 241.513 23.1642C242.703 22.8995 243.761 22.6347 244.952 22.5024C245.613 22.37 245.613 22.5024 246.407 22.8995C247.465 23.5613 248.523 21.8405 247.465 21.1787C247.068 20.914 246.671 20.5169 246.274 20.3845C245.349 20.1198 243.894 20.6492 242.968 20.7816C240.719 21.1787 238.471 21.9729 236.355 22.8995C231.725 25.0173 227.361 27.9294 223.525 31.2386C215.193 38.3864 209.902 48.0491 205.405 57.9766C200.115 69.4925 195.221 81.1408 190.063 92.6566C185.037 104.173 179.614 115.556 174.985 127.337C171.149 137.397 168.636 148.78 173.133 159.105C177.498 169.297 187.946 173.533 196.94 178.43C201.702 181.078 206.595 184.122 209.637 188.755C212.415 192.991 213.87 198.682 211.621 203.447C209.637 207.816 205.008 210.066 200.776 211.787C196.676 213.507 192.443 215.096 189.004 218.008C182.259 223.832 178.82 233.23 180.407 242.098C181.994 250.967 189.004 258.512 197.602 261.292C199.718 261.953 201.834 262.351 204.082 262.483C205.141 262.483 205.405 260.762 204.347 260.497C195.353 258.38 188.608 250.305 188.475 240.907C188.475 236.274 189.93 231.509 192.972 227.935C195.353 224.891 198.527 222.641 201.569 220.39C207.124 216.287 213.738 211.919 215.457 204.771C217.706 195.638 211.092 187.299 204.611 181.739C201.04 178.695 197.205 175.915 193.766 172.606C190.195 169.165 187.417 165.061 185.962 160.164C182.92 149.971 185.037 139.25 188.211 129.455C191.385 119.659 194.956 109.997 198.66 100.466C202.363 91.0683 206.463 81.8026 211.621 73.0664C216.515 64.5949 222.467 57.1824 229.08 50.0346C235.297 43.2839 241.777 36.5332 245.745 28.1941C246.671 26.341 247.332 24.3555 247.994 22.37C248.258 21.4434 246.274 20.914 245.878 22.1053Z" fill="#CF9C98"/>
<path d="M239 31.3709C240.19 28.7236 242.968 27.2675 245.481 27.6646C247.994 28.0617 249.713 30.312 250.507 32.6946C251.3 35.0772 251.036 37.5921 250.903 40.1071C244.819 39.5776 238.868 43.1515 235.032 47.9167C231.196 52.6819 226.303 58.6384 224.319 64.3302C218.896 79.42 216.912 94.9069 217.441 110.923C218.102 127.601 219.689 135.808 229.477 148.383C231.99 151.692 235.958 155.663 243.1 159.899C268.098 175.121 295.741 207.948 226.964 217.875C221.673 218.67 219.293 213.243 215.06 214.699C210.96 216.155 199.585 233.759 202.098 237.466C198.66 230.185 207.257 210.728 212.812 204.903C216.383 201.197 221.806 198.02 221.806 192.858C221.806 188.755 218.234 185.446 214.399 183.857C210.563 182.269 206.331 181.739 202.76 179.754C195.221 175.783 191.914 166.782 190.062 158.443C183.714 130.513 187.153 100.334 199.585 74.6548C208.579 55.9911 220.086 40.1071 239 31.6356V31.3709Z" fill="#CF9C98"/>
<path d="M239.793 31.9004C241.248 28.8559 245.084 27.5323 247.729 30.0472C250.374 32.6946 250.11 36.7979 249.845 40.2395C250.11 39.9747 250.507 39.5776 250.903 39.1805C244.687 38.7834 239 41.9602 235.032 46.5931C230.667 51.4906 226.17 57.1824 223.789 63.2712C221.012 70.1543 219.292 77.6992 218.102 85.1117C216.912 92.5242 216.383 99.9368 216.515 107.349C216.647 118.733 217.309 130.381 222.996 140.441C225.509 145.074 228.815 149.574 232.519 153.281C236.354 156.987 240.851 159.766 245.348 162.679C250.771 166.252 255.929 170.356 260.294 175.121C264.13 179.224 267.701 183.99 268.891 189.549C272.462 204.903 252.887 211.522 241.513 214.301C238.471 215.096 235.429 215.625 232.387 216.155C229.212 216.684 225.773 217.743 222.731 216.287C220.88 215.36 219.292 214.037 217.309 213.64C215.721 213.375 214.266 213.904 212.944 214.963C210.034 217.346 207.786 220.787 205.802 223.964C203.818 227.273 201.569 230.847 200.908 234.686C200.643 235.745 200.643 237.069 201.305 237.995C201.966 239.054 203.553 238.127 203.024 236.936C201.966 234.554 202.363 231.509 202.76 228.994C203.421 225.685 204.347 222.508 205.669 219.464C208.05 213.64 210.96 207.816 215.589 203.58C218.102 201.197 221.144 198.947 222.335 195.638C223.525 192.329 222.467 188.755 219.954 186.24C217.044 183.328 213.208 182.136 209.24 180.945C204.876 179.621 200.908 177.901 197.866 174.327C192.575 167.973 190.724 159.105 189.401 151.163C187.814 141.765 187.285 132.102 187.946 122.439C189.004 103.643 194.427 85.5088 203.289 68.963C207.521 61.1534 212.415 53.6085 218.631 47.1225C221.673 43.9457 224.98 40.9013 228.551 38.3863C230.403 37.0627 232.387 35.8714 234.37 34.6801C235.429 34.1506 236.487 33.6211 237.545 33.0917C238.338 32.6946 239.264 32.4298 239.793 31.768C240.587 30.7091 239.132 29.3854 238.338 30.312C237.942 30.8414 236.619 31.2385 236.09 31.5033C235.164 31.9004 234.238 32.4298 233.445 32.9593C231.593 34.0182 229.741 35.0772 228.022 36.4008C224.848 38.6511 221.805 41.166 218.896 43.9457C213.208 49.6375 208.447 56.2558 204.347 63.1389C194.956 79.0229 188.872 96.6276 186.756 114.894C185.698 124.292 185.565 133.823 186.491 143.353C187.417 151.957 188.74 161.09 192.443 169.032C194.03 172.474 196.014 175.65 198.924 178.033C202.231 180.945 206.331 182.004 210.431 183.195C214.399 184.387 219.557 186.372 220.747 191.005C221.805 195.241 218.102 198.55 215.325 201.065C212.812 203.315 210.695 205.565 208.976 208.345C206.992 211.522 205.405 214.831 203.95 218.405C202.495 221.979 201.305 225.685 200.776 229.391C200.379 232.171 200.247 235.083 201.437 237.73C201.966 237.333 202.627 237.069 203.156 236.671C202.627 235.745 203.156 234.289 203.421 233.362C203.95 231.509 204.876 229.656 205.802 227.803C207.786 224.097 210.166 220.39 212.944 217.346C213.87 216.419 214.928 215.228 216.25 215.096C218.367 214.831 220.218 216.684 221.938 217.478C224.318 218.67 226.567 218.537 229.08 218.14C232.387 217.611 235.561 217.081 238.735 216.419C247.465 214.566 256.855 211.919 263.997 206.227C268.23 202.918 271.272 198.285 271.404 192.858C271.536 187.563 269.023 182.533 266.114 178.298C262.543 173.268 258.046 169.032 253.152 165.193C246.274 159.766 238.074 155.928 232.122 149.442C224.98 141.5 220.483 131.837 219.292 121.115C217.705 107.085 218.234 92.5242 221.276 78.6258C222.864 71.478 224.715 64.0654 228.551 57.8442C230.403 54.7998 232.651 52.0201 234.9 49.2404C236.883 46.7254 239.132 44.3428 241.909 42.7544C244.687 41.0337 247.861 40.2395 251.036 40.3718C251.565 40.3718 251.961 39.8424 252.094 39.3129C252.491 34.8124 252.491 29.3854 248.126 26.7381C244.555 24.4878 240.19 26.4733 238.471 30.0472C237.545 32.0327 239.264 33.0917 239.793 31.9004Z" fill="#CF9C98"/>
<path d="M252.49 36.5332C262.278 68.0364 287.143 76.905 306.983 101.79C321.928 120.586 345.339 124.689 365.311 120.586C380.521 117.542 394.938 108.805 410.016 104.305C425.094 99.8044 442.156 100.069 454.324 113.041C468.476 127.998 473.37 156.722 488.712 169.032C500.087 178.033 514.636 175.65 526.275 167.179C537.914 158.84 547.04 145.338 555.902 131.969C559.605 126.278 563.705 120.321 569.26 119.395C574.683 118.468 580.767 126.41 578.254 133.293C581.429 123.763 575.477 111.982 568.07 109.6C560.663 107.349 553.124 111.982 546.908 118.071C540.692 124.16 535.401 131.969 528.92 137.264C520.059 144.412 506.832 151.427 496.913 147.986C470.063 138.588 449.959 98.3484 422.977 90.4064C404.99 85.1117 395.202 87.759 377.347 93.9803C337.668 107.746 287.143 106.555 252.49 35.8713V36.5332Z" fill="#CF9C98"/>
<path d="M251.564 36.7979C255.665 49.9022 263.468 60.8886 273.256 70.419C282.911 79.6847 293.492 87.8914 302.353 97.8189C304.866 100.599 307.115 103.643 309.76 106.423C312.141 108.938 314.786 111.188 317.696 113.173C323.251 117.012 329.6 119.792 336.081 121.38C349.704 124.689 363.856 123.101 376.95 118.468C392.16 113.041 406.709 104.172 423.11 102.849C430.12 102.319 437.394 103.246 443.743 106.423C450.091 109.599 454.985 114.629 458.821 120.454C466.228 131.572 470.328 144.544 477.073 156.193C480.115 161.487 483.686 166.517 488.58 170.223C494.267 174.591 501.41 176.445 508.552 175.65C524.027 173.93 535.666 161.752 544.66 149.971C549.818 143.221 554.183 135.94 559.076 129.057C561.193 126.013 563.705 122.704 567.144 121.115C570.319 119.659 573.361 120.851 575.477 123.498C577.593 126.145 578.387 129.719 577.196 133.028C577.858 133.161 578.519 133.425 579.048 133.558C581.164 126.94 579.445 119.527 575.345 114.1C571.244 108.673 564.764 106.82 558.283 109.07C550.479 111.85 544.792 118.6 539.501 124.689C536.592 127.998 533.814 131.44 530.64 134.484C527.73 137.264 524.291 139.647 520.852 141.765C514.371 145.603 506.039 149.442 498.367 147.589C492.416 146.133 486.861 142.294 482.099 138.588C471.254 130.116 462.26 119.527 452.604 109.864C443.611 100.996 433.691 92.3918 421.258 88.9503C413.851 86.9648 406.18 86.0383 398.509 87.0972C390.573 88.1561 383.034 91.0682 375.495 93.5831C356.449 99.9367 335.816 102.319 316.241 96.6276C290.847 89.0827 272.197 68.8306 259.236 46.4607C257.119 42.7544 255.135 39.0481 253.284 35.2095C252.887 34.2829 251.432 34.8124 251.432 35.739C251.432 36.0037 251.432 36.2684 251.432 36.5332C251.432 37.8568 253.416 37.8568 253.416 36.5332C253.416 36.2684 253.416 36.0037 253.416 35.739C252.755 35.8713 252.226 36.1361 251.564 36.2684C263.468 60.4915 280.795 83.788 306.189 94.9068C324.97 103.114 345.868 103.246 365.443 98.4807C378.272 95.3039 390.573 88.9503 404.064 88.5532C411.603 88.2885 419.671 89.8769 426.681 92.7889C432.368 95.3039 437.526 98.8778 442.288 102.981C452.737 111.85 461.598 122.307 471.386 131.837C476.015 136.205 480.909 140.441 486.332 143.882C491.49 147.192 497.309 150.236 503.658 149.839C511.329 149.442 518.604 145.736 524.82 141.5C531.83 136.735 536.988 130.646 542.543 124.292C547.834 118.203 554.447 110.658 563.044 109.997C570.451 109.467 575.477 115.821 577.329 122.439C578.254 125.881 578.254 129.587 577.196 133.028C576.8 134.22 578.651 134.749 579.048 133.558C580.9 127.998 577.99 120.718 572.17 118.733C565.689 116.483 560.267 123.763 557.092 128.263C547.569 141.897 539.105 156.987 525.217 166.649C518.868 171.018 511.329 174.062 503.526 173.665C496.119 173.268 489.77 169.562 484.877 164.135C476.147 154.207 471.783 140.97 465.831 129.19C463.053 123.498 459.879 118.071 455.646 113.306C451.017 108.011 444.933 104.172 438.055 102.187C423.507 98.0836 408.825 102.981 395.467 108.541C387.399 111.85 379.463 115.688 370.998 118.071C364.253 120.056 357.243 121.115 350.233 120.983C336.345 120.851 322.457 116.085 312.405 106.423C309.628 103.775 307.379 100.863 304.999 97.9512C302.75 95.3039 300.369 92.7889 297.856 90.4063C292.963 85.6412 287.805 81.1407 282.778 76.6402C272.859 67.904 263.336 58.6384 257.384 46.593C255.797 43.2839 254.474 39.8423 253.284 36.4008C253.019 35.0771 251.168 35.6066 251.564 36.7979Z" fill="#CF9C98"/>
<path d="M243.893 13.369C246.01 4.36805 258.839 0.661785 265.717 0.926518C272.594 1.19125 278.943 6.35355 284.63 11.7806C297.063 23.6936 321.664 35.7389 335.155 45.4017C347.059 54.1379 362.401 56.1234 377.876 55.8586C386.87 55.7263 392.557 41.1659 400.096 34.4153C413.852 21.9728 431.707 19.4578 447.579 25.1496C463.45 30.8414 477.602 44.2104 488.977 60.7562C497.839 73.7281 505.642 89.0826 517.149 96.7599C527.73 103.908 540.427 103.643 551.802 99.2749C563.177 95.0391 573.625 86.9648 583.942 79.0228C577.461 86.1706 570.98 93.186 564.499 100.334C558.812 106.555 552.86 113.041 545.982 116.218C534.079 121.777 520.588 117.144 509.742 108.276C498.897 99.4072 489.903 86.7 480.512 74.9194C471.121 63.1388 461.069 51.4905 449.034 46.593C413.984 32.4298 372.85 74.6547 342.958 53.0789C326.955 41.563 297.592 19.7226 279.604 18.3989C273.785 18.0018 267.965 19.9873 262.146 19.7226C256.326 19.4578 245.877 20.9139 243.497 13.5013L243.893 13.369Z" fill="#CF9C98"/>
<path d="M244.819 13.6337C246.274 8.2067 251.432 5.0299 256.591 3.30914C262.146 1.58837 267.701 1.32364 272.859 4.10334C279.208 7.4125 283.837 12.9719 289.392 17.34C294.55 21.4434 300.105 25.0173 305.66 28.4588C311.48 32.0327 317.432 35.4742 323.251 39.0481C325.896 40.6365 328.409 42.2249 330.922 43.9457C333.568 45.6664 336.081 47.6519 338.858 49.2403C345.075 52.6819 351.952 54.7997 358.83 55.8587C362.401 56.3881 365.84 56.7852 369.411 56.9176C372.585 57.05 376.289 57.4471 379.463 56.7852C384.357 55.7263 387.796 51.3582 390.705 47.5196C394.409 42.622 397.583 37.5921 402.345 33.6211C413.322 24.6202 427.871 21.311 441.627 24.4878C455.118 27.6646 466.624 36.2684 475.883 46.1959C480.909 51.6229 485.406 57.4471 489.506 63.6683C493.606 69.7571 497.31 75.9784 501.542 81.9349C505.378 87.2295 509.478 92.3918 514.768 96.3628C520.323 100.599 527.069 102.981 534.079 103.378C549.289 104.04 562.912 95.8334 574.816 87.2295C577.99 84.8469 581.164 82.4643 584.339 80.0817C583.942 79.5523 583.545 79.0228 583.148 78.4933C577.197 84.9793 571.245 91.4653 565.293 98.0836C560.002 103.908 554.712 110.261 547.834 114.232C533.946 122.439 518.207 114.894 507.362 105.099C495.59 94.3773 486.729 80.8759 476.677 68.6982C467.947 58.1089 457.631 47.3872 443.743 43.9457C432.897 41.2983 421.523 43.2838 410.809 46.3283C399.699 49.5051 388.854 53.8732 377.611 56.5205C367.427 58.9031 356.449 59.6973 346.926 54.535C342.165 52.02 337.932 48.3138 333.568 45.2693C328.277 41.5631 322.987 37.8568 317.564 34.4153C307.512 27.9293 296.799 21.311 285.027 18.5313C282.382 17.8695 279.737 17.4724 276.959 17.6047C272.991 17.7371 269.156 18.6637 265.188 18.9284C262.41 19.0608 259.5 19.0608 256.723 18.9284C254.078 18.9284 251.432 18.796 248.919 17.8695C247.861 17.4724 246.803 16.9429 246.01 16.1487C245.613 15.7516 245.216 15.2221 244.819 14.6927C244.687 14.4279 244.555 14.1632 244.422 13.8985C244.555 14.1632 244.29 14.1632 244.555 13.7661C245.216 12.7072 243.497 11.6482 242.835 12.7072C241.645 14.5603 243.761 16.9429 245.216 18.1342C247.068 19.5902 249.448 20.2521 251.829 20.6492C254.474 21.0463 256.987 21.0463 259.633 21.0463C263.071 21.0463 266.378 20.9139 269.685 20.5168C273.52 19.9873 277.356 19.4579 281.192 19.9873C283.705 20.3844 286.218 21.0463 288.598 21.8405C294.418 23.826 300.105 26.6057 305.396 29.6501C316.77 36.0037 327.484 43.6809 338.065 51.2258C342.429 54.4026 346.53 57.3147 351.688 59.0355C356.582 60.6239 361.872 60.8886 366.898 60.4915C390.176 58.6384 411.074 44.078 434.749 45.0046C440.833 45.2693 446.917 46.7254 452.34 49.7698C459.086 53.4761 464.773 58.9031 469.931 64.4625C480.777 76.3755 489.506 90.1416 500.748 101.79C510.536 112.114 524.291 122.042 539.369 119.527C546.644 118.336 552.728 113.835 557.886 108.673C563.97 102.716 569.658 96.0981 575.345 89.8769C578.387 86.5677 581.429 83.2585 584.339 79.9494C585 79.1552 584.074 77.6991 583.148 78.361C570.848 87.759 557.622 98.4807 541.882 100.996C534.343 102.187 526.54 101.26 519.794 97.5541C513.71 94.245 508.949 88.9503 504.716 83.3909C495.987 71.7426 489.242 58.7707 479.586 47.7843C470.592 37.5921 459.747 28.5912 446.785 24.0907C434.22 19.7226 420.068 20.5168 408.296 27.0028C402.609 30.0472 397.848 34.2829 393.88 39.3128C390.441 43.8133 387.531 48.9756 383.034 52.5495C380.653 54.4026 378.405 54.9321 375.495 54.9321C371.792 54.9321 368.088 54.7997 364.385 54.535C356.978 53.8732 349.439 52.2848 342.562 49.108C336.742 46.3283 331.716 42.2249 326.161 38.7834C320.474 35.2095 314.522 31.7679 308.835 28.3264C303.015 24.7525 297.328 21.1786 291.905 17.2076C286.482 13.1043 281.853 7.94197 276.166 4.10334C271.007 0.661809 265.717 -0.661857 259.633 0.397075C254.607 1.19127 249.448 3.30914 245.877 6.88304C244.158 8.6038 242.967 10.7217 242.306 13.1043C242.703 14.2956 244.555 14.825 244.819 13.6337Z" fill="#CF9C98"/>
<path d="M243.893 19.3254C242.835 24.8848 252.623 28.0616 255.929 31.5031C262.146 37.7243 268.362 43.6808 274.446 50.2991C286.085 63.0063 307.247 65.6537 321.135 75.3164C325.5 78.2285 331.452 82.8613 339.387 81.2729C421.523 64.33 425.094 60.0943 455.382 78.758C464.244 84.3174 493.871 109.732 550.479 89.0826C519.398 95.039 510.536 97.4216 459.218 57.9764C442.42 45.0045 422.845 42.7542 404.064 48.446C392.293 52.0199 381.447 60.4914 369.808 65.1242C358.169 69.757 344.413 70.1541 335.287 59.1677C330.261 53.2112 326.822 48.5784 322.193 42.0924C316.506 34.2828 310.686 22.8993 303.015 20.1196C291.244 15.8838 255.665 20.649 243.497 22.2374" fill="#CF9C98"/>
<path d="M242.967 19.0607C242.042 24.6201 248.655 27.6645 252.49 30.1795C255.665 32.2974 258.178 35.3418 260.955 37.9891C264.262 41.1659 267.436 44.4751 270.61 47.7842C273.256 50.5639 275.901 53.476 278.943 55.7262C281.72 57.8441 284.763 59.5649 287.805 61.0209C294.418 64.1977 301.295 66.7127 308.041 69.4923C311.215 70.816 314.389 72.272 317.299 74.1252C320.209 75.8459 322.722 77.9638 325.632 79.5522C328.542 81.273 331.848 82.4643 335.287 82.4643C339.784 82.5966 344.413 81.0082 348.646 80.0817C362.798 77.1696 376.818 73.9928 390.97 71.2131C405.254 68.4334 420.994 64.8595 435.146 69.6247C447.182 73.5957 456.837 82.0672 467.815 87.8913C489.374 99.4072 514.239 100.201 537.517 93.9802C541.882 92.7889 546.115 91.4652 550.215 90.0092C551.405 89.6121 551.008 87.8913 549.686 88.156C542.543 89.4797 535.401 91.0681 528.127 91.4652C521.514 91.7299 515.033 90.8034 508.684 88.5531C499.558 85.244 491.225 80.0817 483.29 74.6546C477.47 70.816 471.915 66.7127 466.36 62.4769C460.011 57.7117 453.927 52.8142 446.653 49.505C433.823 43.8132 419.539 43.1514 406.048 46.7253C398.773 48.5784 392.293 52.02 385.679 55.5939C379.198 59.1678 372.718 63.1388 365.575 65.389C359.623 67.2421 353.275 67.904 347.191 66.1832C340.181 64.1977 335.816 59.0354 331.451 53.476C326.954 47.7842 322.722 41.9601 318.622 36.0036C315.315 30.9737 311.876 25.4143 306.983 21.5757C303.544 18.9283 299.444 18.1341 295.211 17.737C290.185 17.3399 285.159 17.3399 280.133 17.6047C269.42 18.0018 258.707 19.1931 248.126 20.5167C246.406 20.7815 244.687 20.9138 242.835 21.1786C241.645 21.3109 241.512 23.2964 242.835 23.1641C252.49 21.9728 262.146 20.7815 271.801 19.9873C277.224 19.5902 282.779 19.3254 288.201 19.3254C292.434 19.3254 296.931 19.4578 301.163 20.6491C306.85 22.3699 310.686 27.7969 313.86 32.4297C317.828 38.1215 321.664 43.8132 325.764 49.3726C329.864 54.7997 333.964 61.0209 339.784 64.8595C344.81 68.1687 350.894 69.36 356.714 68.9629C371.13 67.9039 382.902 58.5059 395.467 52.5494C408.561 46.3282 423.903 44.6074 437.923 48.4461C445.198 50.5639 451.943 54.0055 458.027 58.6383C464.111 63.2711 470.328 67.904 476.544 72.4044C485.141 78.4933 494.003 84.4498 503.658 88.5531C510.007 91.3328 516.62 93.0536 523.63 93.3183C530.508 93.4507 537.385 92.2594 543.998 91.0681C545.982 90.671 547.966 90.2739 549.95 90.0092C549.818 89.3473 549.553 88.6855 549.421 88.156C524.82 97.0246 497.442 99.8043 473.238 88.6855C461.598 83.2585 451.679 74.6546 439.907 69.6247C434.484 67.3745 428.929 65.9185 423.11 65.6537C415.703 65.2566 408.164 66.3156 400.89 67.6392C388.986 69.6247 377.214 72.272 365.443 74.787C357.11 76.5078 348.778 78.3609 340.445 80.0817C336.213 81.0082 332.377 81.0082 328.277 79.1551C325.367 77.8314 322.854 75.8459 320.209 74.1252C308.438 66.3156 294.021 63.6682 282.117 56.1233C279.075 54.2702 276.43 52.02 274.049 49.3726C270.875 46.0635 267.701 42.7543 264.394 39.4451C261.352 36.5331 258.574 33.2239 255.268 30.4442C253.152 28.7235 250.771 27.5322 248.522 25.9438C246.538 24.6201 243.761 22.6346 244.158 19.8549C245.084 18.3989 243.1 17.737 242.967 19.0607Z" fill="#CF9C98"/>
<path d="M251.697 28.9882C255.664 42.7544 273.255 64.7272 281.324 74.2576C289.788 84.3175 304.47 80.4788 314.522 87.0972C323.648 92.9213 332.774 98.8778 342.694 100.996C359.094 104.437 380.785 102.055 397.318 99.5396C414.909 96.8923 436.865 97.2894 447.711 102.187C456.837 106.29 462.524 111.585 468.344 128.528C466.095 108.938 455.382 92.6566 442.42 84.4498C429.458 76.2431 414.777 75.3165 400.625 77.8315C386.605 80.3465 372.85 86.303 359.227 91.3329C352.878 93.7155 346.265 95.8333 339.652 94.9068C331.054 93.5831 323.516 86.9648 316.241 80.6112C304.602 70.419 277.356 61.1533 265.716 50.9611C259.632 45.5341 253.019 38.5186 251.3 28.7235L251.697 28.9882Z" fill="#CF9C98"/>
<path d="M250.771 29.253C252.887 36.5331 256.987 43.1514 261.087 49.3727C265.584 56.2557 270.61 62.7417 275.769 69.0953C277.885 71.6103 279.869 74.5223 282.249 76.7726C285.159 79.4199 288.73 81.0083 292.434 82.0672C296.402 83.1262 300.369 83.6556 304.337 84.4498C308.702 85.3764 312.273 86.9648 316.109 89.4797C324.97 95.1715 334.097 100.731 344.545 102.584C354.201 104.305 364.253 104.172 374.04 103.511C383.695 102.849 393.218 101.128 402.873 100.069C412.396 99.0101 422.184 98.7454 431.707 99.672C438.981 100.334 445.991 101.922 452.208 105.893C458.027 109.599 461.731 115.424 464.508 121.645C465.566 124.027 466.492 126.41 467.286 128.925C467.682 129.852 469.402 129.852 469.27 128.66C467.286 112.247 459.35 96.0981 446.123 86.0382C430.649 74.2576 410.677 74.1252 392.557 78.7581C382.24 81.4054 372.321 85.5088 362.401 89.215C357.375 91.0681 352.349 93.186 347.058 93.9802C341.768 94.7744 336.742 93.8478 331.98 91.3329C324.177 87.2295 318.49 80.4788 311.083 75.7136C304.47 71.3455 297.327 67.904 290.185 64.4625C276.43 57.5794 260.955 50.1669 254.21 35.3418C253.152 33.224 252.49 30.8414 252.093 28.4588C251.829 28.5911 251.3 28.8559 250.771 29.253C250.771 29.3853 250.903 29.5177 251.035 29.6501C251.829 30.709 253.152 29.253 252.49 28.194C252.358 28.0617 252.226 27.9293 252.226 27.7969C251.564 26.8704 250.374 27.9293 250.506 28.7235C253.416 44.4751 267.965 54.535 281.191 61.5504C288.466 65.389 295.873 68.8306 303.015 72.8016C306.189 74.5223 309.363 76.3755 312.405 78.4933C315.844 81.0083 318.886 84.0527 322.325 86.7001C325.896 89.6121 329.6 92.2594 333.964 93.9802C338.329 95.8333 342.958 96.3628 347.587 95.5686C352.878 94.7744 357.904 92.7889 362.93 90.9358C367.956 89.0826 372.85 87.0972 377.876 85.244C396.393 78.4933 417.29 73.331 436.204 81.9349C451.943 89.0827 462.524 104.834 466.36 121.38C466.889 123.63 467.286 126.013 467.55 128.396C468.211 128.263 468.873 128.263 469.534 128.131C467.021 120.851 463.847 113.173 458.292 107.746C453.927 103.511 448.24 100.731 442.42 99.1425C433.823 97.0246 424.697 96.6275 415.835 96.8923C406.18 97.157 396.657 98.7454 387.134 99.9367C377.082 101.128 366.766 101.922 356.714 101.525C351.82 101.26 346.926 100.863 342.165 99.672C336.874 98.3483 331.98 96.0981 327.219 93.4507C322.722 90.9358 318.49 87.759 313.993 85.244C310.554 83.3909 306.586 82.4643 302.75 81.6701C298.782 80.8759 294.814 80.3465 290.979 79.0228C287.011 77.6991 284.101 75.3165 281.456 72.1397C276.562 66.3156 271.801 60.2267 267.436 54.1379C262.674 47.5195 258.045 40.6365 254.739 33.0916C254.077 31.5032 253.548 30.0472 253.019 28.3264C252.358 27.3998 250.374 27.9293 250.771 29.253Z" fill="#CF9C98"/>
<path d="M251.036 27.6647C254.474 36.4009 276.033 47.5197 281.456 54.0056C291.111 65.5215 303.147 72.4046 315.051 79.0229C327.484 86.0383 340.313 93.1861 353.672 94.3774C384.886 97.4218 415.968 68.8307 446.124 80.2142C448.769 81.2731 451.547 82.5968 453.531 85.3765C454.456 86.5678 455.118 88.0238 455.779 89.4798C459.482 96.8924 463.054 104.305 466.757 111.717C470.857 119.924 474.957 128.263 480.38 134.882C489.903 146.397 503.262 151.427 515.694 148.383C528.127 145.206 539.369 133.955 545.321 118.6C530.375 126.145 513.314 124.954 498.897 115.424C483.422 105.099 471.651 86.1707 456.44 75.1843C435.014 59.8297 409.487 62.08 385.68 66.4481C361.872 70.8162 337.271 76.7727 313.993 67.9041C297.063 61.2858 261.749 47.652 251.3 27.797L251.036 27.6647Z" fill="#CF9C98"/>
<path d="M250.11 27.9294C251.565 31.5032 254.739 34.4153 257.649 36.7979C261.484 40.1071 265.717 42.8868 269.817 45.7988C273.256 48.3138 276.959 50.6964 280.001 53.7408C282.118 55.8587 283.837 58.1089 285.953 60.2268C288.334 62.477 290.847 64.5949 293.36 66.5804C298.518 70.5514 304.206 73.9929 309.893 77.1697C316.109 80.7436 322.326 84.3175 328.806 87.4943C335.155 90.6711 341.768 93.3184 348.778 94.6421C354.73 95.8334 360.682 95.8334 366.634 94.9068C378.67 93.1861 390.044 88.5532 401.551 84.7146C412.661 80.876 424.433 77.4344 436.204 78.7581C442.024 79.4199 449.563 81.1407 453.002 86.303C455.118 89.3474 456.573 93.0537 458.16 96.3629C459.879 99.9368 461.599 103.378 463.318 106.952C469.402 119.13 474.957 132.896 485.803 141.765C494.664 148.912 506.436 152.354 517.546 148.912C528.259 145.603 536.724 136.999 542.147 127.337C543.734 124.557 545.057 121.777 546.247 118.865C546.644 117.939 545.454 117.409 544.792 117.806C534.211 123.101 522.175 124.027 510.933 120.321C500.087 116.747 491.622 109.07 483.819 100.996C476.148 93.0537 469.138 84.3175 460.673 77.3021C452.076 70.2866 442.024 65.5215 431.178 63.536C408.164 59.3002 385.283 66.0509 362.666 69.6248C349.969 71.6103 336.875 72.6692 324.31 69.8895C315.58 68.0364 307.115 64.3302 299.047 60.7563C290.582 57.1824 282.118 53.079 274.182 48.1814C266.775 43.5486 259.368 38.1216 254.342 30.9738C253.416 29.6501 252.755 27.6646 251.432 26.7381C250.374 25.9439 249.449 27.6646 250.374 28.4588C250.771 28.7236 251.3 30.0472 251.565 30.5767C252.094 31.3709 252.623 32.2974 253.284 33.0916C254.475 34.68 255.929 36.2684 257.384 37.7245C260.426 40.7689 263.865 43.5486 267.304 46.0636C275.108 51.623 283.572 55.9911 292.17 59.9621C299.444 63.2712 306.983 66.3157 314.522 69.0954C326.426 73.4634 339.388 74.1253 351.953 72.8016C375.892 70.5514 399.303 62.3447 423.507 64.3302C435.146 65.3891 446.388 68.963 455.911 75.846C465.038 82.332 472.18 91.0682 479.719 99.2749C487.126 107.349 495.194 115.424 505.246 120.056C515.562 124.689 527.201 125.748 538.047 122.439C540.692 121.645 543.205 120.586 545.718 119.395C545.189 118.998 544.792 118.6 544.263 118.336C539.899 129.19 532.492 139.514 521.911 144.941C511.462 150.236 499.426 148.912 489.771 142.426C478.396 134.749 472.444 121.513 466.625 109.6C463.186 102.716 459.879 95.701 456.44 88.818C455.118 86.0383 453.531 83.5233 450.885 81.6702C448.637 80.0818 445.859 79.1552 443.214 78.361C420.465 71.7427 397.848 85.3764 376.421 91.0682C370.734 92.5242 365.047 93.5832 359.227 93.7155C352.614 93.8479 346.001 92.5242 339.784 90.274C332.907 87.759 326.426 84.4499 320.077 80.876C314.39 77.6992 308.57 74.5224 303.147 71.0808C297.592 67.6393 292.302 63.6683 287.54 59.1679C284.101 55.8587 281.324 52.1524 277.488 49.2404C270.082 43.4162 261.352 38.7834 254.871 31.768C253.681 30.5767 252.623 29.1206 251.962 27.5323C251.565 26.2086 249.581 26.7381 250.11 27.9294Z" fill="#CF9C98"/>
<path d="M288.862 148.383C294.417 142.029 298.385 136.47 304.602 123.763C305.131 140.573 317.167 155.663 328.541 161.09C339.916 166.649 352.481 165.061 364.385 161.884C376.288 158.575 387.927 153.678 399.963 152.486C411.999 151.295 424.961 154.472 434.087 165.591C437.129 169.297 439.907 173.93 443.478 176.577C449.033 180.416 455.646 178.695 461.598 176.312C474.692 171.15 487.257 162.943 498.499 152.354C488.844 170.356 477.073 185.975 463.714 198.55C452.34 209.271 440.039 217.611 427.739 225.817C417.819 232.436 407.899 239.186 397.318 242.893C377.479 249.776 355.655 245.54 337.932 231.112C316.505 213.772 298.914 180.945 286.746 150.765L288.862 148.383Z" fill="#CF9C98"/>
<path d="M289.524 149.045C296.137 141.5 301.031 133.161 305.395 124.16C304.734 124.027 304.205 123.763 303.544 123.63C304.205 137.794 312.273 151.692 323.912 159.502C337.8 168.9 354.862 165.723 369.94 161.09C385.018 156.457 401.154 149.971 417.025 155.001C424.564 157.384 430.649 162.281 435.278 168.503C437.394 171.415 439.51 174.459 442.42 176.709C445.33 178.96 449.033 179.886 452.737 179.489C456.969 179.092 460.937 177.503 464.773 175.915C468.873 174.194 472.841 172.076 476.808 169.826C485.009 165.061 492.548 159.237 499.425 152.883C498.896 152.486 498.367 152.089 497.838 151.692C488.58 168.9 477.073 184.784 462.789 198.153C455.117 205.3 446.785 211.522 438.188 217.478C429.723 223.302 421.258 229.259 412.396 234.421C403.931 239.451 394.805 243.422 384.886 244.481C376.024 245.54 366.898 244.349 358.565 241.437C341.239 235.348 328.277 221.714 317.828 207.154C306.718 191.667 297.989 174.459 290.582 156.987C289.656 154.736 288.73 152.619 287.804 150.368C287.672 150.633 287.672 151.03 287.54 151.295C288.201 150.633 288.862 149.839 289.524 149.045C290.317 148.118 288.862 146.662 288.069 147.589C287.408 148.383 286.746 149.177 286.085 150.104C285.82 150.368 285.688 150.765 285.82 151.03C293.227 169.164 301.824 187.034 312.67 203.447C322.722 218.405 335.022 232.965 351.555 240.907C359.756 244.746 368.617 246.996 377.611 247.128C386.87 247.261 395.996 245.01 404.46 241.039C414.248 236.407 423.242 230.185 432.236 224.096C440.833 218.272 449.43 212.316 457.366 205.565C472.841 192.726 485.538 176.842 495.59 159.502C496.912 157.251 498.103 155.001 499.425 152.751C499.955 151.692 498.764 150.765 497.838 151.56C491.754 157.251 485.141 162.414 478.131 166.782C471.65 170.753 464.64 174.591 457.234 176.709C453.398 177.768 449.165 178.298 445.462 176.445C441.891 174.591 439.643 171.15 437.262 167.973C433.029 162.414 428.136 157.648 421.787 154.736C408.032 148.515 393.218 151.692 379.463 156.06C363.988 160.825 346.926 167.576 330.922 161.09C316.505 155.266 306.189 139.117 305.528 123.763C305.528 122.836 304.205 122.307 303.676 123.233C299.311 131.969 294.55 140.308 288.069 147.721C287.275 148.515 288.73 149.971 289.524 149.045Z" fill="#CF9C98"/>
<path d="M306.189 123.763C304.866 133.161 308.173 143.088 313.464 149.177C318.754 155.266 325.632 158.046 332.509 158.84C339.387 159.634 346.265 158.575 353.143 157.913C378.537 155.398 391.631 132.896 429.194 165.326C437.791 172.738 449.43 180.416 459.482 179.357C463.185 178.96 489.374 192.99 495.59 182.004C485.009 188.225 492.151 164.267 454.192 165.723C442.685 166.12 431.707 138.455 420.861 133.028C403.799 124.292 384.753 117.806 367.03 122.968C354.068 126.675 341.239 124.027 309.892 105.099C316.902 108.673 315.977 116.747 314.257 119.792C312.538 122.836 308.967 124.689 306.321 123.366L306.189 123.763Z" fill="#CF9C98"/>
<path d="M305.131 123.763C303.941 133.028 306.718 143.088 312.935 150.104C319.68 157.649 329.467 160.296 339.255 160.031C344.413 159.899 349.704 159.369 354.862 158.575C357.772 158.178 360.681 157.516 363.459 156.722C368.75 155.134 373.908 153.016 379.066 151.295C384.357 149.574 389.779 148.515 395.334 148.912C402.741 149.574 409.751 152.751 415.968 156.59C424.697 162.149 431.839 169.826 440.833 174.989C444.933 177.371 449.43 179.357 454.192 180.019C456.705 180.416 459.085 179.886 461.334 180.68C466.757 182.269 472.047 184.519 477.602 185.843C482.628 187.034 489.241 188.225 493.738 184.916C494.664 184.254 495.458 183.328 496.119 182.269C496.648 181.342 495.59 180.416 494.796 180.945C492.283 182.401 490.961 181.872 489.374 179.754C487.257 176.974 485.406 174.062 482.628 171.812C478.131 167.973 472.444 165.988 466.624 165.061C462.26 164.399 457.895 164.664 453.398 164.532C450.62 164.399 448.107 162.546 446.124 160.693C440.436 155.398 436.336 148.515 431.707 142.426C429.591 139.647 427.474 136.867 424.829 134.617C421.655 131.837 417.555 130.116 413.719 128.396C403.403 123.763 392.425 120.189 381.05 119.924C375.892 119.792 370.866 120.586 365.84 122.042C363.591 122.704 361.211 123.101 358.962 123.233C353.275 123.498 347.72 122.307 342.429 120.454C333.832 117.541 325.764 113.173 317.96 108.673C315.315 107.217 312.802 105.628 310.157 104.04C309.76 104.57 309.496 105.231 309.099 105.761C312.802 107.746 314.654 111.32 314.125 115.424C313.728 118.865 310.554 124.16 306.454 122.174C305.792 121.91 304.866 122.174 304.999 122.969C305.131 123.366 305.131 123.63 305.131 123.763C305.263 125.086 307.247 125.086 307.115 123.763C307.115 123.63 307.115 123.366 307.115 123.233C306.586 123.498 306.057 123.763 305.66 124.027C310.686 126.41 315.315 121.38 316.109 116.747C317.035 111.585 314.918 106.555 310.289 104.04C309.099 103.378 308.173 105.099 309.231 105.761C317.961 111.056 326.954 116.218 336.477 120.189C342.297 122.571 348.381 124.689 354.73 125.086C357.243 125.219 359.623 125.219 362.136 124.822C365.443 124.292 368.485 123.233 371.792 122.704C383.431 120.586 395.334 123.233 406.18 127.337C409.09 128.396 412 129.719 414.909 131.043C417.158 132.102 419.406 133.028 421.39 134.352C424.168 136.205 426.416 138.853 428.533 141.367C433.426 147.456 437.526 154.339 442.949 160.164C445.065 162.414 447.446 164.664 450.356 165.855C453.795 167.311 457.763 166.385 461.334 166.649C467.947 167.047 474.825 168.37 480.247 172.341C483.289 174.591 485.406 177.636 487.654 180.548C489.241 182.666 491.093 184.387 493.871 183.592C494.664 183.328 495.325 183.063 495.987 182.666C495.59 182.269 495.061 181.739 494.664 181.342C491.887 186.24 484.877 185.313 480.247 184.387C474.56 183.195 469.137 181.077 463.715 179.224C462.26 178.695 460.805 178.165 459.218 178.165C454.456 178.298 450.091 177.239 445.727 175.121C436.468 170.753 429.326 163.34 421.126 157.516C414.909 153.148 408.164 149.309 400.625 147.589C395.202 146.397 389.647 146.53 384.224 147.721C373.511 150.104 363.856 155.663 352.746 156.722C342.429 157.781 331.584 159.502 321.928 154.472C313.067 149.839 307.909 140.441 306.983 130.778C306.718 128.396 306.85 126.013 307.115 123.63C307.379 122.439 305.395 122.571 305.131 123.763Z" fill="#CF9C98"/>
<path d="M370.602 122.042C384.225 114.629 398.641 109.07 413.19 108.011C427.871 106.952 442.817 110.526 455.647 120.586C467.815 130.116 476.148 147.456 488.448 156.722C500.087 165.59 495.855 175.386 526.937 174.856C517.546 178.033 513.578 181.739 482.099 168.635C476.809 166.517 471.122 167.046 466.096 164.002C459.747 160.163 454.853 153.016 449.43 147.191C438.453 135.411 424.962 128.66 411.339 125.219C397.715 121.777 384.754 122.439 370.866 122.439L370.602 122.042Z" fill="#CF9C98"/>
<path d="M371.13 122.836C384.886 115.291 400.096 109.335 415.968 108.673C430.517 108.143 445.33 112.776 456.572 122.307C466.757 130.91 473.238 142.956 482.496 152.354C485.67 155.663 489.506 158.178 492.548 161.62C494.4 163.737 496.119 166.12 498.103 168.238C505.51 175.783 517.281 175.783 527.069 175.65C526.936 174.989 526.936 174.327 526.804 173.665C522.439 175.121 518.472 176.709 513.71 176.709C510.139 176.577 506.436 175.915 502.997 174.856C497.309 173.268 491.754 171.282 486.199 169.032C482.761 167.708 479.586 166.517 475.883 165.855C472.444 165.193 469.137 164.664 466.095 162.811C460.54 159.237 456.44 153.545 452.075 148.648C443.346 138.588 432.236 131.175 419.671 126.675C412.264 124.027 404.461 122.439 396.525 121.777C387.928 121.115 379.331 121.38 370.601 121.38C370.866 121.512 371.13 121.645 371.395 121.91C371.263 121.777 371.263 121.645 371.13 121.512C370.601 120.321 368.882 121.38 369.411 122.571C369.543 122.704 369.543 122.836 369.675 122.968C369.808 123.233 370.205 123.498 370.469 123.498C385.679 123.498 400.89 122.968 415.703 127.601C428.665 131.705 440.436 138.985 449.562 149.045C453.927 153.942 457.895 159.369 463.186 163.34C465.831 165.326 468.608 166.517 471.783 167.179C475.354 167.973 478.793 168.37 482.099 169.694C491.49 173.533 501.277 177.636 511.462 178.562C514.239 178.827 517.149 178.695 519.794 177.901C522.175 177.371 524.556 176.312 526.804 175.518C527.862 175.121 527.73 173.533 526.54 173.533C517.546 173.665 506.303 173.93 499.426 167.179C497.309 165.193 495.722 162.678 493.738 160.561C490.829 157.119 487.125 154.736 483.951 151.56C474.428 142.162 467.947 130.116 457.895 121.248C447.182 111.85 433.162 106.952 419.142 106.555C401.551 106.158 384.753 112.644 369.543 120.983C369.014 121.777 370.072 123.498 371.13 122.836Z" fill="#CF9C98"/>
<path d="M242.042 94.9069C231.46 84.3176 217.573 81.935 205.008 85.6412C206.066 106.687 212.944 115.424 225.773 115.159C228.683 115.159 231.328 113.968 233.444 111.982C237.809 107.879 240.058 105.099 242.042 94.9069Z" fill="white" stroke="white" stroke-width="0.5" stroke-miterlimit="10"/>
<path d="M247.332 94.9068C247.861 98.2159 246.803 104.967 255.532 112.114C257.649 113.835 260.294 114.894 263.071 115.424C283.44 118.997 287.011 108.673 289.656 88.4208C272.991 83.5232 254.739 83.1261 247.332 94.9068Z" fill="white" stroke="white" stroke-width="0.5" stroke-miterlimit="10"/>
<path d="M240.587 95.4362C241.91 94.1126 246.936 94.1126 248.258 95.4362" stroke="white" stroke-width="2" stroke-miterlimit="10" stroke-linecap="round" stroke-linejoin="round"/>
<path d="M288.863 93.5831L289.656 88.2885H292.302C295.608 90.1416 297.857 91.8623 298.915 93.5831H288.863Z" fill="white" stroke="white" stroke-width="0.5" stroke-miterlimit="10"/>
</g>
<defs>
<clipPath id="clip0">
<rect width="585" height="429" fill="white"/>
</clipPath>
</defs>
</svg>
