<svg width="624" height="376" viewBox="0 0 624 376" fill="none" xmlns="http://www.w3.org/2000/svg">
<path d="M133.426 17.1726C126.42 13.3855 117.71 14.143 110.514 17.5513C103.319 20.9597 97.2592 26.2617 91.7679 31.9423C62.0391 61.6711 39.6952 98.406 26.8191 138.36" fill="#CF9C98"/>
<path d="M134.184 15.8464C112.029 4.48508 91.0109 29.2906 78.1347 44.0603C62.9863 61.481 50.1102 80.7952 39.885 101.624C34.2044 113.364 29.2811 125.294 25.3046 137.791C24.7366 139.495 27.3875 140.253 27.9556 138.549C34.7724 117.53 44.2402 97.4585 55.9802 78.7123C67.5309 60.3449 81.5431 42.5455 97.6383 27.7758C106.917 19.4441 120.172 11.8699 132.669 18.308C134.373 19.0654 135.699 16.6038 134.184 15.8464Z" fill="#CF9C98"/>
<path d="M133.426 17.1722C128.692 12.249 120.739 17.3616 114.491 20.2019C108.242 23.2316 103.697 28.5335 99.3423 33.8355C48.9738 96.1333 15.2686 171.875 2.96052 251.026C2.01375 257.464 1.06697 264.091 2.01375 270.529C2.96052 276.967 7.50501 280.565 12.807 284.731C20.0024 290.412 32.3106 288.139 41.589 287.571C61.6606 286.625 86.0874 285.678 105.97 284.731C108.81 284.542 136.456 294.388 136.077 291.548C135.698 288.897 105.402 279.429 102.751 279.618C87.2235 281.323 64.5009 279.24 48.7844 279.808C40.8315 280.187 29.2809 283.784 18.1089 278.482C9.96666 274.695 9.20921 269.015 9.01985 259.926C8.8305 250.836 11.6709 241.937 14.5112 233.226C21.5173 210.883 28.7128 188.539 35.7189 166.195C40.8315 150.289 45.9441 134.194 53.7077 119.424C71.1283 86.4762 100.857 62.0494 128.882 37.4332C132.479 34.4035 136.267 30.6164 136.267 26.0719C136.267 21.5274 137.024 17.9296 132.858 17.1722H133.426Z" fill="#CF9C98"/>
<path d="M134.373 16.2252C129.26 11.302 122.065 14.8997 116.763 17.5507C113.544 19.2549 110.325 20.7697 107.484 23.042C104.455 25.5036 101.804 28.5333 99.3421 31.563C89.117 44.0604 79.6492 57.1259 70.9389 70.5701C53.1395 97.8373 38.3698 126.998 26.6298 157.295C14.8898 187.592 6.36876 219.403 1.44553 251.594C0.309394 259.168 -1.39477 268.446 2.01363 275.452C3.33911 278.293 5.61134 280.754 8.07295 282.837C10.5346 284.92 12.9962 287.003 16.0259 288.329C22.2746 290.79 29.4701 290.033 36.0975 289.465C43.8611 288.897 51.814 288.707 59.5776 288.329C68.2879 287.95 76.8089 287.571 85.5192 287.192C89.6851 287.003 93.8508 286.814 98.0166 286.624C100.668 286.435 104.076 286.056 106.348 286.246C109.946 286.624 113.544 288.139 117.142 289.275C121.497 290.601 126.041 291.926 130.586 292.873C132.29 293.252 136.645 294.577 137.403 292.116C138.16 289.654 133.994 288.329 132.479 287.571C124.337 283.973 115.627 281.133 106.916 279.05C102.94 278.103 99.1528 278.671 94.987 278.861C87.2234 279.239 79.2705 278.861 71.5069 278.671C64.1221 278.482 56.7373 278.293 49.5418 278.482C42.1569 278.861 34.9614 280.754 27.3872 279.808C20.7598 279.05 12.9962 276.02 11.292 268.825C9.58782 261.44 10.724 253.108 12.4282 245.724C14.7004 236.824 17.7301 227.924 20.5704 219.214C23.4107 210.125 26.2511 201.036 29.2808 191.947C34.772 174.526 39.8846 156.916 46.5121 139.874C52.5714 123.968 60.903 109.199 71.5069 95.9437C81.5427 83.2569 93.0934 71.8956 105.023 61.1024C110.893 55.8004 116.952 50.4985 123.012 45.1965C125.852 42.5456 128.882 40.0839 131.722 37.433C134.184 35.1607 136.645 32.5097 137.592 29.1013C138.349 26.6397 138.349 23.2313 137.971 20.5804C137.592 18.1187 135.888 16.6039 133.615 16.0358C133.805 16.7933 133.994 17.5507 134.183 18.4975L134.373 18.3081C135.698 16.9826 133.615 15.0891 132.29 16.2252L132.101 16.4146C131.343 17.172 131.722 18.4975 132.669 18.8762C136.077 19.6336 135.32 23.4207 135.13 26.0717C134.941 30.0481 132.479 32.8884 129.639 35.3501C124.148 40.4627 118.088 45.3859 112.408 50.4985C100.668 60.7237 89.3063 71.3275 78.7024 82.8782C68.4773 94.0502 59.3882 106.169 52.1927 119.613C44.2398 134.572 39.1272 150.667 34.0146 166.763C28.5233 184.183 23.0321 201.604 17.3514 219.025C12.4282 234.362 5.61136 250.268 7.50491 266.553C8.07298 271.665 10.1559 275.831 14.7004 278.671C21.1385 282.648 28.9021 283.405 36.0975 282.648C42.725 282.08 49.163 281.133 55.7905 281.133C63.1753 281.133 70.5602 281.512 77.945 281.512C85.1405 281.701 92.336 281.701 99.5315 281.133C101.046 280.944 102.372 280.754 103.697 281.133C105.212 281.512 106.727 281.89 108.431 282.269C116.573 284.541 125.284 286.814 132.858 290.98C133.237 291.169 133.805 291.737 134.183 291.737C134.373 291.737 134.373 291.926 134.373 291.926C134.373 291.926 134.752 290.411 134.752 290.601C134.562 290.411 132.101 290.222 131.343 290.222C127.177 289.275 123.012 288.139 118.846 286.814C115.059 285.678 111.461 284.541 107.674 283.595C106.159 283.216 104.833 283.216 103.129 283.405C99.1528 283.595 95.3657 283.784 91.3892 283.973C75.1047 284.731 58.8202 285.488 42.5356 286.246C35.9082 286.624 29.0914 287.571 22.464 287.003C15.6472 286.246 9.58782 282.08 5.61136 276.589C0.688128 269.961 2.77105 259.736 3.90718 252.351C5.04331 244.588 6.55811 236.824 8.07295 229.25C11.292 213.912 15.2685 198.953 20.0024 183.994C29.4701 154.076 42.1569 124.915 57.684 97.6479C65.2582 84.0143 73.5899 70.9488 82.6789 58.0727C87.2234 51.6346 91.9573 45.1965 96.8806 38.9478C101.425 33.0778 106.159 26.6397 112.786 22.6633C115.816 20.9591 119.035 19.2549 122.254 17.9294C125.473 16.6039 129.45 15.2784 132.29 18.1187C133.805 19.4442 135.698 17.5507 134.373 16.2252Z" fill="#CF9C98"/>
<path d="M138.349 27.3975C119.603 42.9246 97.4486 59.3985 82.6789 78.9021C74.1579 90.074 68.8559 102.95 63.3646 115.826C57.8733 128.892 52.382 142.147 46.8907 155.212C38.3697 175.473 29.8488 195.734 25.4936 217.131C23.032 228.682 22.6533 242.316 31.553 250.079C38.5591 256.138 48.9736 256.138 58.252 257.653C71.5069 259.736 83.815 266.174 93.4721 275.453C95.7443 277.725 98.9634 280.187 101.614 278.672C103.319 277.536 103.887 275.074 103.129 273.18C102.372 271.287 100.668 269.772 99.1527 268.636C90.0637 262.198 78.3237 260.494 68.0985 255.76C48.4056 246.671 35.5294 224.706 37.2336 203.119C38.9378 179.639 55.4117 160.325 64.3114 138.549C71.6963 120.939 74.3472 101.057 84.5724 84.9614C98.206 63.5643 124.337 48.9839 139.296 28.5336L138.349 27.3975Z" fill="#CF9C98"/>
<path d="M137.403 26.2617C119.982 40.6527 101.425 54.2863 86.6556 71.5176C71.1285 89.5063 63.1756 112.418 54.0866 134.005C44.4295 157.106 33.8256 180.018 27.1981 204.066C22.4643 220.729 16.7836 247.05 37.802 255.003C42.5359 256.707 47.4592 257.275 52.3824 257.843C57.8737 258.6 62.9863 259.547 68.2882 261.251C73.5902 262.956 78.5134 265.417 83.0579 268.636C85.3302 270.151 87.4131 271.666 89.496 273.56C91.5789 275.264 93.2831 277.347 95.5554 278.861C99.1531 281.134 103.887 280.376 104.644 275.642C105.402 271.098 101.047 267.879 97.6383 265.796C88.3599 260.115 77.3773 258.6 67.5308 253.867C49.9208 245.156 37.9914 225.842 38.1808 206.338C38.1808 183.995 52.7611 165.248 62.0395 146.123C66.9627 136.088 70.1817 125.484 73.4008 114.88C76.6198 104.087 80.4069 93.2934 86.845 83.8257C98.585 66.7837 116.384 55.0437 130.775 40.4633C134.184 36.8656 137.403 33.2678 140.433 29.2914C140.811 28.9127 140.622 28.3446 140.433 27.7765C140.243 27.3978 140.054 27.0191 139.864 26.6404C138.918 25.1256 136.456 26.451 137.403 28.1552C137.592 28.534 137.782 28.9127 137.971 29.2914C137.971 28.7233 137.971 28.3446 137.971 27.7765C125.852 44.2504 108.432 55.6117 94.6086 70.1921C87.6024 77.5769 81.7324 85.5299 77.756 94.8083C73.4008 104.844 70.7498 115.448 67.3415 125.862C64.1224 136.088 59.5779 145.745 54.4653 155.213C49.3527 164.491 44.0507 173.58 40.453 183.426C36.8553 192.705 34.9617 202.551 36.0979 212.398C37.0446 221.487 40.453 230.197 45.3762 237.771C50.4888 245.346 57.3056 251.784 65.2585 255.949C74.5369 260.873 85.1408 262.388 94.4192 267.5C96.6915 268.636 99.1531 269.962 100.668 272.045C103.13 274.885 101.615 279.619 97.4489 277.157C95.1766 275.832 93.4724 273.749 91.5789 272.234C89.496 270.53 87.4131 268.826 85.1408 267.311C76.8092 261.63 67.1521 257.843 57.1163 256.518C47.6485 255.192 35.9085 255.192 29.6598 246.482C24.1685 238.718 24.9259 227.925 26.6301 219.025C31.1746 195.356 41.2104 173.012 50.2995 150.857C55.0334 139.496 59.9566 127.945 64.6905 116.584C69.235 105.98 73.5901 95.187 80.0282 85.5299C92.1469 66.9731 110.136 52.7714 126.988 38.9485C131.154 35.5401 135.32 32.3211 139.296 28.9127C140.811 27.2085 138.918 25.1256 137.403 26.2617Z" fill="#CF9C98"/>
<path d="M140.432 32.1304C135.509 50.1191 118.088 65.4569 105.97 79.6585C82.8684 106.547 70.5603 140.631 58.8203 173.957C55.0332 184.751 51.0567 195.923 49.7312 207.284C48.4058 218.835 50.11 230.953 56.548 240.61C62.7968 249.889 72.6432 255.948 80.9748 263.522C89.3065 271.097 96.502 281.89 94.0404 292.872C90.632 308.399 70.939 313.891 61.4713 326.578C55.4119 334.72 53.7077 345.892 57.1161 355.36C60.5245 364.827 69.0455 372.402 79.0813 374.484C64.3116 373.727 50.678 362.555 47.0803 348.353C43.4825 333.962 50.2993 317.678 62.9861 310.293C72.0751 304.802 84.3833 303.098 90.0639 294.198C95.1765 286.056 92.5255 274.694 86.2768 267.309C80.0281 259.925 71.1284 255.38 62.4181 251.025C53.7077 246.67 44.9974 241.746 39.3167 233.794C32.8786 224.705 31.5532 212.965 33.2574 201.982C34.9616 190.999 39.5061 180.774 43.8613 170.549C55.2226 144.607 66.5838 118.855 78.1345 92.9134C83.8152 79.8479 89.8746 66.4036 98.7743 55.421C107.674 44.4385 124.527 32.1304 138.918 31.1836L140.432 32.1304Z" fill="#CF9C98"/>
<path d="M139.107 31.7522C135.32 45.0071 125.852 55.611 116.952 65.4574C107.674 75.6826 98.3956 85.9078 91.0108 97.6478C75.2943 122.264 65.6372 150.289 55.9801 177.745C51.0568 191.947 46.5123 207.095 48.5952 222.243C49.542 228.871 51.6249 235.498 55.412 241.179C59.1991 246.86 64.3117 251.404 69.4243 255.57C79.6495 263.902 93.4724 273.748 93.0937 288.707C92.9043 300.826 81.7324 307.643 73.022 314.081C68.6669 317.3 64.3117 320.708 60.9033 324.874C56.9269 329.797 54.6546 335.667 54.0865 341.916C52.761 354.413 59.3885 366.532 70.3711 372.781C73.022 374.296 75.8624 375.242 78.7027 376C78.892 375.053 78.892 374.106 79.0814 373.16C66.0159 372.402 53.7078 363.313 49.3526 350.816C44.9975 338.508 49.1633 323.927 58.631 315.217C67.7201 306.885 82.3004 306.507 90.064 296.471C98.585 285.677 92.715 270.529 83.4366 262.197C72.454 252.351 57.4949 248.564 46.3229 238.907C34.2042 228.303 32.1213 212.018 35.7191 196.87C37.6126 188.728 40.8316 180.964 44.24 173.39C47.8378 165.248 51.4355 157.105 55.0333 148.963C62.2288 132.679 69.4243 116.394 76.4304 100.109C82.8685 85.5291 88.7385 70.3807 98.585 57.6939C106.917 46.7113 119.414 36.8648 132.858 33.2671C134.562 32.8884 136.077 32.5096 137.781 32.3203C138.728 32.1309 138.728 32.3203 139.864 32.8884C141.379 33.8351 142.894 31.3735 141.379 30.4267C140.811 30.048 140.243 29.48 139.675 29.2906C138.35 28.9119 136.267 29.6693 134.941 29.8587C131.722 30.4267 128.503 31.5629 125.473 32.8884C118.846 35.918 112.597 40.0839 107.106 44.8177C95.1766 55.0429 87.6024 68.8658 81.1643 83.0675C73.5901 99.5414 66.5839 116.205 59.1991 132.679C52.0036 149.152 44.24 165.437 37.6126 182.29C32.1213 196.681 28.5236 212.965 34.9616 227.735C41.2104 242.315 56.1694 248.374 69.0456 255.381C75.8623 259.168 82.8685 263.523 87.2237 270.15C91.2001 276.21 93.283 284.352 90.064 291.169C87.2237 297.417 80.5962 300.637 74.5369 303.098C68.6668 305.56 62.6075 307.832 57.6843 311.998C48.0271 320.329 43.1039 333.774 45.3762 346.46C47.6484 359.147 57.6843 369.94 69.9923 373.917C73.022 374.864 76.0517 375.432 79.2707 375.621C80.7856 375.621 81.1643 373.16 79.6495 372.781C66.7733 369.751 57.1162 358.2 56.9268 344.756C56.9268 338.129 59.0097 331.312 63.3649 326.199C66.7733 321.844 71.3178 318.625 75.673 315.406C83.6259 309.536 93.0937 303.287 95.5553 293.062C98.7743 279.997 89.3065 268.067 80.0281 260.115C74.9155 255.759 69.4243 251.783 64.5011 247.049C59.3885 242.126 55.412 236.256 53.3291 229.25C48.9739 214.669 52.0036 199.332 56.5481 185.319C61.0926 171.307 66.2052 157.484 71.5072 143.85C76.8091 130.406 82.6791 117.151 90.064 104.654C97.0701 92.5352 105.591 81.9313 115.059 71.7062C123.959 62.049 133.237 52.3919 138.918 40.4626C140.243 37.8116 141.19 34.9713 142.137 32.1309C142.326 30.8055 139.486 30.048 139.107 31.7522Z" fill="#CF9C98"/>
<path d="M129.071 45.0063C130.775 41.2192 134.752 39.1362 138.349 39.7043C141.947 40.2724 144.409 43.4914 145.545 46.8998C146.492 50.3082 146.302 53.9059 146.113 57.5037C137.403 56.7463 128.882 61.8589 123.39 68.6756C117.899 75.4924 110.893 84.0134 108.053 92.1557C100.289 113.742 97.4486 135.897 98.2061 158.809C99.1528 182.667 101.425 194.407 115.437 212.396C119.035 217.13 124.716 222.811 134.941 228.87C170.729 250.646 210.304 297.606 111.84 311.808C104.265 312.944 100.857 305.18 94.7977 307.263C88.9277 309.346 72.6431 334.53 76.2409 339.832C71.3176 329.418 83.6257 301.582 91.5786 293.251C96.6912 287.949 104.455 283.404 104.455 276.02C104.455 270.15 99.3422 265.416 93.8509 263.143C88.3596 260.871 82.3002 260.114 77.1876 257.273C66.3944 251.593 61.6606 238.717 59.0096 226.787C49.9205 186.833 54.8437 143.66 72.6431 106.925C85.5193 80.2263 101.993 57.5037 129.071 45.385V45.0063Z" fill="#CF9C98"/>
<path d="M130.396 45.7642C132.479 41.4091 137.97 39.5155 141.758 43.1132C145.545 46.9003 145.166 52.7704 144.787 57.6936C145.166 57.3149 145.734 56.7468 146.302 56.1788C137.402 55.6107 129.26 60.1552 123.579 66.7826C117.331 73.7888 110.893 81.931 107.484 90.6414C103.508 100.488 101.046 111.281 99.342 121.885C97.6378 132.489 96.8803 143.093 97.0697 153.697C97.259 169.981 98.2059 186.644 106.348 201.035C109.946 207.663 114.68 214.101 119.982 219.403C125.473 224.705 131.911 228.681 138.349 232.847C146.113 237.96 153.498 243.83 159.746 250.646C165.238 256.516 170.35 263.333 172.054 271.286C177.167 293.251 149.142 302.719 132.858 306.696C128.503 307.832 124.147 308.589 119.792 309.347C115.248 310.104 110.325 311.619 105.969 309.536C103.318 308.21 101.046 306.317 98.2058 305.749C95.9336 305.37 93.8507 306.128 91.9571 307.642C87.7913 311.051 84.5723 315.974 81.732 320.518C78.8916 325.252 75.6726 330.365 74.7258 335.856C74.3471 337.371 74.3471 339.265 75.2939 340.59C76.2406 342.105 78.5129 340.779 77.7555 339.075C76.2407 335.667 76.8087 331.312 77.3768 327.714C78.3235 322.98 79.6491 318.436 81.5426 314.08C84.951 305.749 89.1168 297.417 95.7442 291.358C99.342 287.949 103.697 284.73 105.401 279.997C107.106 275.263 105.591 270.15 101.993 266.552C97.8271 262.386 92.3358 260.682 86.6552 258.978C80.4064 257.085 74.7258 254.623 70.3707 249.51C62.7965 240.421 60.1454 227.734 58.2519 216.373C55.9796 202.929 55.2223 189.106 56.169 175.283C57.6839 148.395 65.4474 122.453 78.1342 98.7836C84.1935 87.6117 91.1997 76.8185 100.099 67.5401C104.455 62.9955 109.188 58.6404 114.301 55.0426C116.952 53.1491 119.792 51.4449 122.633 49.7407C124.147 48.9833 125.662 48.2258 127.177 47.4684C128.313 46.9003 129.639 46.5216 130.396 45.5749C131.532 44.06 129.449 42.1665 128.313 43.492C127.745 44.2494 125.852 44.8174 125.094 45.1961C123.769 45.7642 122.443 46.5216 121.307 47.2791C118.656 48.7939 116.005 50.3087 113.544 52.2023C108.999 55.4213 104.644 59.0191 100.478 62.9955C92.3358 71.1378 85.5191 80.6056 79.6491 90.452C66.2048 113.175 57.4945 138.359 54.4648 164.49C52.95 177.934 52.7606 191.568 54.0861 205.201C55.4116 217.509 57.3052 230.575 62.6071 241.936C64.8794 246.859 67.7197 251.404 71.8855 254.812C76.6194 258.978 82.4894 260.493 88.3594 262.197C94.0401 263.901 101.425 266.742 103.129 273.369C104.644 279.428 99.342 284.162 95.3655 287.76C91.7678 290.979 88.7381 294.198 86.2765 298.175C83.4362 302.719 81.1639 307.453 79.081 312.566C76.9981 317.678 75.2939 322.98 74.5364 328.282C73.9684 332.259 73.779 336.424 75.4832 340.211C76.2406 339.643 77.1875 339.265 77.9449 338.697C77.1875 337.371 77.9448 335.288 78.3235 333.963C79.081 331.312 80.4065 328.661 81.732 326.01C84.5723 320.708 87.9807 315.406 91.9571 311.051C93.2826 309.725 94.7975 308.021 96.691 307.832C99.7207 307.453 102.372 310.104 104.833 311.24C108.242 312.944 111.461 312.755 115.058 312.187C119.792 311.429 124.337 310.672 128.881 309.725C141.379 307.074 154.823 303.287 165.048 295.145C171.108 290.411 175.463 283.784 175.652 276.02C175.841 268.446 172.244 261.25 168.078 255.191C162.965 247.995 156.527 241.936 149.521 236.445C139.675 228.681 127.935 223.19 119.414 213.912C109.188 202.55 102.75 188.727 101.046 173.39C98.7739 153.318 99.5313 132.489 103.886 112.607C106.159 102.381 108.81 91.7775 114.301 82.8778C116.952 78.5227 120.171 74.5462 123.39 70.5697C126.23 66.972 129.449 63.5636 133.426 61.2913C137.402 58.8297 141.947 57.6936 146.491 57.8829C147.249 57.8829 147.817 57.1255 148.006 56.3681C148.574 49.93 148.574 42.1665 142.326 38.3794C137.213 35.1603 130.964 38.0007 128.503 43.1132C126.988 45.9536 129.449 47.4684 130.396 45.7642Z" fill="#CF9C98"/>
<path d="M148.385 52.3926C162.397 97.4591 197.996 110.146 226.399 145.745C247.796 172.633 281.312 178.503 309.905 172.633C331.681 168.278 352.32 155.78 373.907 149.342C395.493 142.904 419.92 143.283 437.341 161.84C457.602 183.237 464.608 224.327 486.573 241.937C502.858 254.813 523.687 251.405 540.35 239.286C557.013 227.357 570.079 208.042 582.766 188.918C588.068 180.775 593.938 172.254 601.891 170.929C609.654 169.603 618.364 180.965 614.767 190.811C619.311 177.178 610.79 160.325 600.186 156.917C589.582 153.698 578.789 160.325 569.89 169.035C561.179 177.935 553.416 188.918 544.137 196.492C531.45 206.717 512.515 216.753 498.313 211.83C459.874 198.385 431.092 140.821 392.464 129.46C366.711 121.886 352.699 125.673 327.136 134.573C270.33 154.266 197.996 152.561 148.385 51.4458V52.3926V52.3926Z" fill="#CF9C98"/>
<path d="M147.059 52.7716C152.929 71.5178 164.101 87.2342 178.114 100.868C191.937 114.123 207.085 125.863 219.772 140.064C223.37 144.041 226.589 148.396 230.376 152.372C233.784 155.97 237.571 159.189 241.737 162.03C249.69 167.521 258.779 171.497 268.057 173.77C287.561 178.503 307.822 176.231 326.568 169.604C348.344 161.84 369.173 149.153 392.653 147.26C402.689 146.502 413.103 147.828 422.192 152.372C431.282 156.917 438.288 164.112 443.779 172.444C454.383 188.35 460.253 206.907 469.91 223.57C474.265 231.144 479.378 238.34 486.384 243.642C494.526 249.89 504.751 252.541 514.976 251.405C537.131 248.944 553.794 231.523 566.67 214.67C574.055 205.013 580.304 194.599 587.31 184.752C590.34 180.397 593.938 175.663 598.861 173.391C603.405 171.308 607.76 173.012 610.79 176.799C613.82 180.586 614.956 185.699 613.252 190.433C614.199 190.622 615.145 191.001 615.903 191.19C618.932 181.722 616.471 171.119 610.601 163.355C604.731 155.591 595.452 152.94 586.174 156.16C575.002 160.136 566.86 169.793 559.286 178.503C555.12 183.237 551.143 188.161 546.599 192.516C542.433 196.492 537.51 199.901 532.586 202.93C523.308 208.422 511.379 213.913 500.396 211.262C491.875 209.179 483.922 203.688 477.105 198.386C461.578 186.267 448.702 171.119 434.879 157.296C422.003 144.609 407.801 132.301 390.002 127.378C379.398 124.537 368.416 123.212 357.433 124.727C346.072 126.241 335.278 130.407 324.485 134.005C297.218 143.094 267.679 146.502 239.654 138.36C203.298 127.756 176.599 98.7849 158.042 66.7839C155.012 61.4819 152.172 56.18 149.521 50.6887C148.953 49.3632 146.87 50.1206 146.87 51.4461C146.87 51.8248 146.87 52.2035 146.87 52.5823C146.87 54.4758 149.71 54.4758 149.71 52.5823C149.71 52.2035 149.71 51.8248 149.71 51.4461C148.764 51.6355 148.006 52.0142 147.059 52.2035C164.101 86.8555 188.907 120.182 225.263 136.088C252.152 147.828 282.07 148.017 310.094 141.2C328.462 136.656 346.072 127.567 365.386 126.999C376.179 126.62 387.73 128.892 397.766 133.058C405.908 136.656 413.293 141.769 420.11 147.639C435.069 160.325 447.755 175.284 461.768 188.918C468.395 195.167 475.401 201.226 483.165 206.149C490.55 210.883 498.881 215.238 507.97 214.67C518.953 214.102 529.367 208.8 538.267 202.741C548.303 195.924 555.688 187.214 563.641 178.125C571.215 169.414 580.683 158.621 592.991 157.674C603.595 156.917 610.79 166.006 613.441 175.474C614.767 180.397 614.767 185.699 613.252 190.622C612.684 192.326 615.335 193.084 615.903 191.38C618.554 183.427 614.388 173.012 606.056 170.172C596.778 166.953 589.014 177.367 584.47 183.805C570.836 203.309 558.717 224.895 538.835 238.718C529.746 244.967 518.953 249.322 507.781 248.754C497.177 248.186 488.088 242.884 481.082 235.121C468.584 220.919 462.336 201.983 453.815 185.131C449.838 176.989 445.294 169.225 439.234 162.408C432.607 154.834 423.897 149.343 414.05 146.502C393.221 140.632 372.203 147.639 353.078 155.591C341.527 160.325 330.166 165.817 318.047 169.225C308.39 172.065 298.354 173.58 288.318 173.391C268.436 173.201 248.554 166.385 234.163 152.562C230.186 148.775 226.967 144.609 223.559 140.443C220.34 136.656 216.932 133.058 213.334 129.65C206.328 122.833 198.943 116.395 191.747 109.957C177.546 97.4594 163.912 84.2046 155.391 66.9732C153.119 62.2394 151.225 57.3161 149.521 52.3929C149.142 50.31 146.491 51.0674 147.059 52.7716Z" fill="#CF9C98"/>
<path d="M136.266 19.0668C139.295 6.19063 157.663 0.888691 167.509 1.2674C177.356 1.64611 186.445 9.03096 194.587 16.7945C212.387 33.8365 247.607 51.0678 266.921 64.8907C283.963 77.3882 305.928 80.2285 328.083 79.8498C340.769 80.0391 348.912 59.2101 359.705 49.3636C379.398 31.5642 404.961 27.9665 427.683 36.1087C450.406 44.251 470.667 63.3759 486.952 87.0453C499.638 105.602 510.81 127.567 527.284 138.55C542.433 148.775 560.611 148.396 576.895 142.148C593.18 136.088 608.139 124.538 622.908 113.176C613.63 123.401 604.352 133.437 595.073 143.662C586.931 152.562 578.41 161.841 568.564 166.385C551.522 174.338 532.207 167.711 516.68 155.024C501.153 142.337 488.277 124.159 474.833 107.306C461.389 90.4537 446.998 73.7904 429.766 66.7843C379.587 46.5233 320.698 106.928 277.903 76.0627C255.181 59.9675 213.144 28.7239 187.392 27.0197C179.06 26.4516 170.728 29.292 162.397 28.9132C154.065 28.5345 139.106 30.6174 135.698 20.0136L136.266 19.0668Z" fill="#CF9C98"/>
<path d="M137.592 19.4447C139.675 11.6811 147.059 7.13661 154.444 4.675C162.397 2.21338 170.35 1.83467 177.735 5.81112C186.824 10.545 193.451 18.4979 201.404 24.7466C208.789 30.6166 216.742 35.7292 224.695 40.6525C233.027 45.7651 241.548 50.6883 249.879 55.8009C253.666 58.0731 257.264 60.3454 260.862 62.807C264.649 65.2686 268.247 68.109 272.223 70.3812C281.123 75.3045 290.969 78.3341 300.816 79.849C305.928 80.6064 310.852 81.1745 315.964 81.3638C320.509 81.5532 325.811 82.1212 330.355 81.1745C337.361 79.6596 342.285 73.4109 346.45 67.9196C351.752 60.9135 356.297 53.718 363.114 48.0373C378.83 35.1612 399.659 30.4273 419.352 34.9718C438.666 39.5163 455.14 51.8244 468.395 66.026C475.591 73.7896 482.029 82.1212 487.899 91.0209C493.769 99.7313 499.071 108.631 505.13 117.152C510.621 124.726 516.491 132.111 524.065 137.792C532.018 143.851 541.676 147.259 551.711 147.827C573.487 148.774 592.991 137.034 610.033 124.726C614.577 121.318 619.122 117.909 623.666 114.501C623.098 113.744 622.53 112.986 621.962 112.229C613.441 121.507 604.92 130.786 596.399 140.253C588.825 148.585 581.251 157.674 571.404 163.355C551.522 175.095 528.989 164.301 513.462 150.289C496.609 134.951 483.922 115.637 469.531 98.2164C457.034 83.068 442.264 67.7302 422.382 62.807C406.855 59.0199 390.57 61.8602 375.232 66.2154C359.327 70.7599 343.799 77.0086 327.704 80.7957C313.124 84.2041 297.407 85.3403 283.774 77.9554C276.957 74.3577 270.898 69.0557 264.649 64.7006C257.075 59.3986 249.501 54.0967 241.737 49.1734C227.346 39.895 212.008 30.4273 195.156 26.4508C191.369 25.5041 187.581 24.936 183.605 25.1253C177.924 25.3147 172.433 26.6402 166.752 27.0189C162.776 27.2083 158.61 27.2083 154.634 27.0189C150.847 27.0189 147.059 26.8295 143.462 25.5041C141.947 24.936 140.432 24.1786 139.296 23.0424C138.728 22.4744 138.16 21.717 137.592 20.9595C137.402 20.5808 137.213 20.2021 137.024 19.8234C137.213 20.2021 136.834 20.2021 137.213 19.634C138.16 18.1192 135.698 16.6044 134.751 18.1192C133.047 20.7702 136.077 24.1786 138.16 25.8828C140.811 27.9657 144.219 28.9124 147.627 29.4805C151.415 30.0486 155.012 30.0486 158.799 30.0486C163.723 30.0486 168.457 29.8592 173.19 29.2912C178.682 28.5337 184.173 27.7763 189.664 28.5337C193.262 29.1018 196.86 30.0486 200.268 31.1847C208.6 34.025 216.742 38.0015 224.316 42.3567C240.601 51.4457 255.939 62.4283 271.087 73.2215C277.336 77.7661 283.206 81.9319 290.591 84.3935C297.597 86.6658 305.171 87.0445 312.366 86.4764C345.693 83.8254 375.611 62.9964 409.506 64.3218C418.216 64.7006 426.926 66.7835 434.69 71.1386C444.347 76.4406 452.489 84.2041 459.874 92.1571C475.401 109.199 487.899 128.892 503.994 145.555C518.006 160.325 537.699 174.527 559.286 170.929C569.7 169.225 578.41 162.787 585.795 155.402C594.506 146.881 602.648 137.413 610.79 128.513C615.145 123.779 619.501 119.045 623.666 114.312C624.613 113.175 623.288 111.093 621.962 112.039C604.352 125.484 585.417 140.821 562.883 144.419C552.09 146.123 540.918 144.798 531.261 139.496C522.551 134.762 515.734 127.188 509.675 119.235C497.177 102.572 487.52 84.0148 473.697 68.2983C460.821 53.718 445.294 40.8418 426.737 34.4038C408.748 28.155 388.487 29.2912 371.635 38.5696C363.492 42.9247 356.676 48.9841 350.995 56.1796C346.072 62.6177 341.906 70.0025 335.468 75.1151C332.059 77.7661 328.84 78.5235 324.675 78.5235C319.373 78.5235 314.071 78.3341 308.769 77.9554C298.165 77.0086 287.372 74.7364 277.525 70.1919C269.193 66.2154 261.998 60.3454 254.045 55.4222C245.903 50.3096 237.382 45.3863 229.24 40.4631C220.908 35.3505 212.766 30.2379 205.002 24.5573C197.239 18.6873 190.611 11.3024 182.469 5.81112C175.084 0.887891 167.51 -1.00566 158.799 0.509182C151.604 1.64531 144.219 4.675 139.107 9.78759C136.645 12.2492 134.941 15.2789 133.994 18.6873C134.373 20.5808 137.024 21.3382 137.592 19.4447Z" fill="#CF9C98"/>
<path d="M136.077 27.7768C134.562 35.7297 148.574 40.2742 153.308 45.1975C162.208 54.0971 171.108 62.6181 179.818 72.0859C196.481 90.264 226.778 94.0511 246.66 107.874C252.909 112.04 261.43 118.667 272.791 116.395C390.381 92.1575 395.493 86.0982 438.856 112.797C451.542 120.75 493.958 157.106 575.002 127.567C530.504 136.088 517.817 139.496 444.347 83.0685C420.299 64.3223 392.274 61.1033 365.386 69.2456C348.533 74.3582 333.006 86.4769 316.343 93.1043C299.68 99.7317 280.176 100.11 266.921 84.5833C259.726 76.0623 254.803 69.4349 248.175 60.1565C240.033 48.9846 231.701 32.7 220.719 28.7236C203.866 22.6642 152.929 29.481 135.509 31.7532" fill="#CF9C98"/>
<path d="M134.752 27.3976C133.426 35.3505 142.894 39.7057 148.385 43.3035C152.93 46.3331 156.527 50.6883 160.504 54.4754C165.238 59.0199 169.782 63.7538 174.327 68.4877C178.114 72.4641 181.901 76.63 186.256 79.849C190.233 82.8787 194.588 85.3403 198.943 87.4232C208.411 91.9677 218.257 95.5655 227.914 99.5419C232.459 101.435 237.003 103.518 241.169 106.169C245.335 108.631 248.933 111.661 253.099 113.933C257.264 116.395 261.998 118.099 266.921 118.099C273.36 118.288 279.987 116.016 286.046 114.69C306.307 110.525 326.379 105.98 346.64 102.004C367.09 98.0271 389.624 92.9145 409.885 99.7313C427.116 105.412 440.939 117.531 456.655 125.862C487.52 142.336 523.119 143.472 556.446 134.573C562.694 132.868 568.754 130.975 574.624 128.892C576.328 128.324 575.76 125.862 573.866 126.241C563.641 128.135 553.416 130.407 543.001 130.975C533.533 131.354 524.255 130.028 515.166 126.809C502.1 122.075 490.171 114.69 478.81 106.927C470.478 101.435 462.525 95.5655 454.572 89.5061C445.483 82.6893 436.773 75.6832 426.359 70.9493C407.991 62.807 387.541 61.8603 368.226 66.9728C357.812 69.6238 348.534 74.5471 339.066 79.6596C329.787 84.7722 320.509 90.4529 310.284 93.6719C301.763 96.3229 292.674 97.2697 283.963 94.8081C273.928 91.9677 267.679 84.5829 261.43 76.63C254.992 68.4877 248.933 60.1561 243.063 51.6351C238.329 44.4396 233.406 36.4867 226.399 30.9954C221.476 27.2083 215.606 26.0721 209.547 25.5041C202.351 24.936 195.156 24.936 187.96 25.3147C172.623 25.8828 157.285 27.587 142.136 29.4805C139.675 29.8592 137.213 30.0486 134.562 30.4273C132.858 30.6167 132.669 33.457 134.562 33.2676C148.385 31.5634 162.208 29.8592 176.031 28.7231C183.795 28.155 191.747 27.7763 199.511 27.7763C205.57 27.7763 212.009 27.9657 218.068 29.6699C226.21 32.1315 231.701 39.8951 236.246 46.5225C241.927 54.6648 247.418 62.807 253.288 70.7599C259.158 78.5235 265.028 87.4232 273.36 92.9145C280.555 97.6484 289.265 99.3526 297.597 98.7845C318.237 97.2697 335.089 83.8255 353.078 75.3045C371.824 66.4048 393.789 63.9432 413.861 69.4345C424.276 72.4641 433.933 77.3874 442.643 84.0148C451.353 90.6422 460.253 97.2697 469.153 103.708C481.461 112.418 494.148 120.939 507.971 126.809C517.06 130.786 526.527 133.247 536.563 133.626C546.41 133.815 556.256 132.111 565.724 130.407C568.564 129.839 571.404 129.271 574.245 128.892C574.055 127.945 573.677 126.998 573.487 126.241C538.267 138.928 499.071 142.904 464.419 126.998C447.756 119.235 433.554 106.927 416.701 99.7313C408.938 96.5122 400.985 94.4293 392.653 94.0506C382.049 93.4826 371.256 94.9974 360.842 96.891C343.8 99.7313 326.947 103.518 310.094 107.116C298.165 109.578 286.236 112.229 274.306 114.69C268.247 116.016 262.756 116.016 256.886 113.365C252.72 111.471 249.122 108.631 245.335 106.169C228.482 94.9974 207.843 91.2103 190.801 80.4171C186.446 77.7661 182.658 74.547 179.25 70.7599C174.706 66.0261 170.161 61.2922 165.427 56.5583C161.072 52.3925 157.095 47.6586 152.362 43.6822C149.332 41.2205 145.924 39.5164 142.704 37.2441C139.864 35.3505 135.888 32.5102 136.456 28.5338C137.781 26.2615 134.941 25.5041 134.752 27.3976Z" fill="#CF9C98"/>
<path d="M147.438 41.4104C153.119 61.1034 178.303 92.5363 189.854 106.17C201.973 120.561 222.991 115.07 237.382 124.537C250.448 132.869 263.513 141.39 277.715 144.42C301.195 149.343 332.249 145.934 355.918 142.337C381.103 138.55 412.536 139.118 428.063 146.124C441.128 151.994 449.271 159.568 457.602 183.806C454.383 155.781 439.045 132.49 420.489 120.75C401.932 109.01 380.913 107.685 360.652 111.282C340.581 114.88 320.888 123.401 301.384 130.597C292.295 134.005 282.827 137.035 273.36 135.709C261.051 133.816 250.258 124.348 239.844 115.259C223.18 100.679 184.173 87.4237 167.51 72.8434C158.8 65.0798 149.332 55.044 146.87 41.0317L147.438 41.4104Z" fill="#CF9C98"/>
<path d="M145.924 41.7884C148.953 52.203 154.823 61.6707 160.693 70.5704C167.131 80.4169 174.327 89.6953 181.712 98.7843C184.741 102.382 187.582 106.548 190.99 109.767C195.156 113.554 200.268 115.826 205.57 117.341C211.251 118.856 216.932 119.613 222.612 120.75C228.861 122.075 233.974 124.347 239.465 127.945C252.152 136.087 265.217 144.04 280.176 146.691C293.999 149.153 308.39 148.963 322.402 148.017C336.225 147.07 349.859 144.608 363.682 143.093C377.315 141.579 391.328 141.2 404.961 142.525C415.376 143.472 425.412 145.744 434.311 151.425C442.643 156.727 447.945 165.059 451.921 173.958C453.436 177.367 454.762 180.775 455.898 184.373C456.466 185.698 458.928 185.698 458.738 183.994C455.898 160.514 444.537 137.413 425.601 123.022C403.446 106.169 374.854 105.98 348.912 112.607C334.142 116.394 319.941 122.264 305.739 127.566C298.544 130.217 291.348 133.247 283.774 134.383C276.2 135.519 269.004 134.194 262.188 130.596C251.016 124.726 242.873 115.069 232.27 108.252C222.802 102.003 212.577 97.0801 202.351 92.1569C182.658 82.3104 160.504 71.7066 150.847 50.4988C149.332 47.4691 148.385 44.0607 147.817 40.6523C147.438 41.031 146.681 41.4097 145.924 41.7884C145.924 41.9778 146.113 42.1672 146.302 42.3565C147.438 43.8714 149.332 41.7884 148.385 40.2736C148.196 40.0843 148.006 39.8949 148.006 39.7055C147.06 38.3801 145.355 39.8949 145.545 41.031C149.711 63.5643 170.54 77.9553 189.475 87.9911C199.89 93.4824 210.494 98.4056 220.719 104.086C225.263 106.548 229.808 109.199 234.163 112.229C239.086 115.826 243.441 120.181 248.365 123.969C253.477 128.134 258.779 131.921 265.028 134.383C271.277 137.034 277.904 137.792 284.531 136.655C292.106 135.519 299.301 132.679 306.497 130.028C313.692 127.377 320.698 124.537 327.894 121.886C354.404 112.229 384.322 104.844 411.399 117.152C433.933 127.377 449.081 149.91 454.572 173.58C455.33 176.799 455.898 180.207 456.277 183.615C457.223 183.426 458.17 183.426 459.117 183.237C455.519 172.822 450.975 161.84 443.022 154.076C436.773 148.017 428.631 144.04 420.299 141.768C407.991 138.738 394.926 138.17 382.239 138.549C368.416 138.928 354.782 141.2 341.149 142.904C326.758 144.608 311.988 145.744 297.597 145.176C290.591 144.798 283.585 144.23 276.768 142.525C269.194 140.632 262.188 137.413 255.371 133.626C248.933 130.028 242.873 125.483 236.435 121.886C231.512 119.235 225.831 117.909 220.34 116.773C214.659 115.637 208.979 114.88 203.488 112.986C197.807 111.092 193.641 107.684 189.854 103.14C182.848 94.8079 176.031 86.0975 169.782 77.3872C162.966 67.9195 156.338 58.073 151.604 47.2797C150.657 45.0075 149.9 42.9246 149.143 40.463C148.196 39.3268 145.545 40.0843 145.924 41.7884Z" fill="#CF9C98"/>
<path d="M146.302 39.5171C151.225 52.0145 182.09 67.9204 189.854 77.1988C203.677 93.6727 220.908 103.519 237.95 112.987C255.749 123.023 274.117 133.248 293.242 134.952C337.929 139.307 382.428 98.4065 425.601 114.691C429.388 116.206 433.364 118.099 436.205 122.076C437.53 123.78 438.477 125.863 439.424 127.946C444.726 138.55 449.838 149.154 455.14 159.758C461.01 171.498 466.88 183.427 474.644 192.895C488.277 209.369 507.402 216.564 525.202 212.209C543.001 207.664 559.096 191.569 567.617 169.604C546.22 180.397 521.793 178.693 501.154 165.06C478.999 150.29 462.146 123.212 440.371 107.496C409.695 85.5304 373.149 88.7494 339.066 94.9981C304.982 101.247 269.762 109.768 236.435 97.0811C212.008 87.6133 161.64 68.2991 146.491 39.8958L146.302 39.5171Z" fill="#CF9C98"/>
<path d="M144.977 39.8956C147.06 45.0082 151.604 49.174 155.77 52.5824C161.261 57.3163 167.321 61.2928 173.191 65.4586C178.114 69.0563 183.416 72.4647 187.771 76.8199C190.801 79.8496 193.262 83.0686 196.292 86.0983C199.7 89.3173 203.298 92.347 206.896 95.1873C214.281 100.868 222.423 105.791 230.565 110.336C239.465 115.448 248.365 120.561 257.643 125.105C266.732 129.65 276.2 133.437 286.236 135.331C294.757 137.035 303.278 137.035 311.799 135.709C329.03 133.248 345.314 126.62 361.788 121.129C377.694 115.638 394.547 110.714 411.399 112.608C419.731 113.555 430.524 116.016 435.448 123.401C438.477 127.756 440.56 133.058 442.832 137.792C445.294 142.905 447.756 147.828 450.217 152.941C458.928 170.361 466.88 190.054 482.408 202.741C495.094 212.966 511.947 217.889 527.853 212.966C543.191 208.232 555.309 195.924 563.073 182.101C565.345 178.125 567.239 174.148 568.943 169.983C569.511 168.657 567.807 167.9 566.86 168.468C551.712 176.042 534.48 177.367 518.385 172.066C502.858 166.953 490.739 155.97 479.567 144.42C468.585 133.058 458.549 120.561 446.43 110.525C434.122 100.489 419.731 93.6725 404.204 90.8322C371.256 84.7728 338.498 94.4299 306.118 99.5425C287.94 102.383 269.194 103.898 251.205 99.9212C238.708 97.2702 226.589 91.9683 215.038 86.8557C202.919 81.7431 190.801 75.8731 179.439 68.867C168.835 62.2395 158.232 54.476 151.036 44.2508C149.711 42.3573 148.764 39.5169 146.87 38.1914C145.355 37.0553 144.03 39.5169 145.355 40.6531C145.923 41.0318 146.681 42.9253 147.06 43.6827C147.817 44.8189 148.574 46.1444 149.521 47.2805C151.225 49.5528 153.308 51.825 155.391 53.9079C159.746 58.2631 164.67 62.2395 169.593 65.8373C180.765 73.7902 192.884 80.0389 205.192 85.7196C215.606 90.4535 226.399 94.8086 237.193 98.7851C254.235 105.034 272.791 105.981 290.78 104.087C325.053 100.868 358.569 89.128 393.221 91.9683C409.885 93.4832 425.98 98.5957 439.613 108.442C452.679 117.721 462.904 130.218 473.697 141.958C484.301 153.509 495.852 165.059 510.243 171.687C525.013 178.314 541.676 179.829 557.203 175.095C560.99 173.959 564.588 172.444 568.185 170.74C567.428 170.172 566.86 169.604 566.103 169.225C559.854 184.752 549.25 199.522 534.102 207.286C519.142 214.86 501.911 212.966 488.088 203.688C471.804 192.705 463.283 173.77 454.951 156.728C450.028 146.881 445.294 136.845 440.371 126.999C438.477 123.023 436.205 119.425 432.418 116.774C429.199 114.502 425.222 113.176 421.435 112.04C388.866 102.572 356.486 122.076 325.811 130.218C317.669 132.301 309.526 133.816 301.195 134.005C291.727 134.194 282.259 132.301 273.36 129.082C263.513 125.484 254.235 120.75 245.146 115.638C237.003 111.093 228.672 106.549 220.908 101.625C212.955 96.7022 205.381 91.0215 198.564 84.5835C193.641 79.8496 189.665 74.5476 184.173 70.3818C173.569 62.0502 161.072 55.4228 151.794 45.3869C150.089 43.6827 148.574 41.5998 147.628 39.3276C147.06 37.6234 144.219 38.3808 144.977 39.8956Z" fill="#CF9C98"/>
<path d="M200.457 212.208C208.41 203.119 214.091 195.166 222.991 176.988C223.748 201.036 240.979 222.623 257.264 230.386C273.549 238.339 291.537 236.067 308.579 231.523C325.621 226.789 342.284 219.783 359.516 218.078C376.747 216.374 395.304 220.919 408.369 236.825C412.725 242.126 416.701 248.754 421.814 252.541C429.766 258.032 439.234 255.571 447.755 252.162C466.501 244.777 484.49 233.037 500.585 217.889C486.762 243.641 469.91 265.985 450.785 283.974C434.5 299.312 416.89 311.241 399.28 322.981C385.079 332.449 370.877 342.106 355.729 347.408C327.325 357.254 296.082 351.195 270.708 330.555C240.033 305.75 214.848 258.79 197.428 215.617L200.457 212.208Z" fill="#CF9C98"/>
<path d="M201.594 213.344C211.061 202.551 218.068 190.621 224.316 177.745C223.37 177.556 222.612 177.177 221.665 176.988C222.612 197.249 234.163 217.131 250.826 228.303C270.708 241.747 295.135 237.203 316.722 230.575C338.308 223.948 361.409 214.669 384.132 221.865C394.925 225.273 403.636 232.279 410.263 241.179C413.293 245.345 416.322 249.7 420.488 252.919C424.654 256.138 429.956 257.464 435.258 256.896C441.317 256.328 446.998 254.055 452.489 251.783C458.359 249.321 464.04 246.292 469.721 243.073C481.461 236.256 492.254 227.924 502.1 218.835C501.343 218.267 500.585 217.699 499.828 217.131C486.573 241.747 470.099 264.47 449.649 283.595C438.666 293.82 426.737 302.72 414.429 311.241C402.31 319.572 390.191 328.093 377.505 335.478C365.386 342.673 352.32 348.354 338.119 349.869C325.432 351.384 312.367 349.68 300.437 345.514C275.632 336.803 257.075 317.3 242.116 296.471C226.21 274.316 213.712 249.7 203.109 224.705C201.783 221.486 200.458 218.456 199.132 215.237C198.943 215.616 198.943 216.184 198.753 216.563C199.7 215.616 200.647 214.48 201.594 213.344C202.73 212.018 200.647 209.936 199.511 211.261C198.564 212.397 197.617 213.533 196.67 214.859C196.292 215.237 196.102 215.806 196.292 216.184C206.896 242.126 219.204 267.689 234.731 291.169C249.122 312.566 266.732 333.395 290.401 344.756C302.141 350.248 314.828 353.467 327.704 353.656C340.959 353.845 354.025 350.626 366.143 344.946C380.156 338.318 393.032 329.419 405.908 320.708C418.216 312.377 430.524 303.856 441.885 294.199C464.04 275.831 482.218 253.108 496.609 228.303C498.503 225.084 500.207 221.865 502.1 218.646C502.858 217.131 501.154 215.806 499.828 216.942C491.118 225.084 481.65 232.469 471.614 238.718C462.336 244.398 452.3 249.889 441.696 252.919C436.205 254.434 430.145 255.191 424.843 252.54C419.731 249.889 416.512 244.966 413.103 240.422C407.044 232.469 400.038 225.652 390.949 221.486C371.256 212.586 350.048 217.131 330.355 223.38C308.201 230.197 283.774 239.854 260.862 230.575C240.222 222.244 225.452 199.142 224.506 177.177C224.506 175.852 222.612 175.094 221.855 176.42C215.606 188.917 208.789 200.846 199.511 211.45C198.375 212.586 200.268 214.669 201.594 213.344Z" fill="#CF9C98"/>
<path d="M225.263 177.178C223.37 190.622 228.104 204.823 235.678 213.534C243.252 222.244 253.099 226.221 262.945 227.357C272.792 228.493 282.638 226.978 292.485 226.031C328.841 222.433 347.587 190.243 401.364 236.635C413.672 247.239 430.335 258.222 444.726 256.707C450.028 256.139 487.52 276.21 496.42 260.494C481.272 269.394 491.497 235.12 437.152 237.203C420.678 237.771 404.962 198.196 389.434 190.432C365.008 177.935 337.74 168.657 312.367 176.041C293.81 181.343 275.443 177.556 230.565 150.479C240.601 155.591 239.276 167.142 236.814 171.497C234.163 175.852 229.24 178.503 225.453 176.61L225.263 177.178Z" fill="#CF9C98"/>
<path d="M223.938 177.178C222.234 190.433 226.21 204.824 235.11 214.86C244.767 225.653 258.779 229.44 272.791 229.062C280.176 228.872 287.75 228.115 295.135 226.979C299.301 226.411 303.467 225.464 307.443 224.328C315.018 222.055 322.403 219.026 329.787 216.564C337.362 214.103 345.125 212.588 353.078 213.156C363.682 214.103 373.718 218.647 382.617 224.138C395.115 232.091 405.34 243.074 418.216 250.459C424.086 253.867 430.524 256.707 437.341 257.654C440.939 258.222 444.347 257.465 447.566 258.601C455.33 260.873 462.904 264.092 470.857 265.986C478.052 267.69 487.52 269.394 493.958 264.66C495.284 263.714 496.42 262.388 497.367 260.873C498.124 259.548 496.609 258.222 495.473 258.98C491.875 261.063 489.982 260.305 487.709 257.276C484.68 253.299 482.029 249.133 478.052 245.914C471.614 240.423 463.472 237.583 455.14 236.257C448.892 235.31 442.643 235.689 436.205 235.5C432.228 235.31 428.631 232.659 425.79 230.008C417.648 222.434 411.778 212.588 405.151 203.877C402.121 199.901 399.091 195.924 395.304 192.705C390.76 188.729 384.89 186.267 379.398 183.806C364.629 177.178 348.912 172.066 332.628 171.687C325.243 171.498 318.047 172.634 310.852 174.717C307.633 175.663 304.224 176.232 301.005 176.421C292.863 176.8 284.91 175.095 277.336 172.444C265.028 168.279 253.477 162.03 242.305 155.592C238.518 153.509 234.92 151.237 231.133 148.964C230.565 149.722 230.187 150.669 229.618 151.426C234.92 154.266 237.571 159.379 236.814 165.249C236.246 170.172 231.701 177.746 225.831 174.906C224.885 174.527 223.559 174.906 223.748 176.042C223.748 176.61 223.938 176.989 223.938 177.178C224.127 179.072 226.967 179.072 226.778 177.178C226.778 176.989 226.778 176.61 226.778 176.421C226.021 176.8 225.263 177.178 224.695 177.557C231.891 180.965 238.518 173.77 239.654 167.143C240.98 159.758 237.95 152.562 231.323 148.964C229.618 148.018 228.293 150.479 229.808 151.426C242.305 159 255.181 166.385 268.815 172.066C277.147 175.474 285.857 178.504 294.946 179.072C298.544 179.261 301.952 179.261 305.55 178.693C310.284 177.936 314.639 176.421 319.373 175.663C336.036 172.634 353.078 176.421 368.605 182.291C372.771 183.806 376.937 185.699 381.103 187.593C384.322 189.108 387.541 190.433 390.381 192.327C394.357 194.978 397.576 198.765 400.606 202.363C407.612 211.073 413.482 220.919 421.246 229.251C424.276 232.47 427.684 235.689 431.85 237.393C436.773 239.476 442.454 238.151 447.566 238.529C457.034 239.097 466.88 240.991 474.644 246.672C478.999 249.891 482.029 254.246 485.248 258.412C487.52 261.441 490.171 263.903 494.148 262.767C495.284 262.388 496.23 262.009 497.177 261.441C496.609 260.873 495.852 260.116 495.284 259.548C491.307 266.554 481.271 265.228 474.644 263.903C466.502 262.199 458.738 259.169 450.975 256.518C448.892 255.761 446.809 255.003 444.537 255.003C437.72 255.193 431.471 253.678 425.222 250.648C411.967 244.399 401.742 233.796 390.002 225.464C381.103 219.215 371.445 213.724 360.652 211.262C352.889 209.558 344.936 209.747 337.172 211.452C321.834 214.86 308.011 222.813 292.106 224.328C277.336 225.843 261.809 228.304 247.986 221.109C235.299 214.481 227.914 201.037 226.589 187.214C226.21 183.806 226.399 180.397 226.778 176.989C226.967 175.285 224.127 175.285 223.938 177.178Z" fill="#CF9C98"/>
<path d="M317.668 174.716C337.172 164.112 357.812 156.159 378.641 154.644C399.659 153.129 421.056 158.242 439.424 172.633C456.845 186.266 468.774 211.072 486.384 224.327C503.047 237.014 496.988 251.026 541.486 250.268C528.042 254.813 522.361 260.115 477.295 241.369C469.721 238.339 461.578 239.096 454.383 234.741C445.294 229.25 438.288 219.025 430.524 210.693C414.808 193.841 395.493 184.183 375.99 179.26C356.486 174.337 337.929 175.284 318.047 175.284L317.668 174.716Z" fill="#CF9C98"/>
<path d="M318.426 175.852C338.119 165.248 359.705 156.537 382.428 155.78C403.257 155.023 424.465 161.65 440.56 175.284C455.14 187.592 464.419 204.823 477.673 218.267C482.218 223.001 487.709 226.599 492.065 231.522C494.716 234.552 497.177 237.96 500.017 240.99C510.621 251.783 527.474 251.783 541.486 251.594C541.297 250.647 541.297 249.7 541.107 248.753C534.859 250.836 529.178 253.109 522.361 253.109C517.249 252.919 511.947 251.972 507.024 250.458C498.881 248.185 490.928 245.345 482.975 242.126C478.052 240.232 473.508 238.528 468.206 237.581C463.282 236.635 458.549 235.877 454.194 233.226C446.241 228.114 440.371 219.971 434.122 212.965C421.624 198.574 405.719 187.97 387.73 181.532C377.126 177.745 365.954 175.473 354.593 174.526C342.285 173.579 329.977 173.958 317.479 173.958C317.858 174.147 318.236 174.337 318.615 174.716C318.426 174.526 318.426 174.337 318.236 174.147C317.479 172.443 315.017 173.958 315.775 175.662C315.964 175.852 315.964 176.041 316.154 176.23C316.343 176.609 316.911 176.988 317.29 176.988C339.066 176.988 360.841 176.23 382.049 182.858C400.606 188.728 417.459 199.142 430.524 213.533C436.773 220.539 442.453 228.303 450.028 233.984C453.815 236.824 457.791 238.528 462.336 239.475C467.448 240.611 472.372 241.179 477.105 243.073C490.55 248.564 504.562 254.434 519.142 255.76C523.119 256.138 527.285 255.949 531.072 254.813C534.48 254.055 537.888 252.54 541.107 251.404C542.622 250.836 542.433 248.564 540.729 248.564C527.853 248.753 511.757 249.132 501.911 239.475C498.881 236.635 496.609 233.037 493.769 230.007C489.603 225.084 484.301 221.676 479.756 217.131C466.123 203.687 456.844 186.456 442.453 173.769C427.116 160.325 407.044 153.318 386.972 152.75C361.788 152.182 337.74 161.461 315.964 173.39C315.396 174.337 316.722 176.798 318.426 175.852Z" fill="#CF9C98"/>
<path d="M133.426 135.898C118.278 120.75 98.3955 117.341 80.4067 122.643C81.9216 152.751 91.7681 165.248 110.136 164.87C114.301 164.87 118.088 163.165 121.118 160.325C127.367 154.455 130.775 150.479 133.426 135.898Z" fill="white" stroke="white" stroke-width="0.5" stroke-miterlimit="10"/>
<path d="M141 135.899C141.758 140.633 140.243 150.29 152.74 160.515C155.77 162.976 159.557 164.491 163.533 165.249C192.694 170.361 197.807 155.592 201.594 126.62C177.735 119.614 151.793 119.046 141 135.899Z" fill="white" stroke="white" stroke-width="0.5" stroke-miterlimit="10"/>
<path d="M131.343 136.656C133.237 134.762 140.432 134.762 142.326 136.656" stroke="white" stroke-width="2" stroke-miterlimit="10" stroke-linecap="round" stroke-linejoin="round"/>
<path d="M200.458 134.005L201.594 126.431H205.381C210.115 129.082 213.334 131.543 214.849 134.005H200.458Z" fill="white" stroke="white" stroke-width="0.5" stroke-miterlimit="10"/>
</svg>
